<?xml version="1.0" encoding="utf-8"?>
<!-- Generator: Adobe Illustrator 17.1.0, SVG Export Plug-In . SVG Version: 6.00 Build 0)  -->
<!DOCTYPE svg PUBLIC "-//W3C//DTD SVG 1.1//EN" "http://www.w3.org/Graphics/SVG/1.1/DTD/svg11.dtd">
<svg version="1.1" id="Layer_1" xmlns="http://www.w3.org/2000/svg" xmlns:xlink="http://www.w3.org/1999/xlink" x="0px" y="0px"
	 width="144.4px" height="68.6px" viewBox="0 0 144.4 68.6" enable-background="new 0 0 144.4 68.6" xml:space="preserve">
<g>
	<path fill="#F06392" d="M12.7,50.9c-1.1,0-2.3-0.1-3.4-0.3c-1.2-0.2-2.3-0.4-3.4-0.8c-1.1-0.3-2.1-0.7-3.2-1.2
		c-1-0.5-1.9-1-2.7-1.6l5.5-7.8c0.2,0.2,0.6,0.4,1.1,0.8c0.5,0.4,1.2,0.8,2,1.2c0.8,0.4,1.7,0.7,2.7,1.1c1,0.3,2.1,0.5,3.2,0.5
		c1,0,1.7-0.2,2-0.5c0.3-0.3,0.4-0.7,0.4-1.2c0-0.4-0.2-0.7-0.5-1c-0.3-0.3-0.8-0.6-1.3-0.8c-0.5-0.2-1.2-0.5-1.9-0.7
		c-0.7-0.2-1.5-0.5-2.2-0.8C9,37,7.5,36,6.5,34.9c-1-1.1-1.5-2.6-1.5-4.3c0-2,0.4-3.9,1.2-5.5c0.8-1.6,1.9-2.9,3.2-4
		c1.3-1.1,2.9-1.9,4.5-2.5c1.7-0.6,3.4-0.9,5.1-0.9c1.1,0,2.2,0.1,3.3,0.3c1.1,0.2,2,0.5,3,0.9c0.9,0.4,1.8,0.7,2.6,1.1
		c0.8,0.4,1.5,0.8,2.1,1.2l-5.4,7.4c0,0-0.3-0.2-0.7-0.5c-0.4-0.3-1-0.7-1.7-1c-0.7-0.4-1.5-0.7-2.4-1c-0.9-0.3-1.8-0.4-2.7-0.4
		c-0.7,0-1.2,0.2-1.7,0.5c-0.5,0.3-0.7,0.8-0.7,1.5c0,0.7,0.4,1.2,1.3,1.6c0.9,0.4,2.1,0.8,3.5,1.3c1.1,0.4,2.1,0.9,3,1.3
		c0.9,0.5,1.7,1,2.3,1.6c0.7,0.6,1.2,1.3,1.5,2.1c0.4,0.8,0.5,1.8,0.5,2.9c0,2.3-0.4,4.3-1.3,5.8c-0.9,1.6-2,2.8-3.4,3.8
		c-1.4,1-2.9,1.7-4.6,2.1C16,50.6,14.4,50.9,12.7,50.9z"/>
	<path fill="#ECEFF0" d="M37.8,18h9.7l3,15.3L60,18h9.7l-6.9,32.5h-8.9l3.6-17.1l-7.2,12h-4.7l-2.1-12l-3.7,17.1h-8.9L37.8,18z"/>
	<path fill="#ECEFF0" d="M82,50.9c-1.1,0-2.3-0.1-3.4-0.3c-1.2-0.2-2.3-0.4-3.4-0.8c-1.1-0.3-2.1-0.7-3.2-1.2c-1-0.5-1.9-1-2.7-1.6
		l5.5-7.8c0.2,0.2,0.6,0.4,1.1,0.8c0.5,0.4,1.2,0.8,2,1.2c0.8,0.4,1.7,0.7,2.7,1.1c1,0.3,2.1,0.5,3.2,0.5c1,0,1.7-0.2,2-0.5
		c0.3-0.3,0.4-0.7,0.4-1.2c0-0.4-0.2-0.7-0.5-1c-0.3-0.3-0.8-0.6-1.3-0.8c-0.5-0.2-1.2-0.5-1.9-0.7c-0.7-0.2-1.5-0.5-2.2-0.8
		c-2-0.8-3.5-1.8-4.5-2.9c-1-1.1-1.5-2.6-1.5-4.3c0-2,0.4-3.9,1.2-5.5c0.8-1.6,1.9-2.9,3.2-4c1.3-1.1,2.9-1.9,4.5-2.5
		c1.7-0.6,3.4-0.9,5.1-0.9c1.1,0,2.2,0.1,3.3,0.3c1.1,0.2,2,0.5,3,0.9c0.9,0.4,1.8,0.7,2.6,1.1c0.8,0.4,1.5,0.8,2.1,1.2L94,28.6
		c0,0-0.3-0.2-0.7-0.5c-0.4-0.3-1-0.7-1.7-1c-0.7-0.4-1.5-0.7-2.4-1c-0.9-0.3-1.8-0.4-2.7-0.4c-0.7,0-1.2,0.2-1.7,0.5
		c-0.5,0.3-0.7,0.8-0.7,1.5c0,0.7,0.4,1.2,1.3,1.6c0.9,0.4,2.1,0.8,3.5,1.3c1.1,0.4,2.1,0.9,3,1.3c0.9,0.5,1.7,1,2.3,1.6
		c0.7,0.6,1.2,1.3,1.5,2.1c0.4,0.8,0.5,1.8,0.5,2.9c0,2.3-0.4,4.3-1.3,5.8c-0.9,1.6-2,2.8-3.4,3.8c-1.4,1-2.9,1.7-4.6,2.1
		C85.3,50.6,83.7,50.9,82,50.9z"/>
	<path fill="#ECEFF0" d="M107.1,18h13.3c1.3,0,2.5,0.3,3.5,0.8c1,0.5,1.9,1.2,2.6,2.1c0.7,0.9,1.3,1.9,1.6,3
		c0.4,1.1,0.6,2.3,0.6,3.5c0,1.6-0.3,3.2-1,4.7c-0.7,1.6-1.6,3-2.8,4.2c-1.2,1.2-2.5,2.2-4.1,3c-1.6,0.8-3.2,1.2-5,1.2h-4.7l-2.1,10
		h-8.9L107.1,18z M116.9,32.7c0.3,0,0.6-0.1,0.9-0.3c0.3-0.2,0.6-0.5,0.9-0.8c0.3-0.4,0.5-0.9,0.7-1.4c0.2-0.6,0.3-1.3,0.3-2.1
		c0-0.9-0.2-1.5-0.5-1.8c-0.3-0.3-0.6-0.5-1-0.5h-3.8l-1.5,6.9H116.9z"/>
</g>
</svg>
