<svg xmlns="http://www.w3.org/2000/svg" viewBox="0 0 400.9 298.3">
  <g fill-rule="evenodd" clip-rule="evenodd">
    <path d="M226.1 17.3c0 .6-.4 1.2-.7 1.7-1.5 3.1-3.1 6.3-4.7 9.5-.2.4-.7 1.3-.7 1.6 0 .6.8.9 1.2 1.3.4.3.7.8 1.1 1.1.4.4.8.7 1.2 1.1.7.7 1.6 1.4 2.4 2.1.8.7 1.5 1.5 2.3 2.2.8.7 1.8 1.3 2.2 2.3-.4.5-1.1.4-1.7.5-.6.1-1 .3-1.8.4-1.3.2-2.7.6-4 .9h-.5c-.2 0-.4.1-.8.2s-.8.3-1.1.3c-1 .2-2 .3-2.9.6-.2.5 0 .9-.2 1.4.3.5.1 1.2.1 2 0 3.6.2 7.9 0 11.5-1.2 0-1.6-1.2-2.6-1.5-1.8-1.7-4-3.1-5.8-4.8-1-.6-2-1.4-3-2.2-.4-.3-.8-.9-1.2-1-.4 0-1.3.8-1.7 1.1-.6.4-1 .9-1.5 1.2-3.1 2.5-6.2 4.7-9.3 7.1-.4-.7-.3-1.5-.2-2.3.2-3.9.3-8.2.2-12.2-.4-.2-1-.3-1.5-.4-1.1-.2-2.3-.2-3.4-.4-1.3-.2-2.6-.3-4.1-.5-1.1-.1-2.1-.4-3.1-.6-.4-.1-.8.1-1.2-.2.2-.6.8-1 1.2-1.4.5-.4.9-.9 1.4-1.2 1.9-1.5 3.7-3.3 5.5-5 .3-.3.8-.8 1.4-1.3.4-.4 1.2-.9 1.2-1.4 0-.4-.5-1.2-.8-1.6-1.5-2.7-3-5.1-4.5-7.7-.3-.5-.6-1.1-.9-1.6-.3-.5-.8-1-.7-1.6.6.1.9.1 1.7.2.5.1.9.3 1.4.3h.6c1.7.3 3.2.7 5.1.9.5.1 1 .3 1.4.3 1 .2 2.1.2 3.1.4.3 0 .5.2.8.2.4-.1.9-1.1 1.1-1.6.9-1.9 1.8-3.7 2.7-5.6.6-1.2 1.1-2.6 1.7-3.9.3-.6.6-1.2.9-1.9.3-.7.5-1.4 1-1.9 0-.1.1-.1.2-.1h.1c2 4.2 4.4 8.2 6.5 12.5.2.4.7 1.5 1.1 1.6.4.1.9-.3 1.5-.3h.6c2.3-.4 4.6-1.1 7.3-1.5 1.6-.3 3-1 4.4-.8zm-21-4.9c0 3.7 0 6.7-.1 9.8-.1 2.2.3 4.5.1 7 0 .4-.3.9-.1 1.2.3-.2.3-.5.4-.9.7-1.3 1.6-2.3 2.4-3.6.4-.7.8-1.6 1.2-2.4.3-.5 1.3-1.8 1.2-2.4 0-.3-.3-.7-.6-1.1-.3-.4-.5-.8-.6-1.1-1.3-2.4-2.6-4.4-3.8-6.6-.1 0-.1-.1-.2-.1.1.1 0 .1.1.2zm10.8 9c-.4.1-.8.3-1.2.3-1.1.2-2.2.2-2.9.6-.7 1.3-1.6 2.5-2.3 3.8-.3.5-.4 1-.6 1.5-.4.7-1 1.2-1.4 1.9-.3.6-.5 1.2-.7 1.8.7-.1 1.1-.6 1.6-.9 1-.7 2-1.4 2.9-2.1.5-.4.9-.8 1.5-1.1.6-.8 1.5-1.3 2.3-1.8 1.8-1.3 3.6-2.5 5.2-4 .5-.2 1.2-.6 1.3-1.1-2 .4-3.8.8-5.7 1.1zm-20.5 5.4c1.3.4 2.1 1.3 3.1 2 1 .5 2.2 1.3 3.1 2 .3.2.8.6 1.1.6 1.2-.1.1-1.9-.2-2.3-1.1-1.8-1.7-3.7-2.8-5.2-3.6-.5-6.6-1.3-10.3-1.6 1.8 1.7 4.1 2.9 6 4.5zm28.7 10.5c-.9-.9-1.7-1.8-2.7-2.6-1.3-1.2-2.7-2.7-4-3.7-.8.3-2 .4-3.1.6-.4.1-.9.3-1.3.3h-.7c-.8.1-1.5.4-2.5.5-.9.1-2.6.3-2.8.7v.3c.7.3 1.5.6 2.4.6 2.3.9 5 1.3 7.3 2.2.9 0 1.4.4 2.2.6.3.1.7.1 1 .2.3.1.5.4.7.5.3.1.6 0 .9.1 1.1.2 2.1.7 3.3.8 0-.6-.5-.8-.7-1.1zm-25.4-4.9c-.9-.2-1.7-.5-2.5-.7-.6-.1-1.3-.1-1.9-.2-.1 0-.3-.2-.4-.2-1.3-.1-1.9 1.8-2.9 2-.1.2-.2.3-.2.5-.2 0-.2.2-.5.2-1.2 1.3-2.6 2.5-3.8 3.7-.4.4-1 .8-1.1 1.4.7-.3 1.5-.4 2.2-.6 1.2-.3 2.3-.9 3.5-1.2.5-.1 1-.2 1.4-.3.4-.1.9-.2 1.4-.4.3-.1.6-.4.9-.5.7-.3 1.4-.3 2.2-.6.6-.2 1.2-.5 1.8-.7.7-.2 1.1-.4 1.8-.4.4-.3 1.2-.4 1.6-.7v-.5c-1.2-.5-2.3-.6-3.5-.8zM215 43.9c0-.6 0-2.2-.1-2.8-.1-.7-.9-1-1.5-1.4-1.4-1.1-2.6-2-4.1-2.8-.9-.8-1.8-1.6-3-2.1-.1 0-.1.2-.2.2-.1.5.2 1 .5 1.4.2.4.4.9.6 1.3.4.8 1 1.6 1.4 2.4.1.2.1.5.2.7.7 1.5 1.5 2.8 2.2 4.3.7 1.4 1.6 2.8 2.2 4.4.4.7.9 1.4 1.2 2 .1.2.1.6.5.7 0-2.5.1-5.6.1-8.3zm-12-9c-.8.4-1.4 1.2-2.2 1.8-.6.6-1.3 1.2-1.9 1.7-1.4 1.1-2.8 2.1-3.9 3.3.3 3 0 6.6.1 9.8.4-.2.6-.7.7-1 .4-.8.9-1.7 1.3-2.5.2-.4.5-.8.7-1.2.2-.5.3-1 .6-1.5.4-1 1.1-1.8 1.5-2.7l.6-1.5c.6-1.3 1.6-2.5 1.9-3.9.3-.1.2-.5.5-.7.1-.5.7-1.3.1-1.6z"/>
    <path d="M137.8 39.6c.7-.5 1-1.3 1.6-2 .5-.6 1.1-1.3 1.6-1.9.9-1.1 2.3-2.9 3.9-3.3.4-.1 1.3.6 1.4 1 .1.2.1.4.1.6.3 1.7.7 4.4.3 6.4-.3 1.8-2 3.4-2.3 5.2.4.5 1.1.5 1.6.7.5.2 1 .6 1.5.9.9.6 2 1 2.9 1.8.8.7 1.6 1.5 2.3 2.3.7.8 1.2 1.9 2 2.6 1.2 1 2.7 1.8 3.9 2.8.6.5 1.2 1.1 1.6 1.7.5.6.8 1.3 1.2 2.1.4 3.3-1.5 4.5-3.3 5.7-1.9.3-3.9-.3-5.9 0-.7.1-1.3.1-1.9.1-2.2 0-4.4.1-6.5-.2-.8-.1-1.8-.3-2.1.3-.1.3-.2 1.2-.2 1.6-.2 2.6.1 5.5.5 7.7.2 1.2.4 2.3.6 3.4l.3.9c.2 1 .1 2.1.6 2.8-.1.7.2 1.3.2 2.1 0 .2-.1.4-.1.7 0 .2.1.4.2.7 0 .1-.1.4-.1.6 0 .2-.1 1.5.1 1.9.1.3.5.3.7.6.9-.3 1.5-.8 2.6-.9.5-3 .5-6.5 1.1-9.4.3-.2.5.1.9.1 2-.2 4.1-.1 6.2-.1h3.1c1 0 2.1.1 3-.1.4-.1.8-.4 1.2-.7.4-.3.8-.5 1.2-.7.8-.4 1.8-.9 2.8-1.1 1.7-.3 4-.1 5.4-.9 1.1-.6 2.3-1.3 3.9-1.4.6 0 1.4.1 1.9.2 2.1.4 3 2.1 3.2 4.5 5.4.2 10.8 0 16 0 1.7 0 3.5.1 5.2 0 5.1-.3 10.5.1 15.3-.1 3.4-.1 7.1-.1 10.4-.1 9.2 0 17-.1 25.4-.1 2.5 0 5-.1 7.5-.1.8 0 1.7-.2 2.3.4-.3.8.1 1.5.2 2.3.2 1.1.2 2.3.3 3.6.1.8.1 1.7.2 2.5 0 .8.3 1.5.4 2.2.1.7-.1 1.4.2 1.9.6-3.8 1.3-7.4 2.3-10.8.3-1.1.6-2.2 1.2-3.1.7-2.3 1.7-4.3 2.7-6.3.2-.5.4-1.1.7-1.5.3-.5.6-.8.9-1.3.6-.9 1-2 1.5-2.9l1.8-2.7c.5-.9 1-1.9 1.5-2.9.5-.9 1-2 1.3-3.2.7-2.5.5-5.1-.4-7.2-.2-.5-.5-1-.8-1.5-.4-.6-1.4-1.7-2.3-2-.3-.1-.7-.1-1.1-.2-.5-.1-.9-.1-1.6-.2-.1 0-.3-.1-.5-.2h-.8c-.5-.1-1.1-.2-1.6-.3-1.1-.2-2.1-.2-3.3-.4-.7-.1-1.5.1-1.6-.5 0-.2.1-.6.2-.8.7-1.2 3.2-2.1 4.6-2.7.9-.4 1.7-.8 2.5-1.2 1-.5 2.4-.8 3-1.7.2-.3.3-.6.5-.9.2-.3.4-.5.6-.7.6-.8 1.3-1.6 2.3-2 .4-.2.8-.1 1.3-.2.2 0 .5-.2.7-.2 1.4-.2 2.9.1 4 .4.6.2 1.2.3 1.8.5 1.1.4 2.3.7 3.1 1.5 1 .2 1.8 1.2 2.4 2 .5 1 1 2.2 1.1 3.4.3 2.5-.1 4.8-.3 7.1l-.3 2.4c-.4 1.8-.6 3.7-1.1 5.4-.1.5-.4 1-.5 1.5-.2.5-.3 1-.4 1.5-.6 2.1-1.1 4.2-1.6 6.2-.6 1.9-1.2 4-1.6 6.1-.7 1.8-1.1 4-1.4 6.3-.1.5-.3 1.1-.3 1.6-.1.8 0 1.8 0 2.7 0 3.1.4 5.5 1.1 7.9 1.2 2 2.4 4 4.6 5 .7-.1 1 .4 1.5.1.1.3.5.2.6.5 1.4.1 3.4.4 5 0 .3-.1.5-.3.8-.4.3-.1.6 0 .8-.3.2.1.5 0 .7.1 1.4-.6 3.1-1 4.5-1.6 1.6-.4 3.5-.6 4.7-1.4 1 0 1.8-.5 2.6-.7.2-.1.4 0 .6-.1 1-.3 2.5-.8 3.8-1 1.2-.2 2.4-.3 3.7-.5.6-.1 1.1-.3 1.7-.4 1.7-.3 3.4-.6 5.3-.7 1.1 0 2.4-.1 3.6-.2 1.3-.1 2.7-.3 3.9-.2.4.1.7.3 1 .3.7.1 1.4 0 2.1.1 1.6.2 3.2.3 4.7.8.8.2 1.6.6 2.4.9 1.7.7 3.3 1.2 4.7 1.9 2 1.1 3.9 2.1 5.8 3.3.1.1.2.1.3.1.3.2.8.6 1.2.9.6.4 1.2.9 1.9 1.4l.9.6c.6.4 1.1 1 1.9 1.1.9.8 1.5 1.5 2.6 2.2.5.4 1 .7 1.5 1.1 1 .8 1.7 1.9 2.6 2.7.9.9 1.8 1.8 2.6 2.8.7 1 1.8 1.8 2.3 3 .3.2.5.5.7.7.2.1-.2.3.1.5.2.3.5.4.7.7.5.5.9 1.3 1.5 1.9.6.6.9 1.3 1.4 2 .4.3 1 1 1.1 1.7.2 0 .3.2.4.3.7 1 1.4 2.3 2.2 3.4 1.9 2.8 3.9 5.7 5 9.4.2.6.3 1.2.5 1.9.3 1 .3 2.1.6 3.2-.3.4-.1.9 0 1.4.1.6 0 1.2.1 1.9.2 1.3.1 2.5 0 3.5 0 .6.1 1.2.1 1.7 0 .3-.2.6-.2.9 0 1 .1 2-.2 2.8-1.4-.2-2.5-.5-3.5-1-.7-.4-1.1-1.2-2.1-1.2-.2-.4-.4-1.1-.8-1.1-.5 0 0 .5-.6.5.4.6.8 1.2.9 2.1-1-.2-2.3-.5-3.5-.7-1.4-.7-2.7-1.6-4-2.5-.2-.3-.3-.7-.7-.8.2.8 1.1 1.4 1.4 2.4-.7 0-1.5-.3-2-.6-.8.1-1.5-.5-2.2-.7-.5-.2-.9-.3-1.4-.5-.6.1-1-.1-1.4-.3-1.6-.2-3-.6-4.3-1.1-.6-.2-1.1-.7-1.7-1-.6-.3-1.1-.6-1.7-1-.5.4.9 1 .9 1.3 0 .6-1 .5-1.5.5-1.2.1-2.5.5-3.8.7-.6.1-1.3.1-1.9.2-.6.1-1.1.4-1.6.5-1.1.2-2.1.2-3.1.3-.9.1-1.7.3-2.5.4-.8.1-1.6 0-2.4.2.5 2.9 1.3 5.3 2.4 7.5.6 1.1 1.3 2 1.9 3.1.6 1 1.2 2.1 1.8 3.2.1.7.3 1.3.2 2 0 .7-.2 1.3-.2 2-.2 1.5-.4 3.1-.5 4.7-.2 3-.4 6-.7 9-.2 1.8-.2 3.7-.4 5.6-.2 1.8-.2 3.6-.3 5.4-.3 3.2-.4 6.4-.2 9.6.1 1.1 0 2 .4 2.9 0 1.3.5 2.6.3 4.2-.1 1.3-.5 2.5-.9 3.5 10.4.4 22.3 0 31.6.1 3.2-.4 7.1.2 10.5-.1 1.5-.1 2.8-1 3.6-1.9.9-1 1.4-2.3 1.7-3.7.8.3 1.2.8 1 2.1-.1 1-.7 1.9-1.1 2.8-.1.2-.2.5-.3.7-1.2 2.3-3 4-6 4.6-5.5.2-11 .2-16.4.2-5.6 0-11.1.1-16.4.1-.4 0-.8.1-1.2.1-1.2-.1-3.4 0-5.3.1-2.3.1-4.6 0-6.9.1-3.4.1-7.3 0-11 0-1.2 0-2.6-.2-3.7 0-.2 0-.4.3-.7.3-.2 0-.5-.1-.8 0-.5.1-.8.5-1.3.7-1.6.1-2.5.8-4.1.9-.4.1-.7.6-1.2.5-.5-.2-.3-.6-.2-1 .1-.4.2-.9.3-1.2-17.2-.2-36.8-.2-53.9-.2-7.5 0-15.6-.1-22.9 0-6.7.1-13.6.1-20.4 0-13.8-.2-27.4 0-40.6 0-6.5 0-12.8-.3-18.7-.1-1.2 0-2.4-.1-3.6-.1-1.2 0-2.5.1-3.7.1-1.5.1-2.9-.1-4.1-.1-4.4.1-9.5 0-14.7 0-3.3 0-6.7.1-10.1.1-9.2 0-19.4.2-28.5.1-2 0-4 0-5.8.1-.8 0-1.6-.1-2.5-.1-6.1.1-12.3.1-18.1.1-9.4 0-20.5-.2-30.1.2-.8 0-1.7-.1-2.6-.1-11.2 0-22.5 0-33.8-.1-.1-.1-.1-.3-.3-.3-.3-2 .3-3.6 1.1-4.8.7-1 1.9-1.6 2.8-2.4.7-.3 1.5-.2 2.3-.3.6-.1 1.2-.3 1.8-.3.7 0 1.4 0 2.1-.1 1.3-.1 2.6-.2 4-.3h1.2c.2 0 .4-.1.7-.2.4-.1.8 0 1.2 0 1.7-.2 3.5-.3 5.3-.5.7-.1 1.4-.3 2.1-.4.9-.1 1.8-.1 2.7-.2.8-.1 1.6-.4 2.6-.5.7-.1 1.5-.2 2.2-.3.7-.1 1.5-.2 2.2-.3 2.8-.4 5.4-1.1 8-1.8 3.6-1 7.2-2.4 9.8-4.4 1-.8 1.9-1.8 2.8-2.8.6-.7 1.3-1.5 1.8-2.4.4-2 1.4-3.8 1.8-5.9.3-1.9.7-3.7 1-5.7.1-.8.2-2 .3-3.1.3-2.4.4-4.9.5-7.4.1-2.5-.1-5 0-7.5.1-3.8.1-7.7-.1-11.5-.1-1.2 0-2.4.1-3.6.1-1.3 0-2.6.1-3.7 0-.6.2-1.1.2-1.7 0-.6-.1-1.2 0-1.9.1-1 .4-2.1.5-3.1v-1.1c.1-.5.3-1 .5-1.5.4-1.6.6-3.4 1.1-4.9.3-1 .7-2 1.1-2.9.4-1 .7-1.9 1.2-2.8.4-.9 1-1.7 1.5-2.5 2.1-3.2 4.3-6.3 7-8.9 2-2 4.1-3.7 6.5-5.4.8-.5 1.5-1.2 2.4-1.6.9-.4 1.6-1 2.4-1.5 1.6-1.1 3.1-2.2 4.8-3.2 6.3-4.3 12.3-8.8 17.2-14.6 2.8-3.5 4.7-8.5 8.5-11.3.4-.3.8-.5 1.2-.8 1.1-.8 2.2-1.7 3.2-2.8.6-.7 1.3-1.4 1.6-2.3.6-1.4.6-3.4.8-5.3.2-2.4.6-5.3 1.2-7.7.3-1 .4-2.1.8-2.8.2-.4.6-.8 1-1.2.2-.4.8-1 .9-1.3 0-.4-.5-1.2-.8-1.6-.3-.6-.6-1.1-.9-1.5-.6-1.3-.8-2.4-1.3-3.5-.4-1.6-.1-3.7 0-6.1 0-1 0-1.9.2-2.7.2-.8.3-1.6.6-2.2.1-.3.6-.8 1-.9 1.1-.1 1.3.9 2.2 1.1 1.1 1.2 2.3 2.2 3.3 3.5.4.8 1.3 2.2 2.6 3.1zm119.5 42.2c-3.2.2-6.6 0-9.6.1-.5 0-1.1-.2-1.7-.1-.4 0-.8.1-1.3.1-5.3 0-11.1.1-16.9.1-2.5 0-5.1-.1-7.1 0-1.7.1-3 .1-4.6 0-1.5-.1-3.2.1-4.6.1-.3 0-.5-.1-.8-.1-.8 0-1.6.2-2.4.2-.4 0-.8-.1-1.2-.1-.4 0-.8.1-1.1.1-.3 0-.5-.2-.8-.2-.3 0-.6.2-.9.2-2.7.1-5.5-.1-8.3-.1-1.4 0-3.1.2-4.2.2-3.5 0-7.1-.2-10.7.1-.4.3-.5.8-.8 1.2-.2.3-.6.5-.9.7-.4.4-.5 1.1-1.2 1.2-.2-.5.2-1.6-.2-2-.6.1-1 .7-1.4 1.1-.4.4-.9 1-1.6 1.1.1-1.7-.9-2.4-1.5-3.4-1-.1-2.1.1-3.1.1-2.3 0-4.8-.3-6.9-.1-.7.1-1.6.2-2.3.2-.4 0-.6-.2-.9-.2-.3 0-.6.1-.9.2-2.7.3-5.9-.2-8.4.1-.2 1-.5 2.1-.6 3v1c-.2 1.7-.5 3.4-.7 5.2-.1 1.1-.3 1.9-.4 2.8-.1 1.1 0 2.2-.2 3.3 0 .2-.1.5-.2.7-.1.5.1 1.1 0 1.6-.1 1-.4 1.9-.5 2.9v1.2c0 .3-.2.7-.2 1-.1.8-.1 1.6-.2 2.3-.1.6-.3 1.2-.3 1.9-.1.6.1 1.2 0 1.8-.1.5-.3 1-.4 1.5-.2 1.8-.3 3.3-.5 4.9-.1 1.1 0 2.3-.2 3.5-.1.9-.3 1.9-.4 2.8v1.1c0 .2-.1.4-.2.7-.2 1.4-.2 3.4-.3 4.9-.1 1-.4 2.2-.3 2.9 0 .3.2.6.3.9.4.8.9 1.9.9 2.8 0 .3-.1.6-.2.9-.1 1.1-.2 1.6-.5 2.4-.2.5-.5 1.1-.6 1.6-.2 1-.1 2.2-.2 3.3-.1 1.2 0 2.7 0 3.9 0 .2-.1.3-.1.5s.2.4.2.7c0 .2-.1.5-.1.7 0 .9.2 1.8.3 2.4.2 1.5.2 3 .3 4.5.2 1.7.6 3.2.9 4.7.2 1.1.5 2.2.9 3.3.7 2.1 1.3 4.2 2.1 6.1.8 1.9 1.6 3.9 2.6 5.6 1 1.8 2.1 3.4 3.2 5 1.4 1.8 2.8 3.7 4.3 5.3.6.7 1.2 1.2 1.8 1.8l1.1 1.1c3.3 2.7 7.1 5.3 11.1 7.3 1.4.7 2.8 1.2 4.1 2.1 3.3 1.3 6.6 2.5 10.1 3.6.9 0 1.5.3 2.1.6 2.4.4 4.8 1.1 7.4 1.4 1.5.2 3 .1 4.6.2.3 0 .6.1.9.2 1.2.1 2.7-.2 3.5.2 1.5-.2 3.2-.2 4.4-.3.4 0 .9.1 1.4 0 .8-.1 1.6-.4 2.4-.5 1.3-.2 2.2-.3 3.3-.6.9-.2 1.8-.4 2.7-.5 1-.4 2.2-.7 3.2-1 .8-.3 1.5-.4 2.2-.7.6-.2 1.2-.3 1.6-.5.5-.2 1-.5 1.5-.7 2.4-.9 4.7-2.2 6.7-3.3.3-.2.7-.3 1-.5.5-.2.8-.7 1.3-1 1.4-.9 2.9-1.7 4-2.8 1.4-.8 2.7-1.9 3.9-2.9.4-.4.9-.6 1.3-1 1.2-1.1 2.4-2.4 3.5-3.5.4-.4.7-.9 1.1-1.3.7-.8 1.6-1.6 2.2-2.5 1.3-1.9 2.4-3.8 3.5-5.8.5-1 1.2-2.1 1.6-3.1.4-1.1.9-2.2 1.4-3.3.5-1.1.7-2.3 1.3-3.4 0-1.3.9-2.4 1.1-3.7v-.7c0-.3.2-.6.2-1 .1-.3.1-.7.2-1 .1-.6.4-1.2.5-1.9.1-.7.1-1.4.2-2.1.1-.7.3-1.4.3-2.1.1-.5-.1-1 0-1.6 0-.2.1-.4.2-.6.1-1.1 0-2.4.1-3.6 0-.4.2-.8.2-1.2 0-.4-.1-.7-.2-1.1-.2-2.3.1-5-.2-6.6-.2-1.2.1-2.4-.1-3.5 0-.2-.1-.4-.2-.6-.1-1.3 0-2.6-.2-3.9 0-.3-.1-.5-.2-.7 0-.6.1-1.1 0-1.7-.1-1.6-.3-3.3-.5-4.9-.1-.6 0-1.2-.1-1.8 0-.2-.1-.4-.2-.6v-1.2c0-.3-.1-.5-.2-.7v-1.2c-.1-1.2-.4-2.8-.5-3.9-.1-.9.1-1.9-.1-2.7 0-.2-.1-.4-.2-.7-.1-.5.1-1 0-1.5-.1-1.2-.4-2.8-.5-4-.1-1.2 0-2.4-.2-3.6 0-.3-.2-.6-.2-1-.2-1.4 0-2.8-.2-4.2 0-.2-.1-.4-.2-.6v-1c-.1-.7-.3-1.4-.3-2.2v-1c-.1-.9-.3-1.8-.4-2.8v-1.1c-.2-1.7-.5-3.3-.7-5-.1-.6 0-1.3-.2-1.9-.5-.4-1.2-.6-1.8-.5zm-111.7 19.5c-.5.3-1 .7-1.5 1.1-.6.4-1.1 1-1.9 1.1-.1.1-.1.3-.2.3h-.4c-.8 2.1-1.8 4-2.8 5.9-1 1.2-1.6 2.7-2.7 3.9 0 .2-.2.2-.1.5-.5.2-.6.8-.9 1.2-.3.1-.3.5-.5.8-.2.4-.5.4-.5.7 0 .5.7 1.2 1 1.6 1 1.7 2.4 3.4 3.3 4.8.5.9 1.2 1.6 1.7 2.6 1 1.1 1.7 2.7 2.7 3.9.8-5.4 1.2-11.1 1.9-16.7 0-.4-.1-.8 0-1.2 0-.2.1-.3.2-.5.1-.4-.1-.9 0-1.3.2-1.9.5-3.9.7-5.8V103c.1-.6.5-1.2 0-1.7zm120.5 4.7c.1.5.3 1.1.3 1.7 0 .4 0 .8.1 1.2 0 .2.1.3.2.5v1.1c0 .2.1.5.2.7.2 1.4 0 2.8.2 4.3 0 .2.1.3.2.5.3 1.5.2 3 .4 4.5.2 1.6.4 3.4.5 4.8.1 1.3 0 2.6.2 3.9 0 .3.1.5.2.8.2 2.1.2 4.2.4 6.2 0 .5-.1 1 0 1.5 0 .2.1.4.2.7.2 1.4-.1 2.9 0 4.3 0 .2.1.4.2.6.2 1.7-.1 3.9-.1 5.6 0 .8 0 1.5.1 2.1 0 .3-.1.8-.2 1.1-.1 1.6 0 2.8-.2 4.1-.1 1.1-.4 2.5-.6 3.3-.1.7-.2 1.5-.3 1.9-.1.6-.3 1.1-.3 1.5v.5c-.2 1-.7 2-.9 2.8-.2.8-.4 1.6-.6 2.3-.1.4-.4.9-.3 1.4-.9 2.4-1.9 4.6-2.8 6.8-.5 1.1-1.1 2.1-1.7 3.1-.5.9-1.1 1.8-1.6 2.6-.4.5-.7 1.1-.8 1.6-1 .9-1.8 2.1-2.6 3.2s-1.8 2.1-2.7 3.1c-1.8 2.1-4.1 3.6-6 5.6-3.8 2.4-7.5 5.1-11.7 7.1-1 .5-2 1.1-3.1 1.6-3.3 1.4-6.6 2.7-10.4 3.7h-.4c-.4.3-1.1.3-1.5.6-.4 0-.8.1-1.1.3 10 .2 21.3.1 31.1.1 9.5 0 19.3 0 27.9-.1.8-.8 1.8-1.6 2.7-2.4 1.4-1.3 2.7-2.4 4.9-2.9 1.3-.4 2.5-.7 4.2-.7 1.4 0 3.1 0 4.3.2.2 0 .5.1.7.2.5.1 1-.1 1.6 0 .7.1 1.4.2 2 .2.6-.1 1.1-.4 1.6-.4.3-.2.5-.5.9-.6 0-.3.2-.4.2-.7.5-.6.9-1.2 1.3-1.9s.8-1.5 1.2-2c.3-.4.8-.8 1.1-1.2.1-.2.3-.5.4-.8.3-.4.5-.8.7-1.2.8-1.5 1.6-3 2.3-4.6.8-1.7 1.5-3.5 2.3-5.2.3-.6.5-1.2.7-1.8.9-2.4 2-4.7 2.9-7 .9-2.4 2.1-4.7 2.9-7 0-.5.2-1 .3-1.4.3-1.2.1-2.6.2-4.1.1-1.5.5-3.5.2-5.2-.1-.5-.4-1-.6-1.5-.4-.9-.8-1.8-1-2.7-.2-.5-.2-1.1-.4-1.5-.1-.4-.6-.7-.9-1.1-1.3-1.6-2.2-3.1-3.1-5.2-.3-.7-.9-1.9-1.2-2-.6-.2-1.3.4-2 .6-1.7.5-3.9.4-5.6.2-2.6-.8-4.9-2-6.9-3.3-1.2-.8-2.4-1.7-3.9-2.3-.1-.3-.5-.4-.6-.7-1.4-.7-2.5-1.7-3.6-2.7-.6-.3-1.1-.8-1.6-1.2-1.6-1.2-3.1-2.6-4.3-4.2-.6-.4-1.2-.9-1.6-1.6-1.2-.9-2-2.1-2.9-3.2-1.2-1.4-2.5-2.9-3.5-4.5-.5-1.3-1.2-2.4-1.9-3.5-.6-1-1.1-2-1.5-3-.9-2.1-2-4.1-2.8-6.3-.3 0-.2-.3-.5-.4 0-.7-.5-1.1-.8-1.5 0-.6-.2-1.1-.5-1.4-.5-.3-.5 0-.4.3zM126 126c-1.1.7-1.9 1.8-2.7 2.8-2.5 3.1-5.2 6-7.4 9.4-.4.8-.9 1.5-1.4 2.3-.3.5-1.2 1.8-1.1 2.6.1.5.6 1.3.8 1.6.2.6.5 1.2.6 1.8.6 3.5-.2 7.3-.7 10.3l-.3 2.4c-.1.3-.3.7-.3 1-.2 1-.2 2.1-.4 3.1-.1 1-.6 2-.7 3.1-.1.6-.2.8-.2 1.2v.6c-.1.4-.3.7-.3 1.1-.1.5-.1 1-.2 1.4-.1.4-.3.8-.3 1.1-.1.5-.1 1.1-.2 1.6-.2 1-.6 2-.7 3v.8c0 .2-.2.4-.2.6v.7c-.1 1-.5 2.3-.7 3.3-.2 1.3-.2 2.8-.4 4.2-.1 1.2-.4 2.7-.5 3.9-.1.7 0 1.4 0 2.2-.2 5-.3 10.6 3.4 12 1.1.2 2.3.5 3.5.6 1.4.1 3 .2 4.3 0 .2 0 .4-.1.6-.2 1.2-.1 2.1 0 3.3-.2.2 0 .4-.1.7-.2.5-.1 1 .1 1.5 0 1.2-.1 2.4-.3 3.7-.4 1.6-.1 3.2 0 4.9-.2.3 0 .5-.1.7-.2 1.2-.1 2.5 0 3.7-.1 1.4-.1 2.8-.1 3.9.1.3 0 .6.2.9.3.8.3 1.2.4 1.8.7.3.2.6.3.9.5l1.2.9c.2.1.4.1.5.2.5.4.9 1 1.4 1.4.5.4 1.1.8 1.5 1.4 0 .3.2.6.3.7 13.9.1 28.5.2 42.4-.1-.8-.3-1.6-.6-2.6-.6-2.7-1.2-6-1.7-8.5-3.1-1.4-.2-2.2-.8-3.5-1.1-.7-.5-1.4-1-2.3-1.2-.5-.6-1.3-.8-2-1.1-.7-.3-1.2-.8-1.9-1.2-1-.6-2.1-1-3-1.6-.3-.2-.5-.5-.8-.8-.9-.7-2-1.2-2.9-1.9-.7-.9-1.5-1.5-2.3-2.2l-2.7-2.4c-.5-.4-.9-.9-1.3-1.3-1.8-1.6-3.5-3.4-5-5.3-1.6-2.1-2.6-4.4-4.3-6.6-.5-1.1-1.1-2.1-1.6-3.2s-.9-2.3-1.4-3.5c-1.1-2.3-1.6-4.8-2.6-7.3-.3-1.6-1-3.2-1.2-4.9-.1-.5-.1-.8-.2-1.1-.1-.5-.1-1.1-.2-1.7-.1-.5-.3-1-.4-1.5-.1-1 0-2.1-.2-3.2 0-.2-.1-.4-.2-.6-.1-.5.1-.9 0-1.4 0-.2-.1-.4-.2-.7-.2-1.6.2-3.3-.1-4.9-.9.4-1.9.1-2.9.2s-1.8.2-2.6 0c-.3-.1-.5-.3-.9-.3-.6-.6-1.1-1.2-1.5-2-.1-1-.6-2.2-.4-3.1.7.1 1.4 1.1 2.4.9 0-.8-.8-1.1-1.1-1.7-.2-.5-.3-1.1-.3-1.8.8.6 1.4.3 2.4.1.3-.5 1.2-1.1 1.1-1.9 0-.3-.8-1.2-1.1-1.5-.4-.5-.9-1-1.2-1.4-1.8-2.1-3.7-3.7-5.6-5.6-1-1-2-2.1-3.1-2.8-.6.7-1.2 1.5-1.6 2zm210.8 77.1c.3-.7.5-1.2.8-1.8.4-.9.7-1.9.9-2.9.1-.5.4-1 .5-1.5v-.6c0-.2.1-.3.2-.5.1-1 0-2.1.2-3.2 0-.3.2-.6.2-1 .1-.5-.1-1 0-1.6 0-.3.1-.5.2-.8v-1.3c.2-2.2.2-5.3.2-8.1 0-2 .1-4-.1-5.5-.2-1.8-.6-3-.9-4.6-.2-1-.4-2.1-.5-3.1-.1-.9-.1-1.6-.2-2.5 0-.2-.1-.3-.2-.5v-.7c0-.1-.1-.3-.2-.4-.1-.5-.1-.6-.2-1-.1-.2-.2-.4-.2-.5-.4-1-1.1-1.9-1.6-2.7-.8-1.2-1.5-2.4-2.1-3.6-1.7-2-3.4-3.9-5.4-5.4h-.1c0 .1-.1.1-.1.2-.3 1.9-.2 3.1-.1 5.3.1 1.1 0 2.2.1 3.2 0 .3.1.5.2.7 0 .5-.1.9 0 1.4.1.7.3 1.2.3 1.8.2 1.4-.1 2.9-.7 3.7-.1.2-.3.3-.5.5-.1.2-.2.5-.3.7-1.1 1.8-2.4 3.7-3.4 5.5-.7 1.3-1.3 2.6-2 3.9-2 3.7-3.6 7.6-5.2 11.7-.7 1.8-1.4 3.6-1.9 5.3-.6 1.8-1.3 3.6-1.8 5.4-.6 3.1-1.6 5.7-2.2 8.7-.3.5-.6 1-.8 1.6.7.1 1.7 0 2.5.1.1-.1.3-.2.4-.2.7-1.2 1.9-2 3.1-2.8.8-.5 1.9-.7 2.8-1.1.8 0 1.1-.4 1.9-.3.8-.4 1.8-.5 2.9-.6.2-.3.9 0 1.2-.3.3.5.8.2 1.3.2.6 0 1.3 0 1.9.1 2.8.3 5.8.5 8.3.9.1-.9.7-.9.6-1.8zM96.4 181c.2-1.1-.2-3.8-.2-5 0-.8 0-2-.5-2-.7.1-1.3.5-1.9.7l-1.8.6c-1.8.6-3.5 1.6-4.8 2.6-.9.8-1.7 2-2.4 3.1-.7 1.3-1.5 2.7-2 4.2-.1.2-.1.3-.2.5-1.4 3.6-2.8 7.4-4.1 11.1-.8 2-1.7 3.9-2.6 5.6-.7 1.3-1.5 2.2-2.4 3.1-.2.2-.5.3-.8.6-.2.2-.4.5-.7.7-1.5 1.2-3.4 1.9-5.1 2.8 10.7.1 18.5.2 28 .1.1-.8-.4-1.4-.5-2.2v-1c-.1-1.3-.2-2.8 0-4.2.1-.8.4-1.5.6-2.3.2-.9.2-1.6.3-2.4.1-.4.3-.8.3-1.2.2-1.1.4-1.9.6-2.8.6-3.7.5-7.5.3-11.5-.2-.3-.1-.6-.3-.9.2 0 .1 0 .2-.2z"/>
    <path d="M227 60.7c.4.5 1.2 1 1.4 1.7.5 1.7-.4 3.5-1.3 4.2-2 1-5.5.7-8.6.7-5.5 0-10.5.1-15.8.1-5 .1-10.3.2-15.9.1-2.7 0-5-.1-6-1.9-.3-.6-.6-1.7-.4-2.7.3-1.3 1.8-2.4 3.3-2.6.8-.1 1.7 0 2.6 0 2.2-.1 4.7-.1 7.1-.1h10c6.4 0 12.1-.1 17.8 0 1.9.1 3.9 0 5.8.5zm-30.7 3.2c-.3-.5-.7-1.3-1.4-1.4-.8-.2-2.1 0-3.3 0-1.4 0-2.9 0-3.6.1v.1c.2.5.6.8 1.1 1.3.4.4.8 1 1.1 1.2.4.2 1 .2 1.4.2h5.8c-.2-.8-.7-1.1-1.1-1.5zm17.1-.2c-.3-.3-.9-1-1.3-1.1-.3-.1-.7 0-1.1 0-1.7-.1-3.4-.1-5.1 0-.3 0-.6-.1-.9.1.1.5.6 1 1 1.4.4.4.8.9 1.3 1.2h4.1c1 0 2.1.1 3.1-.2-.2-.6-.6-.9-1.1-1.4zm12.3-.7c-.3-.2-1.4-.6-1.6-.3-.8.1-1.8-.1-2.4.1.2.4.6.8 1 1.2.7.7 1.1 1.4 2.4 1.3.4-.3.7-.8 1-1.2-.3-.4-.1-.8-.4-1.1zM223.4 82.7c0 .5 0 1 .2 1.5 0 .1.1.2.2.3.1.5.1.8.3 1.2.2.4.5 1 .7 1.5.2.3.6.7.6.9 0 .8-1.2.7-1.4-.1-.8.1-.6 1.3-.9 1.9-.8 0-.5-1.6-1.2-1.9-.4.1-.3.6-.7.7-.4-.1-.6-.2-.8-.5.7-1.6 1.5-3.2 1.5-5.5.2-.3 1.2-.2 1.5 0zM255.4 88.2c-.6.4-.6 1.4-.9 2.1-.9-.2-.4-2-1.2-1.9-.3 0-.4.6-.8.6-.3 0-.3-.3-.6-.5.5-1.3 1.4-2.9 1.6-4.6 0-.3-.1-.7 0-1 .2-.4.8-.3 1.2-.2.3.8.4 2 .8 3 .2.5.5 1 .7 1.5.1.2.5.7.5 1-.1.7-1.1.7-1.3 0zM187.5 83c.2.9.1 2.1.6 2.9 0 .2-.2.2-.1.4s.3.3.5.3c0 .8 1.2 1.4 1.1 2.1 0 .3-.4.7-.6.7-.5 0-.7-.9-1.1-1-.6.2-.4 1.2-.7 1.6-.7-.2-.4-1.2-.9-1.6-.6.3-1.1 1.5-1.7.4.5-1 1-2 1.4-3.1 0-.4 0-.8.2-1 0-.7-.1-1.5.3-1.8.3 0 .7 0 1 .1zM155.3 83.2c.4.6.2 1.1.4 1.9.1.4.2.9.3 1.4.2.6 1.2 1.7 1.1 2 0 .8-1 .6-1.4.1-.6.5-.6 1.6-.8 2.4h-.5c-.3-.8-.3-1.9-.8-2.5-.6 0-.6.6-1.1.7-1-.9.2-1.4.7-2.4.2-.4.3-.8.4-1.4 0-.2.3-.7.3-1 .3-.9.2-1.4 1.4-1.2zM250.2 90.4c.4 1.8.7 3.7 1 5.6.2 1.9.5 3.9.7 5.8.1.9.3 1.8.4 2.7.2 1.8.5 3.5.7 5.3.3 3.6.7 7.1 1.1 10.7 0 .3.2.6.2 1 .2 1.5.2 3 .3 4.5.2 1.8.3 3.6.5 5.3 0 .3.2.7.2 1 .2 1.4 0 2.8.2 4.2.3 3.5.2 7 .5 10.4.1 1.4-.1 2.9-.1 4.4-.1 2.8-.1 5.3-.4 7.9-1.3 5.1-2.9 10-5.2 14.3-.7 1.4-1.7 2.7-2.4 4-1.4 1.4-2.5 3-3.9 4.4-1.4 1.4-2.8 2.7-4.4 3.9-1.5 1.2-3.1 2.4-4.8 3.5-.8.5-1.6 1.2-2.6 1.6-.5.2-.9.5-1.4.7-.6.4-1 .8-1.8 1-1.2.4-2.3.9-3.5 1.4-.7.2-1.4.5-2.1.7-.7.2-1.3.7-1.9.9-.6.2-1.3.2-1.9.4-.3.1-.5.3-.8.4-.2.1-.5 0-.8.1-.2 0-.4.2-.7.2-.5.1-1.1.1-1.6.2-2 .5-4.1.7-6.3 1-1.1.1-2.2.1-3.2.2-.5.1-.8.2-1.3.2-2.4 0-4.8 0-6.8-.3-.4-.1-.8-.2-1.2-.2-.5-.1-.9 0-1.4 0-.8-.1-1.7-.3-2.5-.6-.8-.2-1.6-.5-2.2-.9-.8 0-1.5-.3-2.2-.5-1-.3-2-.7-2.9-1.1-.9-.4-1.9-.7-2.8-1.1-.6-.3-1.1-.7-1.7-1-.6-.3-1.3-.5-1.9-.8-.9-.4-1.6-1-2.6-1.4-1.3-.6-2.5-1.3-3.5-2.2-.6-.6-1.4-1-2.1-1.5-.9-.7-1.8-1.4-2.7-2.2-1.7-1.5-3.5-3.1-4.9-4.8-1.4-1.8-2.7-3.7-4-5.7-1.3-2-2.2-4.1-3.3-6.3-.4-1.6-.8-3.2-1.4-4.6 0-.4-.1-.9-.2-1.3s-.1-.9-.2-1.3c-.1-.5-.3-1-.5-1.5-.2-1-.3-2.1-.5-3.3-.1-.5-.3-1-.3-1.5-.1-.6.1-1.4 0-2 0-.3-.1-.6-.2-.9-.1-.9 0-1.8-.1-2.8-.1-1.7-.1-3.2.2-4.8.1-.8 0-1.6.1-2.4.1-1.3.4-2.6.4-4 0-1.7.2-3.6.3-5.1v-1.3c.1-1 .2-2.3.3-3.5 0-.4.2-.7.2-1v-1.3c0-.2.1-.5.2-.7.2-1.4 0-2.8.2-4.2 0-.3.1-.5.2-.8v-1.3c.4-3.7.8-7.5 1.1-11.1.1-1.1 0-2.2.2-3.3 0-.3.2-.6.2-.9l.3-3.9c.1-1 .1-2 .2-2.9.1-.9.2-1.8.2-2.7 0-.8-.1-1.6.5-2.3 8.1-.1 16.1-.1 24.1-.1 3.8 0 7.7-.2 11.6-.2 4.7 0 9.8-.1 14.1-.1 4.9 0 10.4-.2 15.9-.2 6.2 0 12.6.3 18.7-.1 2.7-.1 5.4.2 8.2.1zm2.8 45.7c-.1-2.4-.1-4.7-.2-7.1-.1-1-.3-2.3-.3-3.1v-1.2c-.1-1.3-.4-2.6-.6-4-.5-4.1-.9-8.4-1.4-12.4-.1-.9-.1-1.7-.2-2.6-.1-.8-.3-1.6-.4-2.3-.1-.9-.1-1.8-.2-2.6-.1-.6-.3-1.3-.3-2-.1-1.5-.3-2.8-.6-4.2-.1-.7-.2-1.7-.5-1.9-.3-.2-1.7-.2-2.5-.2-.8.1-1.8.2-2.4.2-.4 0-.9-.1-1.2-.2-2-.1-4.8-.1-6.7-.1-4.9.1-9.5-.1-13.9.3-.1 5.6-.1 12.2-.3 17.1v1.1c0 11.7-.3 21-.2 32.3 11.2-.1 22.7.1 32.1-.2.3-2.2-.1-4.5-.2-6.9zm-47.5-43.4c-.5 0-1 .2-1 .6 0 .5.8.2.7.9 0 .4-.2.2-.5.6.1.3.8.6.9 1.2-.1.4-.2.9-.5 1.2-1.2.7-2.9 0-2.7-1.4.1-.6.6-.7.9-1.2-.4-.3-.6-.3-.5-.6.1-.5.7-.3.7-.8-.1-.6-2.2-.3-2.9-.3-3.3 0-7-.1-9.5.2-.5 16.1-.1 33.5-.2 50.2 1.7.3 3.6.1 5.2.1 1.5 0 3.1.1 4.6.1 5.7-.1 11.7-.1 17.9-.2.2-1.6.1-3.8.2-5.7 0-3.5.1-6.9.1-10.7.1-11.2 0-23.1-.1-34.1-4.3-.3-9.7.2-13.3-.1zm-26.6.5c-.3 1.4-.2 3.3-.3 5-.1 2.9 0 6.2 0 9.2 0 1.1-.3 4.1.2 4.5.2.2 1.5.2 2.1.2 2.5 0 5-.1 7.4-.1.3-.6.2-1.3.2-2v-6.6c0-3.7.1-7-.1-10.4-2.9 0-6.8-.1-9.5.2zm-19.3.5c-.2 2.4-.6 4.8-.9 7.3-.1.6 0 1.1-.1 1.7l-.3 1.5v1.3c-.1 2.1-.8 4.5-.5 6.6 2.9.2 6.5.1 9.5.1.6-.8.3-2 .3-3 .1-1.1.1-2.1 0-3-.4-4.1.3-8.5-.1-12.6-2.1-.5-5.6-.1-7.9.1zm14.6 2.1c-.4-.4-.6-1.1-.8-1.8-.6.3-.5 1.4-1 1.8-.8 0-1.2-.6-1.9-.5 0 .6.4 1.2.6 1.8-.4.5-1 .7-1.6.9.1 1 1.5.6 1.8 1.4-.1.6-.6 1.1-.5 1.8.6.2 1.2-.6 1.8-.4.6.2.2 1.3 1 1.5.5-.4.4-1.5 1-1.7.6-.1 1 .6 1.6.6.4-.5-.3-1.2-.3-1.9.5-.4 1.1-.6 1.6-1-.3-.7-1.5-.6-1.8-1.4.2-.5.5-1 .7-1.6-.8-.2-1.3.6-2.2.5zm2.7 18.5c-.7 0-1.4-.3-2.1-.2-.9.2-1.1 1.6-.3 2.2.4 0 .8.3 1.2.3 1.2.1 2.7-.2 3.3.5-1.4.8-3.8.4-5.7.3-.4.7-.9 2-1.7 2.2-.4.1-1-.1-1.4.2-.4-.1-.6-.4-1-.6-.4 1-1.6 1.8-2.1 2.7-.2.3-.1.4-.3.6-.3.2-.7.1-1.1.2-.1.2-.4.2-.4.6.3.5 1.4.4 2 .3.2-.2.2-.4.3-.7 1.3-.6 1.7-2.1 2.8-2.9.5.2 1.1.4 1.9.4.8-.6 1.9-.8 2.9-1.2.5.2.8 1 .5 1.7-.7.5-1.4 1.1-2.6 1.2-.2.3 0 .6.2.9h1.1c.3-.2.4-.5.8-.7.8-.5 1.7-.5 1.9-1.4.2-.6-.1-1.2.3-1.5.9.4 1.7.9 2.3 1.5-.3.7-.6 1.3-1.2 1.7-.8-.1-1.3.3-1 1 .2.1.7 0 1 .1.7-1.1 2.6-1.4 2.6-2.9 0-1.3-1.4-1.6-1.8-2.6.1-.6.8-.7.6-1.4-.3-1.1-3.9-.6-4.9-.9-.1-.2-.3-.3-.3-.5.9-1 2.8-.2 4 0 .3-.2.6-.6.5-1.1-.8-.9-1.5 0-2.3 0zm-8.9.3c0 .2.4.6.5.9.4 1 .8 2.4 1.3 3.1.3.1.4.2.7.2 2.1.2 2.1-1.6 2.4-3.2.2-.3.5-.9.2-1.4-.6-.1-.6.6-1.1.6-.3 0-.6-.5-1-.6-.8-.2-1 .2-1.7.5-.3-.5-1.3-.9-1.3-.1zm17-.5c-.4.5-.5 1.2-.8 1.8-.8.1-1.4-.5-2.2-.7-.1.8.7 1.3.7 2.3-.6.3-1.3.4-1.8.9.3.6 1.4.5 1.6 1.1-.2.4-.6.8-.6 1.4.7.3 1.3-.4 2.1-.3.6.5.5 1.6 1.1 2 .7-.7.5-2.2 1.8-1.6.3.2.7.5 1.1.6.2-.8-.5-1.3-.6-2 .3-.6 1.3-.6 1.8-1-.3-.3-.7-.6-1.1-.8h-.3c-.5-.3 0-.6.1-.9.2-.3.2-.7.3-1-.9-.2-1.3.5-2.2.5-.3-.6-.3-1.8-1-2.3zm-25 2c-.6-.2-1-.5-1.6-.7-.2.7.3 1.4.4 2.2-.5.6-1.8.4-2 1.4.2.1.3.2.5.3.3.1.8.2 1 .3.6.4 0 1.1-.1 1.8.7.2 1.1-.4 1.7-.5.6.4.5 1.5 1.1 1.8.4-.3.4-1.1.9-1.4.7.1 1.4.7 2 .5-.1-.8-.5-1.3-.7-2 .4-.7 1.4-.8 2-1.2-.4-.8-1.7-.5-1.9-1.4-.1-.7.7-1 .4-1.9-.8 0-1 .6-1.7.7-.5-.4-.4-1.4-1.1-1.7-.2.6-.3 1.5-.9 1.8zm8.7 1.3c-.3-.4-.7-.8-1.2-1.4-.5-.5-1.5-2.1-2.2-1 .2.6.6 1 1.1 1.3 0 .4.3.4.6.8s.5.6.7.9c.4.5.7.8 1.2.5-.1-.3-.2-.6-.2-1.1zm18.6 7.7c-.1 0-.1.2-.2.1-1.5 0-3.4.1-5.3.1-1.1 0-2.3-.1-3.2.2 0 6.3-.3 12.3 0 17.7 3.4.2 6.7.3 9.9 0 0-3 0-5.7.1-8.3 0-3.1-.2-6.2.1-9.4-.3-.3-1-.2-1.4-.4zm-30.3.2c-.5.8-.3 1.8-.4 2.9-.1.9-.3 1.8-.4 2.7-.1.8 0 1.6 0 2.3 0 .8-.3 1.6-.3 2.4-.1.7.1 1.4 0 2.2 0 .3-.1.6-.2.9v1.5c-.1 1.1-.4 2.2 0 3.2 3.8 0 8.4.2 12-.1.3-4.1.4-9.6.1-13.7-.1-1.5.5-3-.2-4.3-3.7-.1-7.2 0-10.6 0zm14.9 10.9c-.7.1-1.1-.8-1.9-.6 0 .6.4 1.2.6 1.8-.3.5-1.5.2-1.4 1.1.4.3.9.4 1.2.7 0 .8-.6.9-.5 1.6.7.4 1.3-.4 1.9-.3.7.2.7 1.6 1.2 2 .6-.5.6-1.5 1.4-1.8.5.2.9.7 1.6.5-.1-.7-.7-1.1-.5-1.9.6-.2 1-.4 1.5-.6-.2-.5-.9-.5-1.2-.8-.1-.9.5-1.2.6-2-.7-.2-1.3.3-2 .5-.7-.4-.7-1.5-1.2-2-.5.3-.7 1.7-1.3 1.8zm79.9 9.6c-3.1 0-6.4-.2-9-.1-7.5.3-15-.3-21.7.1-.2.6-.2 1.3-.2 1.9-.1 4.6 0 10.3 0 16 0 7.3 0 14.3.2 20.7.4-.2.3-.9.6-1.2.5-.4 1.3-.5 2-.7 1.3-.5 1.7-.8 2.3-2 .1-.3.4-.6.5-.9.2-.5.2-1.1.4-1.6.1-.3.4-.8.3-1.3.1-.1.1-.2.2-.3.1-1.6.9-3 .7-4.5-.5-.4-1-.9-1.5-1.4-.8-.8-1.7-1.5-1.9-2.7.7-.9 1.2-2.7.9-4.1-.7-.3-2-.1-2.6-.5-.1-.2 0-.7.1-.8v-.5c.9-2.6 1.9-6.5 1.5-9.9-.6-.8-1 .4-1.5.6-.5-1.1.4-1.8.6-2.6-.6-.9-1.4.1-1.7.2-.1-1 1.1-1.3 1.5-2-.3-.2-.7-.4-1.1-.3-.3.1-.3.4-.6.3.1-1 1.2-1.5 2-1.5.9 0 2.6.8 3.2 1.3.4.3.9 1.6.9 2 0 .3.1.8-.3 1-.4 0-.5-.5-.8-.3.2.9-.1 1.7-.2 2.6-.1.5.1 1.1 0 1.7 0 .2-.2.5-.2.7 0 .3.1.7.2 1 .1.8.3 1.6.6 2.2.1.2.4.4.5.6.1.1 0 .3.1.3.2.2.5.4.7.6 1-.7 1.9-1.5 2.8-2.3.4-.1.8-.5.8-.7-.3-.3-1 .1-1.5.1-.5-.2-.6-.8-.9-1.2-.5.1-.4.7-1 .7-.1-2.2 2.7-1.4 4.3-1.5-.2-.6-.2-1.5-.9-1.7-.6-.1-1.2.3-1.8.3-.1.2-.1.6-.3.7-.8-.2-.9-1.5-.7-2.2.3 0 1.1.2 1.4 0 .1-.4-.4-.4-.5-.6.5-.5 1.7-.4 2.6-.6.3-.3.4-.7 1-.9.6-.1 1.3.1 2 0 .6.2 1.3.4 1.9.6.7.8 1.7 1 2.3 1.9.8 1.1 1.2 2.4 1.6 3.9-.1.2-.4-.1-.5.1v2.2c-.2 0-.4.1-.5.2-.2.8-.2 1.6-.1 2.2.1.7 0 1 .5 1.2.8.3 1.9.5 2.7.8.8-.3 1.6-1.5 2-2.2.3-.5 1.1-1 .9-2-.2-.8-.5-1.3-.9-1.9-.2-.4-.4-.9-.6-1.4-.4-.9-1-1.8-1.2-2.6-.4-1.4 0-2.3.3-3.7.2-.9.3-1.9.8-2.5.3-.3.8-.5 1.2-.7.2.2.6.3 1.1.3.5.1 1.3.2 1.7.2.8 0 1.6-.5 2.3-.3.4 1.1 1.7 1.7 1.4 3.2-.4 0-.3-.3-.6-.3-.2.7.3 2.5-.4 2.5-.3 0-.6-.8-.7-1.2-.2-.5-.5-.9-.7-1.3-.4-.3-.7-.8-1-1.3-.1 0-.1 0-.2-.1-.7-.3-1.9-.2-2.9-.2-1.2 1-1.3 3.2-1.5 5.3.4 1 1.1 1.9 1.8 2.7.6 1.4 1.7 3.2 1.1 4.8-.2.6-.8 1.3-1.1 1.9-.4.8-1.2 1.5-1.2 2.4.4.3.6.8 1.1 1 .2-.2.5-.1.9-.2.6-.2 1.5-1 1.3.2-.1.5-.5 1-.7 1.6-.2.6-.4 1.2-.5 1.8-.1 1.1.2 2.1-.1 2.8-.6.2-.6 1-1.2 1.2-.3-.1-.2-.6-.6-.6-.1.6.1 1.5-.5 1.6-.4-.1-.2-.8-.3-1.4.2-.9 1.5-1.5 1.6-2.6.1-.7.1-1.7-.2-2.3-.7 0-.9.4-1.4.6-.6-.1-1-.5-1.7-.5-.5.6-.1 1.6-.6 2.1-.2.3-.9.4-1.3.6l-2 1c-.4.5-.9 1.1-1.2 1.6h-1.2c-.4-1.5-1.1.4-1.7-.1.1-1.2 1-.8 1.9-1 .7-.1 1.8-1.1 2.2-1.5.6-.7 1.1-1.4 1.2-2.4-.4-.2-.6.2-1.1.1-.2-.1-.2-.5-.5-.5s-.4.3-.8.2c-1.6 1.1-3.3 2.2-4.4 3.9-.3 1-.9 1.6-.9 2.8-.3.4-.2 1-.6 1.3-.8.4-1.8 1.2-2.3 1.9-.3.3-.4.9-.6 1.4-.1.4-.3.8-.5 1.2-.3.8-.5 1.8-1 2.3-.1.2-1.1.7-1.3.7h-.4c-.3.1-.5.4-.9.5-.7.1-1 .5-1.6.4-.1-.1-.1-.2-.2-.3 0-.2 0-.5-.1-.6h-.5c-.4.5-.3 1.4-.7 1.8-.4 0-.7.1-.9.3 0 2.2-.2 5.4.2 7.3 1.3-.1 2-.8 3.2-.9.2-.3.5-.2.7-.3.2-.1.4-.3.7-.4.4-.1.8-.2 1.1-.3.2-.1.4-.4.7-.5.6-.3 1.2-.5 1.8-.8 1-.5 1.9-1.1 2.8-1.6 1.2-.8 2.3-1.7 3.6-2.3 2.4-2 4.8-3.9 7-6 2.1-2.4 3.9-5.1 5.7-7.9v-.3c.9-1.4 1.6-3 2.3-4.5.1-1.4 1-2 1.1-3.5 1-2.9 1.7-6 2-9.6.3-.4.1-1.2.2-1.9 0-.3.2-.6.2-.9.2-1.8-.2-3.8 0-5.5-.8-.5-1.7-.4-2.5-.4zm-35.9-.1c-2.2.1-4.7 0-7.3.1-.9 0-1.9-.1-2.7.1-.3 0-.4-.1-.5.3.1-.4-.1-.2-.3-.3-.9-.2-2.3-.1-3.4 0-3.6.2-7.5-.2-10.8.1-.1 7.6-.1 16-.1 23.7 0 1.1-.2 2.4 0 3.4.1.4.3.4.4.9-.1.3-.3.4-.4.9-.1.5.1 1.2.1 1.9 0 2.1.1 4.6.1 7.3 0 3.8-.1 7.2.2 10.2.4.2.8.2 1.2.3.4.1.8.4 1.2.5.7.1 1.2.1 1.8.2 1.9.4 3.9.5 6.1.7.3 0 .6.1 1 .2 2.2.2 5.4-.1 7.4-.3.9-.1 2.1 0 3.1-.2.9-.1 1.7-.4 2.6-.6.9-.2 1.8-.3 2.6-.6.5-.7.4-1.7.4-2.6 0-6.1-.1-12.8 0-18.5v-3.1c0-8.3.1-16.9-.1-24.3-.8-.2-1.7-.3-2.6-.3zm-32.4.2c-2.8 0-5.7.1-8.6.1-1.9 0-3.8-.1-5.7.1-2 .2-4-.1-5.9.1-.9.1-1.8.2-2.7.2-1.8 0-3.4 0-4.9.2-.4 1.4-.1 2.9 0 4.4.1 1.5 0 3 .2 4.4.1 1.2.4 2.4.6 3.7.2 1.5.5 3.3 1.1 4.4.2 1.7.9 2.9 1.2 4.4 1 1.7 1.7 3.7 2.7 5.4.7 1.2 1.4 2 2.1 2.9.5.7 1 1.4 1.5 2l.6.6c.4.4.6 1 1 1.4.5.5 1.1.9 1.6 1.4 1.5 1.5 3.1 2.8 4.9 4 1.7 1.2 3.6 2.3 5.4 3.5.9.6 1.9 1 2.9 1.5 1 .4 1.9.8 2.9 1.2.7.3 1.3.6 2 .8.7.2 1.3.6 2 .6.4-.5.1-1 .1-1.5-.2-3.9 0-7.8 0-11.5v-10.8c-.1-7.8.1-15.4-.1-23.4-1.5-.2-3-.2-4.9-.1zm50.5 5.4c-.1 1.3 1.5.5 2.2.3-.2-.7-1.6-.4-2.2-.3zm-3.5 4.7c-.1.7 1 .8 1.1.2 0 0-.1 0-.1-.1-.5.1-.7-.3-1-.1z"/>
    <path d="M246.3 95.8c0 1.1-.6 1.6-.9 2.4-.7 2.7-1.6 5.2-2.5 7.8-.1 1-.6 1.7-.7 2.7-.2.8-.8 1.7-.6 2.6 2-1.1 4.9-1.6 7.1-2.6.3-.1.6-.5 1.2-.3-.3 1.3-.8 2.4-1.1 3.7-.3.9-.8 1.9-1.1 2.9-.2.6-.5 1.4-.3 2.3.2 1.1.8 1.9.9 3.1 0 .2.2.1.2.2.3 2 1.3 3.6 1.6 5.4-.5.5-1.2-.1-1.6-.3h-.3c-.7-.2-1.2-.7-1.9-.9h-.4c-.2-.1-.4-.3-.6-.3h-.3c-.2-.1-.4-.3-.6-.3-.9-.2-1.6-.6-2.4-.9-.1 0-.2.1-.3.2.3.8.5 1.7.7 2.7.3.9.6 1.6.9 2.7 0 .2.1.4.2.6.6 1.9 1.2 3.5 1.8 5.4.2.6.4 1 .5 1.6.2 1.1 1.1 1.9.9 3.2-1.8-.4-2.8-1.5-4.6-1.8-.2-.3-.7-.2-.8-.6-.9-.2-1.4-.4-2.2-.7-.6-.2-1.1-.7-1.6-.9-.3-.1-.5-.1-.8-.2-.5-.2-.5-.1-1 .1-2.9 1.2-6.1 2.5-8.8 3.7-.1 0-.1.2-.2.2-.5 0-.7.4-1.1.3.5-2.3 1.6-4 2.2-6.2.8-2.8 2-5.3 2.7-8.2.2-.3.4-.8.4-1.3.1-.2.2-.5.2-.9-.8 0-1.6.5-2.3.8-.5.2-1.1.3-1.6.6-.2.1-.3.3-.5.3-.7.3-1.5.5-2.2.7-.5.2-.9.7-1.5.7-.4-.6.3-1.4.3-2.2.7-1.5.9-3 1.5-4.6.3-1 .9-1.7.7-3.1-.9-2.5-1.6-5.2-2.3-7.9 1.1 0 1.9.9 3 1 .3.3.8.5 1.2.6 1 .8 2.7 1.1 3.9 1.8.2-.4 0-.9-.1-1.2-.1-.5-.3-1.2-.5-1.7-.2-.6-.6-.9-.6-1.8-1.3-3.7-2.5-7.5-3.6-11.3.7-.1 1.2.4 1.9.7 1 .5 2.5 1.2 3.7 1.8 1.1.5 2.4 1.1 3.6 1.5.8-.3 1.7-.6 2.6-.9 1-.4 2.1-1 3.2-1.4.3-.1.7-.1 1-.2.3-.1.7-.4 1-.5.9-.3 1.8-.5 2.4-.9-.1-.1 0-.4.4-.2zm-9.8 14.4c-.7-.4-.7.5-.9.7-.1.1-.5.2-.6.4-.1.5.6.3.7.7.1.3-.5 1-.7 1.1-.2.1-.6.1-1 .2-.2-.7-1.4-.9-1.8-.3 0 .2 0 .5-.1.5-.5-.1-.7-.6-1.4-.4-.5.4-.1 1 .1 1.4-1.2-.3-2 .7-1.1 1.5-.6.4-.3 1.2.2 1.6 0 .2-.2.2-.2.5.2.7.6.3 1.2.5.4.1.7.9.8 1.3.1.7-.3 1.2-.2 2 .2.8 1.2.6 2.3.7 1.4.1 3.7-.1 5.2-.1.2 0 .4.1.6.1.7-.1 1.3-.8 1.2-1.5 0-.3-.4-.7-.2-1.2.2-.8 1.3-.7 1.6-1.4.1-.3-.3-.3-.1-.6.4-.3.7-.9.4-1.5.2-.2.4-.5.3-1-.2-.3-.6-.4-.7-.8v-.7c-.2-.4-.7-.6-1.3-.4-.4-.6-1.6-.8-1.9.1-.4 0-1.1-.1-1.3.3.1.6-.2 1-.2 1.2.7.3 1-.5 1.8-.6.3 0 .5.2 1 .1.9.4 1.3 1.2 1.2 2.6-.3 1.1-1.3 1.6-1.2 3-.6 1.3-2.2-.9-.4-.7.5-.4-.1-.8-.2-1.2-.1-.6.3-1.3-.3-1.3s-.4 1.1-.9 1.2c-.6-.1-1 .2-1 .6.1.4.5.2.7.6.2 1-.9 1.8-1.3 1 .3-.3.5-.5.4-1-.1-.3-.5-.4-.5-.6-.1-.2.1-.8 0-1.2-.1-.7 0-1.8.2-2.2-.1-.4-.7-.8-1.1-.3.3 1.2-.2 2.2.2 3.3-.4.1-.7.3-.9.7-.4-.1-.5-.5-1-.5-.5-.4-.3-1.5-1.1-1.5-.3.7.1 2-.7 2.2-.6-.8-1.2-1.6-1.2-2.9.3-.7.9-1.6 1.5-1.8 1-.2 1.5.4 2.4.6.1-.2.2-.8.6-.9.4-.1.8.3 1.1.2.3-.1.7-.6.7-.7.1-.7-.5-.8-.6-1.4.1-.3.3-.5.8-.4v-.7c-.6-.4-.9-.7-1.1-1.1zM209.2 97c.4 0 .6-.3 1-.1.2.4-.1.6-.1.9 0 .4.7.2.9.4.1.5-.5.5-.3.9.1.3.5.2.6.5 0 .3-.4.2-.6.5 0 .4.5.3.4.8-.1.2-.6.1-.7.4.1.3.3.3.3.6-.2.1-.3.3-.6.3-.1.5-.7 1.1-.8 1.8-.1.8.2 1.6 0 2.3-.1.5-.7.5-1 .7-1.7 0-3.5 0-4.9.1-1.7.1-3.8.5-4.5-.8.5-1.6 0-3.7-1.4-4.2.2-.5-.1-.8-.5-1-.1-.4.2-.5.3-.7-.1-.3-.5-.3-.5-.7.1-.3.4-.3.5-.5-.1-.4-.6-.6-.3-1.1.3-.1.5 0 .8 0 0-.1 0-.1.1-.1 0-.4-.4-.4-.3-.7.1-.6.7-.1 1.1.1.2-.5-.1-1.3.6-1.2.4 0 .4.6.6.9.4-.1.3-.6.6-.7.5 0 .3.6.6.9.4.1.3-.4.6-.4.5 0 .1.6.3.9.3.2.2-.3.6-.2.3.3.1 1-.1 1.4-1.3 0-1.7-1.1-3.2-.7-1.2.3-1.3 1.7-1 2.8.2.7.7 1.1 1 1.6.3.4.2 1.3.5 1.8.6.3 1.1-.5.6-.9-.3-.1-.6 0-.8-.2 0-.2.1-.3.1-.5.2-.1.5-.2.7-.3-.1-.5-.4-1.1-.2-1.7.8 0 1.2.8.9 1.5.1.3.4.1.7.1.2.1.3.4.3.9-.2.2-.4 0-.6.1-.5 1.2 1.8 1.8 1.7.4-.5-.2-.9-.7-.5-1.2h.4c.2-.3.2-.9.7-.9.3.2.5.5.5.9.3-.1.3-.2.6-.1.1.2 0 .6.1 1-.3.2-.7 0-.7.4.2.4.6.8 1.1.7.8-.1.7-1.4 0-1.6 0-.2.2-.2.2-.5h.8c0-.7.1-1.5.6-1.8.5.2.6 1.3.2 1.6.1.2.5.2.7.4.1.2 0 .5-.1.6-1.8 0 .3 2.2.7.6-.5-1 .5-1.5.7-2.3-.1-.9.2-1.5 0-2.3-.2-1.1-1.4-1.3-2.6-1-.6.2-1 .8-1.7.7-.1-.4-.2-1.2.1-1.4.2 0 .2.2.5.2.2-.2 0-.9.3-.9.4-.1.3.4.7.3.2-.2.1-.8.6-.8.3.1.3.5.6.6.3 0 .3-.4.4-.6.3-.3.7-.3.9.1.2-.1.2.2.2.4z"/>
    <path d="M204.2 99c.2.3.5.3.5.6.1 1.3-2.4 0-.9-.5-.1-.2-.4-.4-.6-.5-.1-1.9 2.4-.3 1 .4zM204.5 101.3c-.5.2-.9 0-1.1-.4.1-.8 1.5-.4 1.1.4zM207.3 111.8c.7.1 1.5-.1 2.1 0-.1.8-.7 1-.9 1.8.3.7 1.1 1 1.2 1.9-.5.1-1 .3-1.4.5-.3.5 0 1.5-.3 1.9-.5-.1-.9-.5-1.2-.7-1.2-.7-1.6.4-2.7.7-.2-.6.1-1.3-.1-2.1-.4-.3-1.2-.2-1.6-.5.2-.8 1.2-.9 1.5-1.6-.1-.7-.7-1-.8-1.8.9-.2 1.5.3 2-.1s.4-1.2.9-1.8h.1c.5.4.6 1.4 1.2 1.8zM152.3 115.1c.2.9.1 2.2.4 3.2.3 1 1.2 2 1.1 2.6-.1.3-.4.5-.7.5-.5-.1-.3-.8-.9-.9-.6.6-.5 1.9-1.2 2.3-.4-.6-.3-1.6-.5-2.3-.5 0-.7.6-1.1.5-.3 0-.7-.5-.6-1.1.1-.7 1.2-1.4 1.6-2.3.1-.1.1-.3.1-.5.1-.1.2-.2.2-.3.2-.5 0-1.6.4-1.8.5-.4.9.1 1.2.1zM258.2 117c.3.3.3.7.5 1.1.6 1.6 1.3 3.1 2.3 4.3-.2.9-1.2.9-1.5.2-.3.7.1 2-.3 2.6-.7-.5-.7-1.8-1.4-2.3-.3.2-.3.7-.5 1-.5.1-.8-.1-1-.3.4-1.8 1-4 .7-6.1.1-.4.6-.5 1.2-.5zM235.4 120.2c-.4.5-1.5 0-1.2-.9.7-.4.9.5 1.2.9zM214.4 124.2c-.4.3-1.3.1-1.8.3-.3.4-.5.9-.8 1.2-.6-.2-.7-.9-1.1-1.2-.5-.2-1.3-.1-1.9-.2 0-.7.8-1.2.7-2-.1-.5-.5-.8-.7-1.2.3-.6 1.4-.3 1.9-.5s.4-1 .9-1.1c.6 0 .6 1 1.2 1.2.7.1 1.4-.2 1.6.3.2.5-.7.9-.6 1.6 0 .7.6.9.6 1.6zM233.3 119.7c.2.7-.5 1-.9.6-.1-.6.6-.9.9-.6zM198.4 119.6c.6.4.7 1.3 1.2 1.9.9.2 1.5-.5 2.3-.3-.1.9-.5 1.3-.7 2 .4.7 1.2 1 1.8 1.5-.6.5-1.8.3-2.2.9 0 .6.1 1.4-.1 1.9-.9 0-1-.9-1.8-.9-.7 0-1.1 1-1.9 1.1-.3-.6-.2-1.6-.6-2.1-.6-.2-1.4-.2-1.9-.6 0-.7 1.4-.9 1.5-1.5.3-.9-1-1.2-.9-2.3.8-.2 1.4.2 2.2.1.5-.4.5-1.3 1.1-1.7zM213.1 130.3c.7.1 1.2-.3 1.6 0-.3.6-.9.8-1.4 1.2-.1.9.5 1.2.3 1.9-.7 0-1-.9-1.6-.9-.5 0-.7.7-1.4.7-.4-.6.4-1.3.1-1.9-.3-.3-.8-.5-1.1-.9.3-.4 1.1 0 1.6-.3.4-.3.4-1.1.8-1.4.7.5.5 1.4 1.1 1.6zM202.1 129c.8.8.9 2.4 1.6 3.2 1.1-.3 1.9-.9 2.9-1.2 0 .1.1.2.2.2-.3 1-.9 1.8-1 3 .9.5 2.3.6 3 1.4-.9.7-2.2.8-3.2 1.4-.1.3-.1.8.2.9.1.6.3 1.2.7 1.6 0 .4.5.8.1 1.1-1-.4-1.7-.7-2.8-1-.8.6-.9 2-1.5 2.8-.4-.3-.5-.9-.6-1.5-.3-.5-.3-1.3-.9-1.5-1.1.2-2 1-3.1 1 .1-1.1.7-1.6.7-2.8-.8-.6-1.7-1-2.7-1.4.1-.8 1.1-.7 1.7-1 .3-.4 1.2-.3 1.4-.9.1-.3-.2-.6-.4-1s-.2-1-.3-1.2c-.1-.3-.4-.5-.2-.8.8.2 1.7.8 2.6 1.1.6-.4.8-1.3 1.1-2.1.1-.4.2-1 .5-1.3zM168.7 155.3c-.7.5-1.6.8-2.2 1.4.7.7 2 .7 2.6 1.4.2 1 .2 2.2 1 2.6 1.2.2 2-.1 2.1-1.1-.2-.9-.6-1.6-1.1-2.2-.8-.3-1.8-.5-2.6-.8.1-.4.8-.4 1.1-.6 2 .2 2.8-1.5 4.7-.7.4.6 1.1 1 1.3 1.9.3 1.5.1 3.2 1.1 4.1.3 0 .4.1.6.2 1.7-.5.8-3.6 1.3-5.3 0-.9 0-1.3.2-2.2.5-2.5 2.7-3 4.4-4.1.6-.4 1-.9 1.5-1.4.4-.4 1-.8 1.4-1.2.2-.2.2-.6.5-.7.4.3.1.9.1 1.4 0 .5.1 1.1-.1 1.5-1.3 1.2-2.8 2.1-3.7 3.6.1.5-.3.8.1 1 1.5-.6 2.3-1.9 3.7-2.6.7 1.5-.2 2.2-1.1 2.8-.7.6-2 1.3-2.5 2 .2.4.2.9.6 1 1.2-.5 2.3-1.6 3.4-2.4.5.4-.2 1 .1 1.4-.2.5-.8 1-1.5 1.5s-2.3 1.3-1.1 2c1.4 0 1.6-1.3 2.8-1.6.1 1.6.2 4.1-.2 5.7-.4 1.7-1.2 2.9-2.3 3.9-.5.5-1.1.8-1.7 1.2-1.5.4-2.8 1.3-4.4 1.4-.1-.3-.2-.7-.2-1 .1-1.4.1-2.8-.1-4.1-.1-.6-.6-1.8-.9-2.3-.3-.4-.8-.6-1-1 .1 1 .8 2 1 3.1 0 1.3.3 2.5.2 3.8-.1 1.1-.8 2.2-.7 3.2.7.2 1.9-.1 2.5.3v1.5c-.6.5-1.8.1-2.7.2-.4-.4-.3-1.1-.5-1.7-.2-.6-.9-1.6-1.4-.7-.2.5-.4 2 .1 2.4.3-.1.3-.5.6-.6.5.2.5.9 1.1 1.1.4 2.1 1.6 3.5 2.4 5.3l1.2 1.5c.3.5.9 1 1 1.8-.3.3-.7.4-1.2.6-1-.7-1.2-2.2-2.2-2.9-.2 1.2.8 2 .7 3.2-.4.1-1 0-1.4.1-.7-1.1-.8-2.8-1.4-4.1-.4.1-.3.7-.3 1.1 0 1 .2 2.1.1 2.7-.8.1-1.6-.2-2.2-.5-.5-.9 0-2.6-.3-3.6-.4 0-.3.5-.3.8-.3.6-.3 1.6-.6 2.1-.7 0-.9-.4-1.4-.6-.1-1.1.5-1.5.6-2.4-.9.1-.9 1-1.6 1.2-.5-.2-.8-.5-1.1-.9 1.2-1.7 2.8-2.9 2.9-5.6.2-.3.5-.6.7-.9.4-.1.5.3.8.2.3-.9 0-2.3-.7-2.3-1 0-.7 2-1.2 2.6-1.1 0-2.1.1-3 .3-.5-.2-.4-1.4-.3-2 .7-.4 2.2 0 3-.3 0-.8-.6-1.5-.7-2.3v-.7c0-.2-.1-.3-.2-.5-.2-1.2.2-2.3.3-3.4.2-1.1.9-2 1-3.1-2 1.6-2.3 4.8-2.3 8.2-.7.3-1.6-.1-2.4-.1-.1 0-.2-.1-.3-.2-3-.5-4.6-2.3-5.5-4.8 0-.4-.1-.7-.2-.9.1-1.9-.2-4.1.3-5.6.6.1.8.6 1.2 1 .2.2.6.6.9.6.4.1 1-.4.7-1-.1-.2-.3-.2-.6-.4-.4-.3-.6-.7-.9-1.1-.2-.3-.5-.6-.7-.9-.2-.3-.5-.5-.7-.7 0-.6.1-1.1.3-1.5.6.2 1 .9 1.5 1.5.5.5 1.1.9 1.6 1.4.4-.1.6-.9.5-1.2-.1-.4-.9-.8-1.4-1.2l-.9-.9c-.1-.2-.1-.3-.2-.5-.3-.4-.9-.7-1.1-1.1-.1-.6 0-1.2.1-1.8.6.1.9.7 1.2 1.1.7.8 1.5 1.6 2.6 2 .5-1.6-1-2.4-1.8-3.2-.6-.7-1.4-1.5-2.1-2-.2-.8-.2-1.5.2-2.1.1 0 .1-.1.1 0 .6.3.9 1 1.4 1.5.9 1.1 2.2 1.6 3.5 2.4.5.6 1.1 1.1 1.7 1.5.3.6.6 1.2.9 1.9-.3.5-.3.9-.3 1.4zm4.4 1.5c.2 0 .1.1.2.1 0-.1.1-.1.2-.2v-.4c-.2-.3-.7.1-.4.5zM192.3 148.1c.1 0 .1.1.2.1.9 2.4 2.1 4.4 3.8 5.9.7.3 1.3.9 2 1.4.6.3 1.2.6 1.9 1 1.4.9 3.1 1.5 4.4 2.6 1.1.9 1.6 2.2 2.3 3.6.3 1.7.9 3.3 1.1 5.3.1.6.3 1.2.3 1.8v.7c.1.4.3.9.3 1.3.4 2.3.5 4.8 2 6.1.2 0 .3.1.4.2 1 .2 1.3-.3 1.5-.9.1-1 0-1.9-.2-2.8-.4-1.5-1.1-2.7-1.4-4.2-.7-1.9-1.5-3.7-2.2-5.7 0-.4-.1-.8-.2-1.1v-.5c-.1-.7-.5-1.8-.3-2.8.2-1.9 1.4-3.8 2.7-4 .4-.1.8.2 1.2.2 1.2 1 1.9 2.6 2.4 4.3.1.9-.1 1.8 0 2.6s.6 1.4.5 2c-.8-.1-1-.9-1.4-1.5-.5-.7-1.3-1.3-2-1.9-.2.2-.3.5-.3.7-.2 1.5.3 2.9.5 4.1.3.5.4 1.2.7 1.7.2 2 1.4 3 1.6 4.9.3.4.2 1 .5 1.3.2 1.7.6 3.3 1.1 4.8.1 1.7 0 2.9-1.1 3.5-1.5.9-4.8.5-7.5.5-2.5 0-4.9-.1-6.6.1-1.2-.3-2.8.1-3.9-.1-.5-.6-.9-1.2-1.2-2-.5-.5-.8-1.2-1.2-1.8-.4-.6-.9-1.1-1.3-1.6-.2-.4-.5-.8-.7-1.2-.3-.4-.7-.8-.5-1.3.4 0 .3.3.5.5 1 .7 2 1.4 2.9 2.2.5-.1 1.3.9 1.9.9.4 0 .7-.5.6-.9-.1-.5-1-.3-1.2-.9.4-.7 1.1-2 1.8-2.9.2-.3.6-.7.6-1 .1-.6-.6-.9-.8-1.5.1-.5.7-.8 1-1.2.2-.2.3-.5.5-.7.3-.4 1.1-.8 1.1-1.5 0-.5-.7-.8-.7-1.2 0-.6.9-1.3 1.4-1.8.3-.3.4-.7.6-.9.3-.3.6-.5.8-.7.2-.3.6-.8.6-1.1 0-.4-.6-.8-.9-1.1-.4-.4-.6-.7-.9-1-3.4-2.1-6.7-4.3-8.8-7.6-.2-1.4-.5-2.7-.4-4.5-.1-.3 0-.3 0-.4zM151.5 157.3c-.3-.2-.4-.5-.7-.7-.4.7.1 2-.3 2.7-.7-.4-.7-1.9-1.5-2.4-.4.1-.3.8-.6 1-.4 0-.7 0-.9-.2-.1-.9.4-1.2.3-2.1.5-1.2.4-2.8.5-4 .1 0 0-.1.1-.1.3-.2.7-.3 1.2-.2.1.1.1.2.2.2.1 1.4.8 2.3 1.4 3.5.7.9 1.8 1.8.3 2.3zM261.9 158.5c-.2.2-.6.3-.9.6-.5-.2-.6-.8-.8-1.2-.8.5-.6 1.9-1.2 2.5-.2 0-.2-.3-.3-.3 0-.9 0-1.8-.2-2.6-.5 0-.6.8-1.1 1-1.5-.6 0-1.7.6-2.8.2-.3.4-.7.6-1 .2-.4.2-.8.3-1.2.1-.2.5-.8.4-1.3.3-.4.7-.1 1.4-.2.1.1.1.2.2.2-.2 2.7.7 4.2 1 6.3z"/>
    <path d="M192.8 155c.2.1.4.5.6.7 1.2 1.4 2.4 2.7 3.8 3.9.7.6 1.9 1.2 2.8 1.9.4.3 1.5 1.2 1.5 1.6 0 .5-.4.6-.7.9-.3.5-.6.9-1 1.2-.5-.1-.6-.5-.9-.9-1.9-2.3-4.8-3.5-6.1-6.3-.2-.8-.2-1.8-.2-2.8 0-.1.1-.1.1-.2h.1zM192.8 160.4h.2c1.7 2.8 4.5 4.6 6.2 7.4-.4.5-1 2.3-1.8 2.1-.4-.1-.5-.8-.7-1.1-1.1-1.4-2.2-2.9-3.5-4.1-.4-1-.7-3.1-.4-4.3zM193.4 167.4h.1c.7.5 1 1.4 1.6 2.2.5.6 1 1.1 1.5 1.9.3.5.7 1.3.7 1.6 0 .8-.8 1.2-1.1 1.9-.7-.6-1.1-1.8-1.6-2.6-.2-.3-.5-.6-.7-1 0-.3 0-.6-.2-.7-.1-1-.3-2.3-.3-3.3zM249.1 181.2c.2.3.6.5.7.9 0 .5-.5.7-.7 1-.2.3-.2.7-.5.9-.1.4-.3.8-.6 1.2v.3c-.5.4-.3 1.5-.6 2-.4 0-.7.1-1-.1v-1.3c-1-.2-1.5.9-2.3 1-.2-1 .9-1.5.8-2.4-.2-.2-.7-.1-.9.1-.5 0-.7-.8-.3-1.2 1.4-.2 2.4-.8 3.5-1.3.7-.3 1-1 1.9-1.1zM165.7 183.9c0 .4 0 .7-.1 1-.3.1-.7.1-.9.3.2.9 1.2 1.2 1.5 2-1 .1-1.5-.7-2.6-.7-.4.2-.1.8.1 1-.2.4-.5.6-1 .6-.7-1.4-1.6-3.2-2.6-4.4-.2-.3-.8-.6-.8-.9 0-.3.6-1.1 1-1.1.3 0 .9.8 1.5 1.1h.3s0 .2.1.2h.3c.1.1.3.2.6.3.6 0 1.1.1 1.5.3.4-.1.7.1 1.1.3zM213.1 185.2c0 .5-.1 1.1-.6 1.5-.4.3-1.2.1-1.8.1-3.5 0-9.2.1-12.2.2-.5-.3-.8-1-.8-1.6 1-.4 2.1-.3 3.3-.3h3.5c3-.1 6.1-.2 8.6.1zM211.7 188.9c.1.5-.2.7-.3 1-.9.1-1.8 0-2.7.1-.9 0-1.7.2-2.6.2-.3 0-.6-.2-.9-.2-.3 0-.6.1-1 .2-1.4.1-3-.1-4.6-.1-.2-.2-.5-.7-.3-1 .3-.5 2.5-.2 3.2-.2 2.1 0 5.6.1 7.5-.1.6-.1 1.2-.4 1.7.1zM195.7 201.3c-.5.8-1.7-.1-2.6.2-.1.6.5.5.6.9 0 .4-.4 1-.9.9-.5-.1-1.1-.9-1.6-1.3-1.2-1-2.7-1.7-3.9-2 0-.1-.1-.2-.2-.3.1-.3.2-.8.4-1.1 1.9.1 4 .4 5.8 0 .2-.6 1 .4.9.7-.1.4-.7.4-.7.7.2.6 2.1.6 2.2 1.3zM221 198.9c.3.3.5.7.5 1.4-1.1.4-2.6 1.2-3.5 2-.6.6-1.3 2-2.1.7 0-.5.4-.5.4-.9-.1-.8-1.5-.1-2.3-.5.3-.9 1.6-.7 1.8-1.6-.1-.4-.8-.2-1-.5 0-.5.2-.8.5-1 1.3.1 2.4.4 3.6.5.6.1 1.3-.1 2.1-.1zM360.6 240.8c1.2-1.1 2.7-2.4 3.6-4.1.3 0 .3-.4.5-.4.5-1.2 1.7-2.1 2.4-3.2.5-.8.9-2 1.9-2.3.6.3 0 1 .1 1.5-.5.7-.8 1.6-1.4 2.2 0 .5-.2.8-.4 1.1-1 1.6-2.5 3-3.5 4.6.7-.2 1.2-.9 1.9-1.3l1.5-.9 1.5-.9c2.5-1.4 5.4-2.4 8.3-3.4 1.2 0 2.1-.8 3.3-.5-.5 1.1-1.5 1.9-2.4 2.6-1.8 1.3-3.8 2.6-6 3.5-1.1.4-2.2 1-3.3 1.4-1.2.4-2.4.6-3.6 1.1-.8 0-1.4.4-2.2.5-.4.1-.7 0-1 .2-.4.3-.9.9-1.2 1.4-.8 1-1.6 1.8-2.7 2.7-.5.4-.9.9-1.4 1.3-.4.3-1 .6-1.4.9-.9.7-1.7 1.2-2.6 1.9-.4.4-.9.6-1.4.9-1.4.9-2.7 1.8-4.2 2.7-.2.1-.5.3-.7.4-.9.5-2 1.2-2.9 1.8-.8.4-1.6.8-2.3 1.2-1.5.9-3.3 1.4-4.9 2.3.2.3.9.1 1.1-.1 3.1-.4 5.6.1 8.6.5 1.2.4 2.4.8 3.7 1.1 1 .6 2.9 1.2 4.1 1.8.2.1.3.3.5.3.3.2 1 .1 1 .6s-.7.5-1.1.7c-1-.2-2.5.1-3.7 0-.7-.1-1.3-.3-1.9-.3-.5-.1-1 .1-1.4 0-2.1-.2-4-.9-5.9-1.2-1.1-.6-2.8-1.1-4.1-1.6l-.6-.3c-.6-.2-1-.4-1.4-.9-.5 0-.8.4-1.3.6-1 .5-2.2.9-3.3 1.3-1.1.4-2.3.9-3.4 1.2-1.8.5-3.6.9-5.5 1.5-.8.2-1.3.3-2.3.5-1.3.2-2.5.8-4 1.1-.9.2-2.1.5-3.2.7-1 .2-2 .7-3.1.9-1.9.4-3.9.7-5.9 1.1-.6.1-1.3.2-2.2.3-1.1.2-1.9.4-3.2.6-1 .1-1.9.5-2.9.7-.8.1-1.6.1-2.6.2-.2 0-.4.1-.6.2-.7.1-1.5 0-2.2 0-.4 0-.8.1-1.2.2-1.7.1-3.4.1-5.1.2-3.3.2-7.1.4-10.8.2-.5 0-.9-.1-1.4-.2-2.4-.1-4.8.2-7.1 0-3.3-.3-6.7-.2-9.8 0-.3 0-.7 0-1-.1-3.4-.1-7 .2-10.5-.1-.3 0-.6-.1-.9-.2-2.2-.2-4.6 0-7 .1-2.8.1-5.6.2-8.3.2-2.1 0-4.2.4-6.3.4-.4 0-.8 0-1.2.1-1 .1-2 .2-2.8.3-1 .1-2.3-.2-3.1.4.2.2.6.1.7.3h.5c.9.4 2.1.6 2.9 1.1 1 .1 1.9.4 2.8.9.9.4 1.8.6 2.7 1 1.2.5 2.4 1.2 3.7 1.8.4.2.9.4 1.2.6.3.2.6.4.8.6.3.2.7.3 1 .5.3.2.5.4.8.6.9.5 1.8.8 2.7 1.2 1.3.6 2.7 1.3 4.1 1.9.7.3 1.4.4 1.8.9-2.1.1-4.1-.3-6.6-.5-.6 0-1.1-.3-1.6-.3-.2 0-.3.1-.5.1-.5-.1-.8-.7-1.2-1-1.6-1.3-3.5-2.6-5.2-3.5-1.3-1.2-3.4-1.6-5-2.5-.3 0-.5-.1-.7-.2-.9.1-1.2-.4-2-.4-1-.6-2.2-.9-3.7-1.1-.4 0-.8-.3-1.2-.3-.9-.2-1.9-.2-2.8-.3-.8-.1-1.5-.7-2.3-.7-1.5.4-3.4-.2-4.8.2 1.2.1 1.6 1.9.5 2.3-.7.2-1.4-.4-1.4-1.1 0-.5.3-.7.7-1.1-.9-.4-1.8.1-2.7.2-.5.1-1-.1-1.5 0-.8.1-1.4.7-2.2.6-1 .5-1.9.7-2.8.9-.4.1-.9.4-1.4.5-.3.1-.6.1-.9.2l-.6.3c-.6.3-1.3.5-2 .7-.9.3-1.7.7-2.5 1.1-1.6.8-3.2 1.6-4.5 2.7-.4.3-.7 1-1.2 1.1-.3.1-.7 0-1.1 0-3.1.4-6.2 1.1-9.5 1.2.2-.5.7-.4 1.1-.6.4-.2.7-.4 1-.6 1.1-.4 2.3-.8 3.3-1.4h.4c.7-.3 1.4-.8 2.3-.9 2-.8 4-1.7 6-2.4s3.8-1.9 6-2.4c.2-.2.7-.2.9-.5.7-.2 1.5-.2 2.1-.6.3 0 .9-.2 1.2-.4-.7-.3-1.6-.2-2.3-.3-.5-.1-1.1-.1-1.8-.2-4.1-.4-9-.1-13.3-.4-.9-.1-1.7-.2-2.4-.1-.3 0-.5.1-.7.2-.6.1-1.3-.1-2-.1-1.9 0-3.3 0-5.2-.1-.2.1-.3.3-.5.5.1.9-.3 1.5-.7 2.2-1.6 3.3-4.3 5.9-6.7 8.3-1 .4-1.7 1.3-2.6 1.8-.8.6-1.9 1-2.7 1.6-.7.1-.9.6-1.7.6-.7.4-1.4 1.1-2.4 1.1.2-.9.9-1.3 1.5-2 .5-.7.9-1.5 1.4-2.2.5-.6 1.1-1.3 1.6-1.9 1.1-1.4 2.2-2.8 3.5-4.1.2-.2.5-.3.8-.6.4-.3.7-.7 1-1.1 1-.9 2.3-1.8 3.6-2.6.5-.6 1.5-.9 2.2-1.3-.3-.4-.9-.2-1.5-.2h-13.1c-1 0-2.1-.2-3.2-.2-2 0-4.6.2-6.5-.1-1.9-.3-4.4.1-7-.1-1.6-.1-3.4-.5-4.8-.3-.4 0-1.1.2-1.7.1-.6-.1-1.7-.3-2.4-.3-1.5-.1-3 .1-4.5.1s-3-.3-4.5-.4c-1.7-.2-3.3.1-5-.2-1.1-.2-2.3-.4-3.4-.6h-.8c-.2 0-.3-.1-.5-.2-.7-.1-1.4 0-2 0-.5 0-.8-.3-1.3-.3-.9-.2-1.8-.2-2.7-.4-.7-.1-1.3-.4-1.9-.5-.8-.1-1.6 0-2.3-.4-.4.1-.8-.1-1.1-.2-1.1-.3-2.6-.5-3.9-.7-.9-.1-1.9-.5-2.9-.7-1.5-.4-3.3-.8-4.8-1.4-2.5-.6-4.8-1.6-7.1-2.5-1.1-.4-2.2-1-3.3-1.5-1.1-.5-2.2-.9-3.2-1.6-1.6-.7-3.1-1.7-4.6-2.6-2-1.1-4-2.3-5.9-3.6-.7-.5-1.1-.9-1.9-1-2.5-2-5-3.9-7.3-6.1-1.1-1.1-1.9-2.4-3.3-3.2-.5-.8-1.5-1.1-1.8-2-1.5-1.1-2.5-2.6-3.9-3.7-.3-1-1.5-1.6-1.9-2.6-.1-.3-.2-.7-.3-1-.1-.3-.3-.5-.2-.7.5-.4.9 0 1.2.3.9.9 1.8 2 2.5 3 .7.7 1.5 1.3 2.2 2 .9.5 1.4 1.4 2.3 1.9-1.2-2.7-2.9-5.5-3.9-8.7-.3-2.8-1.1-6-.7-9.6.1-.6.1-1.2.4-1.6.8.9 1.5 2.2 2.1 3.6.4 1 .8 2 1.1 3.2.2.6.2.9.3 1.6.2 1.3.9 2.6 1.1 4v.9c.1.5.3.9.3 1.4.1.7.1 1.6.2 2.4 0 .2.1.4.2.6v1.1c0 .5.3.9.2 1.2 0 .3-.2.5-.2.8 0 .4.6.7 1.1 1.1.5.4.8.9 1.1 1.1.8.8 1.6 1.4 2.3 2 .8.7 1.5 1.4 2.4 2 2.5 1.8 4.7 4 7.6 5.6 1 .5 1.9 1 2.8 1.6.9.6 1.8 1.3 2.6 1.8.4.2.8.3 1.2.5 1.1.5 2.2 1.3 3.5 1.6-.1-.4-.5-.5-.7-.7-.4-.4-.6-1.1-.9-1.6-.9-1.5-2-3.2-2.7-4.9-.9-2.5-1.5-5.1-2.4-7.7-.2-1.2-.3-2.5-.5-3.9-.1-.5-.2-1 .1-1.4.8.2 1.3 1.2 1.9 1.8.4.9 1 1.6 1.5 2.5.5.9.8 1.9 1.4 2.6.7 2.2 1.7 4.3 2.4 6.5.1 1.1.3 1.9.5 2.9.2.9.6 1.9.7 2.8.1.4-.1 1 0 1.4.2.7 1.7.9 2.4 1.2.9.4 1.8.7 2.6 1.1 2.6.7 5 1.6 7.7 2.3 2 .2 3.2 1.1 5 1.6.8 0 1.3.2 1.8.4 2 .2 3.8 1 5.8 1.2h.6c.7.1 1.1.2 2 .3 1 .1 2.1.4 3.2.6 1.8.3 3.8.4 5.7.7 1.2.2 2.6.4 4 .5 2.2.2 4.8 0 7 .2 4.5.3 10-.2 14.8 0-.4-.6-1.1-.7-1.7-1-1.8-1-3.7-1.9-5.3-3.1-.5-.4-1-.9-1.6-1.2-1.6-1.1-3.1-2.5-4.5-3.9-.7-.3-1.1-.9-1.6-1.4-.5-.6-1.1-1.1-1.6-1.7-.5-.6-.9-1.4-1.6-1.9-.3-1-1.1-1.3-1.3-2.3.7 0 1.2.4 1.8.7.6.3 1.2.5 1.7.9 1.6.5 2.9 1.3 4.1 2.2.2 0 .3.1.6.1 1.9 1.4 3.9 2.8 5.5 4.6 1.4 1 2.5 2.4 3.6 3.7.6.7 1.2 1.2 1.7 2 .5.7 1 1.4 1.6 2 .1.2 0 .5.1.7 1 .2 2.5.1 3.9.1.3 0 .6.2 1 .2 1.6.1 3.1-.1 4.7-.1 1.2 0 2.3 0 3.7.1.6 0 1.3-.1 1.9-.1.5 0 .9.2 1.4.2h1c1.7 0 3.5-.2 5.3-.1 1.7.1 3.5.1 5.2-.1 1.8-.2 3.8 0 5.8-.1 2.3-.1 4.7 0 6.6.2 1.5.1 3-.1 4.5.1 3.1.2 6.3.3 9.4.5.1-.4-.2-.5-.1-1 .2-.8 1.7-.8 1.8.2 0 .4-.2.5-.2.9 2.3.3 4.9.1 7.1.5 1.7.3 3.5-.1 5.2.1.2 0 .4.1.7.2.4 0 .8-.1 1.2 0 .2 0 .4.2.6.2.5 0 1-.3 1.6-.3 1.5-.2 3.1-.1 4.5-.2.4 0 1.2-.2 1.6-.3.9-.2 1.9-.1 2.8-.2.6-.1 1.2-.3 1.9-.3.6-.1 1.3 0 1.9-.1.5-.1.9-.2 1.4-.3 3.5-.3 7.1 0 10.4-.2 1.7-.1 3.4.2 5 0 .3 0 .5-.1.7-.2 1.6-.1 3.3.1 5 .2 2.3.1 4.5.1 6.5.2.6 0 1.2-.1 1.8-.2.7 0 1.4.1 2.2.2 1.5.2 3.1-.1 4.6-.1 4.4 0 8.7.3 12.8-.1 3.5-5.1 7.4-9.8 12.8-13 1.5-1.2 3.2-2.2 4.8-3.4.5-.4.9-.9 1.6-1 .3.3-.2.7-.2 1.1-.3.2-.4.6-.7.8-1.2 2.8-3.2 4.8-5 7-.8.9-2 1.5-2.6 2.6-2.4 1.9-4.7 3.8-7.7 5.1-.5 0-.8.2-1.2.4-.4-.1-.6.1-.8.2.5.4 1.3.2 2 .2 2.3.1 4.8-.2 7.3-.2.5 0 .9.1 1.4.1 1-.1 2.8-.4 3.9-.5 1.7-.2 3.4-.1 5-.2 1.3-.1 2.3-.4 3.7-.5.7-.1 1.3-.3 1.9-.4 1-.1 1.9 0 2.8-.2.4-.1.9-.3 1.3-.3.8-.1 1.5 0 2.3-.2.4-.1.8-.3 1.2-.4 1-.2 2.2-.3 3.2-.5.9-.2 2.1-.4 3.2-.6.9-.1 1.7-.5 2.7-.7.7-.1 1.4-.2 2.2-.4.5-.1 1.1-.4 1.6-.5 1.5-.4 2-.3 2-1.9.5-1.9 1.4-3.6 1.9-5.3.2-.5.3-1 .5-1.4 1.5-3.7 4.1-7.1 6.4-10.1.2-.3.5-.6.7-1 .2-.3.4-.8.9-.9.3 2-.5 3.5-.7 5.3-.8 2.1-1.6 4.2-2.5 6.1-.7 1.5-1.5 2.8-2.4 4.1-.3.4-.7.7-1 1.1-.2.2-.3.6-.6.8-.8.9-2 1.3-2.7 2.4.3.1.7-.1 1-.3 3.6-.8 6.7-2.2 10-3.3.5-.6 1.8-.4 2-1.2.1-.2 0-.4.1-.6.1-.6.6-1.1.6-2 .3-.7.5-1.4.5-2.3.5-1.6 1.2-3 1.5-4.9 1-2 2-4.1 3.2-6 .4-.7.7-1.4 1.1-2 .2-.3.5-.4.7-.7.5-.7.8-1.6 1.2-2.3.7.2.3.9.2 1.4 0 .4.1.9 0 1.2 0 .1-.1.3-.2.4-.2 1-.3 2.2-.4 3.3-.6 2-1.1 4.2-2 6.1-.7 1.4-1.2 2.8-2 4-.5.7-1 1.2-1.5 1.8-.3.4-.5.9-.8 1.2-.3.3-.7.3-.9.7.5.1 1.1-.3 1.6-.6.6-.3 1.1-.5 1.7-.7 3.6-1.3 6.6-3 9.5-5-.6-1.9-.8-4.6 0-6.3v-.5c1.2-4.7 2.9-9 5-12.9.3-.5.6-1.1 1.1-1.5.6.8.3 2.2.2 3.1-.2 1.1-.2 2.3-.3 3.3 0 .2-.2.4-.2.7v.6c-.1.3-.3.6-.3.9v.7c-.1.7-.5 1.6-.8 2.4-.5 1.5-1 3.1-1.6 4.6-.3.8-.6 1.6-.9 2.2-.5.8-1.1 1.5-1.5 2.2 1-.2 1.7-1 2.6-1.6 1.6-1.2 3.3-2.1 4.8-3.4.4-.3.7-.6 1.1-1 1.6-1.4 3.3-2.8 4.6-4.6-.4-.2-.6.6-.9.5-.2-1.2-.5-2.5-.5-3.9 0-.5.1-1 .2-1.5 0-.6-.1-1.2 0-1.7.1-.7.4-1.8.5-2.6.2-1.4.5-2.7.7-4 .4-.6.6-1.3.7-2 1-1.7 1.6-3.7 2.7-5.2.6.4.3 3.1.3 4.6 0 1.2 0 1.7-.1 2.7 0 .3-.2.6-.2.9-.1.8-.2 1.7-.3 2.4-.2.9-.4 1.9-.6 2.7-.1.6-.4 1-.5 1.5-.1.3-.1.8-.2 1.1-.2.7-.7 1.4-.9 2.1-.1.3-.1.6-.2.8-.6.4-1 .7-1.1 1.4z"/>
    <path d="M245.5 240.9c.6.9.8 2.1 2 2.3.8.1 1.9-.3 2.3.3v1.9l-.6.3c-3.2 0-6.2.1-9 .1-.3 0-.6-.1-.9-.1-.8 0-1.8.5-2.5-.1-.1-.7-.1-1.3.1-2.1.7-.4 1.9-.1 2.8-.2.6-.1.9-.5 1.2-.7.1-1.4-.5-2.4-.9-3.5-.2-.5-.2-1-.6-1.2-2.1 0-4.5.1-6.6.1-.7 0-1.4-.2-1.8.5-.2.4-.3 1-.5 1.5s-.3 1-.5 1.5v1.1c.2.3.5.5.7.7 1.3.1 2.5-.2 3.5.2v2c-.7.5-1.7.3-2.7.3h-8.8c-.3-.4-.3-1.9 0-2.3 2.7.3 4-1 4.3-3.2.3-.3.2-1 .6-1.2.5-1.9 1.1-3.7 1.8-5.5.3-.8.5-1.6.8-2.4.3-.9.5-2.1 1-3 .6-2.3 1.4-4.4 2.2-6.5 1-.2 2.2-.2 3.3-.2 1.8-.1 1.9.3 2.4 1.7.6 1.7 1.1 3.1 1.7 4.6.1.3.2.6.3 1 .2.6.5 1.3.7 2 1.3 3.3 2.7 6.7 3.7 10.1zm-6.8-5.6c-.1-1.6-.9-2.5-1.1-4-.4-.6-.5-1.6-.9-2.3 0-.4-.4-.9-.6-1.5-.2-.6-.2-1.5-.9-1.5-.5.8-.8 1.8-1.1 2.8-.5 1.6-1.1 3.4-1.6 5-.2.5-.3 1.1-.2 1.6.2.1.3.1.5.2 1.7-.1 3.6-.1 5.6-.2.1 0 .2 0 .3-.1zM161.2 222.1c.6 0 1.5-.1 1.8.3.1.2-.1.5-.1.8 0 .3.1.5.2.9.2 2-.1 5.2 0 7.1-.4.4-1.4.2-2.1.2-.5-.9-.6-1.9-1-2.8-.4-.9-1.1-1.5-1.6-2.2-1.4-1.4-4.2-2.3-6.9-1.9-1.6.2-2.7 1.3-3.2 2.6-.2 1.6.6 2.2 1.3 2.8 1.1.6 2.5.9 4.1 1.2.4.1.8.3 1.2.3 1.1.2 2 .4 2.9.6 1.1.3 1.9.6 2.8 1.1 2.2 1.1 4.2 3.3 3.7 6.9-.2 2-1.3 3.9-2.8 5-1.7 1.3-4.5 1.9-7.6 1.5-2.5-.3-4.1-1.3-6-2.3-.8.4-.5 1.9-1.3 2.3-.7.3-1.6 0-2.3-.2-.2-3.2 0-6.6.1-10.2.6-.3 1.6-.2 2.2.1.5 2.2 1.2 4.2 2.6 5.5.9.5 2 1.6 3.6 1.8 3.2.5 6.8.2 7.5-2.6.1-1.2-.2-2-.6-2.7-1.1-1.1-2.9-1.5-4.5-2-1-.1-1.9-.3-2.7-.6-5.1-.7-9.3-2.6-8.4-8.6.2-1.2.9-2.4 1.6-3.3 1-1.2 3.3-2.2 5.2-2.4 3-.3 5.8.5 7.4 1.8.2.2.7.8 1.1.7.5-.1.8-1.3 1.1-1.6.4.2.5.1.7-.1zM190.3 222.1c.4 2.1.2 5 .2 7.2 0 .8 0 1.5-.3 2.1-.5.1-1.4.1-1.9 0-.5-.5-.2-1.2-.3-2 0-.2-.2-.6-.3-.9-.5-1.6-1.1-2.9-2.6-3.6-.6-.3-2.7-.9-3.2-.3-.6.7-.1 2.4-.1 3.5 0 .3-.1.8-.1 1.1 0 .6.1 1.2.1 1.9 0 1.5.1 3.4.1 5.2 0 2.9-.5 6 1 7.3.2 0 .4.1.5.2 1.2.1 2.2-.2 3.2.2.1.8.3 1.7-.1 2.3-4 .1-9.6.5-13.9 0-.2-.4-.3-1.5-.1-2 1-.4 2.6 0 3.6-.5.5-.2.7-.6 1.1-1 0-.3.1-.5.2-.7v-15.8c0-.7.1-1.4-.4-1.8-3.4-.1-4.9 1.8-5.7 4.2 0 1-.2 1.7-.2 2.7-.3.5-1.6.4-2.2.2-.2-1.3-.1-3-.1-4.6 0-1.6-.1-3.3.1-4.6.8-.3 1.9-.1 2.9-.1 1.3 0 2.8-.2 3.9.1 4.4-.2 8.9-.1 13-.3.5-.2 1 0 1.6 0zM320.6 243.6c-.1.8.2 1.6-.1 2.2-1 .4-2.3.1-3.4.1-.4 0-.8.1-1.2.2-2.4.1-5-.1-7.7 0-.3-.7-.1-1.4-.2-2.3 1.1-.5 2.8.1 3.6-.5 1.3-1-.4-3.1-.5-4.5-.3-.6-1-.5-1.8-.4-2 .1-4.6-.1-6.5 0-.3.1-.2.4-.5.6l-.6 1.8c-.2.6-.6 1.2-.6 1.8.1 1.7 2.6 1.1 4.3 1.3.2.6.2 1.7 0 2.3-2.8 0-6.2.1-9.1.2-.3 0-.7-.1-1.1-.1-.7 0-1.1.2-1.5-.2 0-.7-.2-1.7.2-2.2 1.5-.1 2.6 0 3.3-.7.9-.9 1.4-3.4 1.9-4.9.2-.6.5-1.1.7-1.6v-.4c1.7-4.6 3.2-9.5 5-14 1.3-.3 3.2-.1 4.8-.2 0 .1.1.2.2.2.6 1.7 1.4 3.3 1.8 5.3 1.5 3.4 2.7 7.3 4 11 .1.3.3.5.4.8.2.5.2.9.3 1.4.3 1 .8 2 1.5 2.6.8.2 2-.1 2.8.2zm-16.8-7.6c1.7-.3 3.9.3 5.5 0 .1 0 .3-.2.5-.3.2-.7-.2-1.2-.3-1.7v-.3c-.5-1.5-1.1-2.9-1.6-4.3-.3-.9-.7-1.7-.9-2.7-.2 0-.1-.2-.3-.2-.2.3-.4.5-.6.9-.1.4-.2.7-.3 1-.2.7-.4 1.5-.7 2.2-.3 1-.6 1.7-.8 2.6-.4.7-.8 1.7-.7 2.7.1-.1.2-.1.2.1zM252.5 222.1c4.2 0 8.5-.1 12.5.1.3.5.4 1.6.2 2.3-.8.2-2 0-2.9.2-.6.1-.7.6-1.1.8-.3 2.4-.2 6.6-.2 9.4v4.5c0 1.5-.2 2.9.3 4.1.6.3 1.6.1 2.7.1 1 0 2.2.1 3.2 0s1.7-.6 2.3-1c.6-.7 1.1-1.5 1.5-2.6.1-.4.3-.8.3-1.2.1-.9-.1-2 .2-2.8.6 0 1.8-.4 2.2.1.2.4.1 1.7.1 2.4v5.1c0 .8.2 2-.2 2.3-.4.4-2.7.1-3.6.1-6.2 0-12.4.1-17.6-.1-.3-.4-.3-1.7-.1-2.2 1.3-.2 2.7.1 3.5-.7.1-.2.1-.4.3-.5.3-2.2.2-5.6.2-8.3 0-3.1.1-6.1-.2-8.6-.2-.2-.3-.5-.5-.7-.8-.6-2.5.2-3.2-.3-.5-.4-.2-1.6-.1-2.2.1-.2.1-.3.2-.3zM210.4 233.8c.5.8 1.5.7 2.3 1.1.9.6 1.9 1.8 2 3.2.2 1.7-.1 5 1.4 5.4 2.3.7 1-3 1.9-4 .5 0 1.1-.1 1.5.1.5 2.1.2 4.9-1 6.1-1.1 1.1-4.2 1.5-5.8.5-.9-.6-1.6-1.3-1.9-2.5-.3-1.8-.2-4-.5-5.7-.2-1.1-1-1.8-1.6-2.6-1.3-.6-3-.8-5-.7-.2.1-.3.3-.5.4.3 2.3-.4 5.2 0 7.4 0 .3.3.6.4.9.7.8 2.1.5 3.4.7.4.5.4 1.6.1 2.2-4.2.3-8.3.2-12.2.1-.2-.7-.2-1.5 0-2.2 1.2-.3 2.8 0 3.5-.9.7-1 .5-3.4.5-5.3 0-3.8 0-6.6-.2-9.7-.1-1.1.1-2.7-.6-3.2-.7-.6-2.2-.4-3.2-.5-.4-.3-.2-1.5-.2-2 1-.2 2.3-.2 3.6-.2 1.6 0 3.3-.1 4.6.1 2.6 0 5.6-.4 8.2-.1.2 0 .4.1.6.2h.9c.2 0 .5.2.8.3.3.1.6.2.8.3 1.7.8 2.8 2.7 2.9 4.8 0 1.2-.4 2.6-1 3.4-.8 1.1-2.4 1.4-3.9 2-.9-.1-1.5 0-1.8.4zm-7.4-3.6c0 .5 0 1.3.1 1.6.3.6 1.5.4 2.4.4 2.2 0 4.1 0 5.2-1 1.6-1.5 1.4-5-.4-6.1-1.1-.7-2.8-.8-4.4-.6-.9-.2-1.9-.2-2.8.1-.3 1.9-.1 3.9-.1 5.6zM290 222.3c.3.4.2 1.5.2 2.1-.6.5-1.7.1-2.6.2-.6.1-.8.5-1.1.7-.3.5-.4 1.5-.3 2.4 0 1.3.1 2.7.1 4.1 0 1.8.1 3.8.1 5.6 0 1.6-.3 4.4.2 5.4.6 1.3 2.6.6 3.7 1 .1.5.6 1.7 0 2.2-.4.3-1.7.2-2.6.2-3.2 0-7 .1-9.8 0-.3-.4-.3-1.6-.1-2.2.9-.5 2.6.2 3.4-.5.3-.2.2-.6.5-.9-.1-5.6.2-11.7-.2-16.8-.3-.4-.3-.7-.7-.9-.7-.4-2-.2-3-.3-.4-.4-.4-1.9.1-2.2.5-.3 4.2-.2 5-.2 2.2 0 4.8.2 7.1.1zM102 222.7c1.3 2.3 2 5.2 3.1 7.7v.4c1.2 2.7 2.4 6.3 3.6 9.5.2.5.4 1.1.6 1.6.2.5.5 1.2.8 1.5.6.7 2 .7 3.2.7.2.7.3 1.7-.1 2.3-2.4.3-5.3.2-8.1.4-.9.1-1.8-.1-2.5-.1-.6 0-1.4.4-1.8.1-.4-.2-.4-1.7-.2-2.1.4-.7 2.6-.2 3.5-.6.3-.2.5-.5.6-.7.1-1-.2-1.6-.5-2.5-.1-.2-.2-.5-.3-.7-.2-.6-.2-1-.7-1.2-2 0-4 .1-5.8.2-.9 0-1.8-.2-2.3.2-.4.4-1.1 2.6-1.2 3.3-.1.8 0 1.4.5 1.7 1.1.6 2.9-.5 3.8.4 0 .7.2 1.8-.3 2.2-3.2.2-7 .1-10.4.2-.4 0-.7.2-1-.1 0-.5-.4-1.8.1-2.2.4-.3 1.3-.2 2.1-.3 1.5-.3 1.9-2.2 2.4-3.7.4-1.2.8-2.3 1.1-3.4.9-2 1.4-4.3 2.2-6.6.1-.2.1-.3.2-.5.2-.6.5-1.5.7-2.3.4-1.1.8-2.2 1.2-3.4.3-.8.4-1.6 1-2 1.6 0 3.2-.2 4.5 0zm-3 4.4c-.5.3-.5 1-.7 1.7-.1.3-.3.7-.3.9-.1.3-.1.6-.2.9 0 .1-.2.2-.2.3-.1.3-.1.7-.2 1 0 .1-.1.2-.2.3v.3c-.4 1.2-1.1 2.5-1.1 3.9 1.8.8 3.9.4 6.1.3 0-.1.1-.2.2-.2 0-1.1-.5-1.7-.7-2.5-.3-.9-.6-1.7-.9-2.5-.2-.6-.4-1.2-.6-1.5-.1-.3-.1-.6-.2-.8-.2-.6-.6-1.1-.7-1.8-.1-.2-.1-.4-.3-.3zM140.7 224.8c-.5.4-1.7 0-2.4.2-1.8.4-1.2 3.4-1.1 5.2.1 1.9.1 3.9.1 5.8 0 1.8.1 3.6-.2 5.4-.2 1.3-1 2.6-1.9 3.5-1.2 1.1-3.2 1.8-5 2-2.9.5-6.5 0-8.8-1.2-.8-.5-1-1.1-2-1.8-2.1-3.9-.6-11.9-1.3-17.3-.3-.6-.7-1-1.2-1.2-.9-.1-2.2.2-2.8-.2-.1-.5-.1-1.4 0-2 .9-.3 2-.2 3-.3 3-.1 6.7-.1 10 0 .3.5.3 1.5.1 2.1-1.2.4-3.5-.2-4 .9-.1.2-.1.5-.2.6v6.3c0 3.4-.5 7.2.9 9 .8 1 1.8 1.4 3.1 1.9 2.9.2 5-.4 6.2-1.9 1.2-2 .6-6.1.6-8.9v-3.2c0-1.8.2-3.6-.8-4.4-1.1-.3-2.7-.1-3.7-.4.1-.6-.1-1.5.1-2 4.1-.4 7.8-.4 11.4-.2.2.5.1 1.6-.1 2.1zM51.1 232.7c2.5 2.3 3.9 5.7 5.2 9.2v.5c.3 1.2.8 2.3 1.1 3.6.2.8.2 1.5.4 2.3.2 1.1.7 2.6.5 4.3-1.2-.3-1.8-1.3-2.3-2.2-.6-.4-.8-.9-1.1-1.6-.1-.2-.3-.3-.3-.5-.1-.3-.1-.5-.2-.8-.3-.6-.8-1-1.1-1.6-.1-.2-.1-.5-.2-.7-.1-.1-.1-.3-.2-.5-.3-.6-.6-1.5-1.1-2.2-.1-.9-.5-1.9-.7-2.8 0-.9-.1-1.6-.3-2.2.1-1.6-.3-3.7.3-4.8zM44.5 244.2c-1 1-3.2.8-5.3.6-1.7-.2-3.3-.6-4.7-.9-.2-.2-.6-.1-.8-.3-.7 0-1.2-.3-1.7-.6-1.5-.4-2.6-.9-3.9-1.6-.5-.3-1-.7-1.7-1-.4-.2-1.7-.7-1.6-1.1.1-.6 2.2-.3 3.1-.2 1.5.1 2.5.2 4 .4.3 0 .6.3 1 .3.5.1 1 .1 1.4.2.6.1 1.2.4 1.8.6h.4c.9.3 1.7.8 2.6 1.1h.4c.4.1.8.4 1.3.6.6.2 1.1.6 1.8.9.4.2.9.3 1.4.6 0 .1.4.2.5.4zM87.7 264.9c-1.8-.3-2.5-1.6-3.8-2.3-3.7-4-6.8-8.5-8.6-14.2.1-.6-.5-1.1-.1-1.5.1 0 .1-.1.1 0 1.5.7 2.7 1.8 3.7 3 .5.2.7.6 1.1.8 1.2 1.7 2.6 3.4 3.7 5.2 1.1 1.8 2.1 3.8 3.1 5.8 0 .3.1.4.2.6v.4c.2.4.3.8.6 1.2-.1.4.2.7 0 1zM362.4 253.1c-2.9.6-7.4 1.7-11.2 1.2-.2 0-.4-.1-.7-.2-.7-.1-1.6.1-1.6-.5 0-.4 1.7-1.2 2.1-1.3 1-.4 1.6-.6 2.3-1.1 1.2-.2 2.1-.4 3.3-.7.4-.1.7-.3 1.1-.3h.7c.1 0 .2-.1.4-.2h.6c1.2-.2 3-.4 4.5-.4h1.6c.4 0 .7.2 1.1.2.2 0 .4-.1.6-.1.4 0 1.5.3 1.5.6.1.4-.9.8-1.3 1-1.6.7-3.5 1.1-5 1.8zM318.6 250.5c-.3 1.2-.8 2.3-1.4 3.2v.3c-1.7 2.8-3.6 5.4-5.8 7.7-.4.2-.7.4-.9.9-1.3 1.3-2.9 2.3-4.6 3.3h-.3c-.7.3-1.3 1-2.2.9.3-1 .9-1.8 1.5-2.7.8-1.3 1.4-2.4 2.5-3.3 2.9-4.1 6.9-7.3 10.9-10.3.1-.2.1-.1.3 0zM214.2 250.8c2-.6 2 1.9.6 1.9-1 .1-1.7-1.4-.6-1.9zM103.1 267.8c-.4 0-.6-.4-.9-.6-.5-.3-1-.5-1.5-.8-.5-.3-1.1-.5-1.5-.7-.8-.5-1.3-1.1-2-1.8-.4-.4-.9-.7-1.4-1.1-1.2-1.2-2.5-2.5-3.6-3.9-.8-1.1-1.7-2.2-2.4-3.3-.3-.6-.8-1.1-1.2-1.7-.5-.8-.8-1.9-1.5-2.5v-.2l.1-.1c.7.2 1.5.8 2.2 1.1.1 0 .3.1.3.1.2.1.4.4.6.6.3.2.8.4 1.1.6.7.4 1.4.7 2 1.2.3.2.4.5.7.7.7.7 1.5 1.3 2.3 2 .5.5.9 1.1 1.4 1.6.3.3.7.5.9.9.3.3.4.7.7 1.1.7.9 1.3 1.6 1.8 2.5.6.9 1 1.9 1.4 2.9.4.4.9.9.5 1.4zM302.2 255.7c-3 3.9-6.2 7.6-10.5 10.1-.7.6-1.6.9-2.3 1.6-1 .2-1.8.8-2.8 1.1 0-1.2 1.1-1.8 1.2-3 .9-1 1.6-2.4 2.5-3.5.3-.3.7-.5.8-1 .9-.7 1.6-1.6 2.4-2.4.2-.2.5-.2.7-.4.6-.5 1.2-1.2 1.9-1.8.9-.7 2-1.3 2.9-2 1.1-.9 3-1.8 4.5-2.7.3-.2.6-.4 1-.6.8.2.1 1-.2 1.5-.6 1.1-1.7 2.2-2.1 3.1zM211.2 251.5c1.7-.6 1.5 1.7.5 1.8-1 0-1.5-1.5-.5-1.8zM217.5 251.7c.6-.1 1.2.2 1.2.9.1 1.5-2.3.9-2-.3.1-.3.3-.6.8-.6zM239.8 251.9c.3.6-.5 1-.5 1.6-.9 1-1.3 2.1-2 3.1-1.4 1.9-3.2 3.5-4.9 5.1-.9.9-2 1.6-2.8 2.6-2.1 1.3-4 2.8-6.4 3.9-.3.3-.7.4-1 .7-.7 0-1.2.6-1.6.6.2-.5.6-.8.9-1.2.3-.4.5-.9.7-1.4 1.9-2.5 3.7-5 6.1-7.1 2-2.9 5.3-4.3 7.8-6.6 1.2-.4 2.1-1.1 3.7-1.3zM275.2 252c.1.7-.5 1.2-.8 1.7-.4.5-.7 1-1 1.5-.9.9-1.6 2-2.6 2.9-.7 1.4-2 2.1-3.2 3.1-1.4 1.2-2.9 2.4-4.3 3.7-.7.3-1.3.8-1.9 1.3-.2.2-.4.4-.6.5-.8.6-1.8.8-2.4 1.6-.8.1-1.1.8-1.9.7.1-1.1.8-2 1.3-2.8.5-.8 1-1.7 1.6-2.5.6-.7 1.4-1.4 2-2 .7-.7 1.4-1.3 2-2.1.5-.3 1-.8 1.4-1.2 3.2-2.2 6.2-4.6 10-6.2 0-.1.1-.1.2-.2h.2zM150.1 269.6c-.5.3-.8-.3-1.4-.2-1.2-.7-2.4-1.5-3.5-2.3-1.2-.7-2.5-1.2-3.4-2.2h-.3c-.6-.6-1.7-1.2-2.5-1.7-.7-.4-1.1-1-1.7-1.5-.5-.4-1.1-.9-1.6-1.4-.5-.5-.9-1.1-1.4-1.5l-.6-.3c-.6-.5-1-1.4-1.6-2.1-.6-.7-1.3-1.3-1.8-1.9-.4-.5-.6-1-.9-1.4-.2-.3-.6-.4-.6-.8.7-.2 1.1.4 1.8.4.3.2.6.5 1.1.5 1.2.8 2.6 1.3 3.9 2 1.3.6 2.3 1.7 3.7 2.2 1.8 1.2 3.4 2.7 5 4.2 0 .2.2.2.2.5.6.5 1.1 1.2 1.8 1.7.9 1.5 2.2 2.8 3.1 4.3.2.4.6.9.7 1.5zM181.3 269.3c-.1.4-.6.5-.9.3-2-.9-4.3-2.9-6.1-4-.6-.4-.9-1-1.5-1.5-.5-.4-1-.7-1.5-1.2-.4-.5-1-.8-1.4-1.2-.1-.2-.3-.5-.5-.7-1.1-1.4-2.2-2.9-3.3-4.4-.4-1-1.1-1.8-1.5-2.8-.3-.3-1.1-1.2-.3-1.5.3 0 .3.2.5.4 1.4.7 2.7 2 4.1 2.8.4.2.7.3 1 .6.6.4 1.2.9 1.8 1.4l.9.6c.3.3.5.7.9.9.6.5 1.3.8 1.8 1.5 1.9 2.3 4.2 4.4 5.3 7.6.3.3.4.8.7 1.2zM57.1 254.7c-.3 1.2-2 .9-2.7 1.6-.6.1-1.1.1-1.9.2-1.2.1-2.4.6-3.6.6-.2 0-.5-.1-.7-.2-1.2-.1-2.4-.1-3.6-.2-.5-.1-.9-.2-1.4-.3-.5-.1-1.1 0-1.6-.1-.8-.1-1.5-.5-2.3-.7-1-.2-1.9-.4-2.7-.6-.6-.5-1.7-.5-2.2-1.1.3-.6 1.5-.4 1.9-.9 3.3-.6 6.8-.5 10.4-.2h1.6c2.3.2 4.6.6 6.5 1.1.9.2 1.8.3 2.3.8zM166.3 269.7c-3.7-1.4-6.4-3.8-9.6-5.7-1.2-1-2.3-1.9-3.5-2.9-1.1-1-2-2.3-2.9-3.5-.6-.8-1.4-1.4-2-2.2-.3-.4-.5-.9-.8-1.3-.3-.4-.7-.8-.7-1.4.1 0 .1-.2.2-.2.4.1.8.3 1.2.3 2.2 1.2 4.5 2.3 6.6 3.6.3.2.6.5.9.7.3.2.7.4 1 .6 2.5 1.9 4.8 4 6.9 6.3 1.1 1.6 2.6 3 3.1 5.2-.2.3-.2.5-.4.5zM257.3 253.1c-.9 1.8-2.2 3.4-3.3 5-.4.6-.9 1-1.3 1.5s-.7 1.1-1.2 1.5c-.2.2-.5.4-.7.6-.5.4-1.1.9-1.6 1.4-.8.4-1.2 1-1.9 1.5-.2.1-.5.2-.7.3-.4.2-.8.6-1.1.8-.3.2-.7.2-1 .4-.8.5-1.7 1-2.6 1.5-.2.1-.3.1-.5.2-.4.3-1 .6-1.6.8h-.4c-.2.1-.6.3-.9.2.6-1.4 1.7-2.7 2.8-3.8.2-.3.4-.7.7-.9.9-1.4 2.4-2.5 3.6-3.7 1.8-1.7 3.9-3.3 6.2-4.6 1.4-1.3 3.7-1.9 5.2-3.1.2.2.2.4.3.4zM208.6 255c-.1-.9.1-1.4.5-1.8 1-.3 1.5.4 1.3 1.2-.1.8-1.2 1.2-1.8.6zM118.4 269.3c-1.6.2-2.8-1.1-4-1.8-1-.6-2-1-2.9-1.7-.9-.6-1.8-1.3-2.7-1.9-.9-1.2-2.2-1.9-2.9-3.2-1.2-1.1-2.2-2.5-3.1-4-.6-1-1.3-1.9-1.6-3.1 0-.1 0-.1.1-.1l.1-.1c.5.2.8.5 1.4.6.2.3.6.3.7.7 1.3.7 2.5 1.5 3.7 2.2.5.3.9.9 1.4 1.2.3.2.6.2.9.3 1 .6 1.9 1.7 2.8 2.5l.9.9c.6.6 1.3 1.2 1.8 1.9.6.7 1.1 1.7 1.6 2.4.4.5.6 1.1 1 1.6.3.5.8.9.8 1.6zM220.1 253.8c.6.4.5 1.6-.2 1.8-1.1.3-1.8-2.2.2-1.8zM213.9 254c.7-.2 1.2.2 1.9.1.7.5 1.5.7 1.9 1.5.2.4.4 1 .5 1.4.2 1.2-.3 2.2-.6 3.2-.9 1-2.7 1.7-4.5 1.1-.8-.6-1.7-1.1-2-2.3 0-.4 0-.7-.2-.9-.1-1.1.3-1.8.5-2.6.8-.5 1.4-1.3 2.5-1.5zM208.8 256c1.3-.2 1 2.2.2 2.3-.6.1-1.3-.5-1.2-1.1-.1-.6.5-1.1 1-1.2zM221 256.5c.6.5.2 1.8-.5 1.8-1.1.1-1.4-2.3.5-1.8zM205.6 259c-.2-.1-.2-.4-.4-.5-.3-1.5 2.2-1.6 1.8.1-.1.1-.3.2-.4.4h-1zM204 258c.4 1.4-1.4 1.7-2 1.1-.3-1.3 1.3-1.8 2-1.1zM193.7 259.3c.3 1.8-2.1 1.5-2.2.4 0-1.2 1.7-1.2 2.2-.4zM219.9 259.1c.5-.2.9.1 1.2.3v1c-.3.2-.5.6-.9.6-.8-.1-1.1-1.6-.3-1.9zM190.1 259.4c.2.8-.2 1.3-.6 1.6-.8.1-1.1-.2-1.4-.6-.2-1.3 1.4-1.6 2-1zM209 259.4c2-.4 1.7 2.1.2 2-.9 0-1.1-1.7-.2-2zM200.7 259.8c1.2-.1.9 2.6-.6 2.2-.1-.2-.2-.3-.4-.4-.3-1.1.1-1.8 1-1.8zM204.9 260c1.6 0 3.7 1.1 3.9 2.6.2 1 0 2-.4 2.7-.4.6-1.5 1.4-2.2 1.5-.7.1-1.3-.2-2-.2-.4-.3-.9-.6-1.3-1-.3-.3-.7-1-.7-1.4-.5-2.4.9-3.9 2.7-4.2zM195.1 260.2c1.2-.6 2.3 1.9.7 1.9-.8 0-1.6-1.5-.7-1.9zM187.1 261.2c.5 0 1 .5.9 1.2-.1.8-1.7 1.1-1.9.3-.2-.6.3-1.5 1-1.5zM219.4 261.2c.4.3.4 1 .2 1.5-.4.7-1.5.2-1.6-.5.2-.6.5-1.1 1.4-1zM211.3 263.8c-1.2 0-1.4-1.8-.6-2.3 1.8-.3 2.2 2.1.6 2.3zM191.2 261.8c1-.2 1.9.3 2.6.8.3.3.8.9.9 1.4.4 2.1-.9 4.1-2.9 4.2-1.1 0-2.5-.9-2.8-1.8-.2-.5-.3-1.3-.2-2.1 0-1.1 1.1-2.3 2.4-2.5zM69.7 262.1c.1.2-.2.5-.2.8-2 1.6-4.2 2.9-7 3.7-1.6 0-3.2.7-4.8.9-.7.1-1.5 0-2.3 0-1.8 0-3.2-.1-4.9-.3-.8-.1-1.6-.5-2.3-.6-.5-.1-1.3.2-1.4-.6.9-.4 2.1-.6 3.2-.8.6-.4 1.4-.5 2-.7.4-.1 1-.2 1.6-.3.8-.2 1.4-.4 2.4-.6.4 0 .7-.3 1.1-.3h.5c.4-.1.8-.3 1.2-.4h.8c3.2-.4 6.8-.7 10.1-.8zM213.2 264c-.3-1.3 1.2-1.7 1.8-1.1 1.1 1-1.1 2.7-1.8 1.1zM217.6 263.1c.2 1.4-1.8 1.5-1.8.4 0-1 1.3-1.1 1.8-.4zM196.7 263.2c1.1 0 1 1.9 0 2-.9 0-1.3-2 0-2zM199.7 263.4c1.9-.6 2.1 2.5.1 2.1-.7-.3-1-1.9-.1-2.1zM187.1 264.8c1 .5.1 2.5-.9 2.2-.4-.1-.8-1-.6-1.6.2-.6.7-.7 1.5-.6zM209.9 265c.8-.2 1.3.4 1.1 1.4-.1.4-.7 1-1.2.9-1.2-.1-.7-2 .1-2.3zM339.5 272.6c-.4.3-1 .3-1.5.2-1.7-.2-3.7-.3-5.2-.7-2.5-.4-4.7-1.1-6.7-2.3-1.7-1-3.3-1.8-4.5-2.8-.4-.3-.8-.8-.9-1.4.6-.2 1.5 0 2.4.1 1.5.2 2.8.1 3.8.6 1.1.2 2.2.6 3.2 1 2.1.7 4 1.5 5.8 2.6.4.2.9.5 1.3.8.9.6 1.9.9 2.3 1.9zM202.1 266.1c.2.3.4.7.3 1.2-.2.9-1.9.7-1.8-.3.1-.7.7-1.1 1.5-.9zM195.5 266.5c.1-.1.5 0 .7-.1.6.4.5 1.6-.1 1.8-.7.3-1.4-.4-1.2-1.2.3-.2.4-.4.6-.5zM187.5 267.5c1.1-.2 1.8 1.4.9 2.1-1.4.3-1.9-1.6-.9-2.1zM85.7 267.6c.1 1.6-1.6 1.8-2.7 2.7-.9.7-1.9 1.4-3 2-.4.2-.9.4-1.4.6-.5.2-.9.5-1.3.6-.3.1-.7.1-1 .2-.7.2-1.3.6-2 .7-.3.1-.6 0-.8.2-1 0-1.9.4-3.1.5-1.2.1-2.9.1-4 .1s-3.2.1-1.8-.8c.7-.4 1.6-.6 2.2-1.2.6-.2 1.2-.5 1.8-.8.6-.3 1.3-.4 1.9-.7.6-.2 1.1-.6 1.7-.9 2.1-.9 4.7-1.5 7.1-2.2.6 0 1-.2 1.4-.3 1.8 0 3.3-.8 5-.7zM207.2 267.7c.6-.1 1.1.4 1.1 1-.1.9-1.8 1.1-2 .1-.1-.6.3-1 .9-1.1zM203.6 267.9c1.9-.5 1.7 2.3 0 1.6-.4-.3-.5-1.4 0-1.6zM195 269.3c-.2.8-.7 1.3-1.8 1.2-1.4-.7-.1-2.4 1.4-1.8.1.2.2.5.4.6zM323 279.2c-1.2.3-2.3-.3-3.3-.6-.9-.3-1.9-.7-2.7-1-.8-.3-1.5-.5-2-1.1-2.6-1-5-2.2-7-3.8-.8-.4-1.8-1.1-2.6-1.8-.3-.3-1.2-1.2-.5-1.4.3.3 1.1 0 1.4.3.6-.1.8.2 1.4.2.2.2.8.1 1 .4h.5c3 1.3 6.3 2.3 8.6 4.3 1.7.8 2.8 2 4.2 3.1.3.4.8.8 1 1.4zM101.8 270.7c-.5 1.1-1.6 2.1-2.5 3.1-1.1.4-1.7 1.4-2.7 1.9-1.5 1-3.2 1.9-4.9 2.8-.3.1-.7.2-1.1.3-.4.1-.7.4-1 .5-.7.2-1.5.2-2.1.6H87c-.5.2-1.3.2-1.7.6-.4 0-.7.1-1.2.2-.9.1-1.6.8-2.3.6.6-.9 1.5-1.7 2.4-2.4 1.6-1.4 3.6-2.8 5.4-4 .1-.2.3-.1.3-.3 2.1-1.1 4-2.3 6.4-3.1 1.1.1 2.1-.4 3.2-.6h1c.3-.1.9-.6 1.3-.2zM307.4 285.1c-.8.5-1.4-.5-2.3-.5-2.6-1.1-5-2.4-7.3-3.8-.9-.5-1.7-.9-2.3-1.6-1.9-1.1-3.2-2.6-4.6-4.2-.2-.6-.8-1.5-1.3-2.1-.3-.4-.6-.8-.2-1.1.7.1 1.1.6 1.9.6.8.6 1.7.8 2.5 1.2 1.7 1 3.6 1.7 5.1 2.9.2.2.4.5.6.7 1.7 1.4 3.5 2.5 4.9 4.1.1.2.2.3.2.5.5.3.8.7 1.2 1 .6.8 1.3 1.3 1.6 2.3zM116.5 272.2c.1.8-.5 1.1-1 1.6-1 1.2-2 2.4-3.2 3.3-.5.4-.8.9-1.2 1.2-.5.4-1.2.7-1.6 1.3-1.3.9-2.7 1.7-4.2 2.6-1.1.6-2 1.4-3.1 1.8-.3.1-.6.1-.9.2-.5.2-.9.6-1.4.7-.6.2-1.3.3-2.1.4.1-.8.8-1.2 1.3-1.6.9-.9 1.7-1.9 2.6-2.8.9-.9 1.7-1.9 2.7-2.6 1.8-2.1 4.5-3.3 6.9-4.8 1.7-.2 3-1 4.6-1.1.1-.1.4-.1.5-.2h.1zM256.8 287.7c-.3.4-.7-.1-.9-.2-.3-.2-.7-.3-1-.5-1.9-.9-3.9-2.1-5.8-3-2-1.5-4-3.2-5.9-5.1-1.5-1.6-2.9-3.4-4.1-5.6-.2-.4-.5-.8-.3-1 0-.1.1-.1.2-.1 1.9.4 3.4 1.5 4.9 2.4 1.1.6 2.3 1.3 3.2 2 .4.3.6.9 1.2 1.1 1.2 1.2 2.5 2.2 3.7 3.5.7.7 1.2 1.5 2 2 .1.4.4.4.5.9.6.7 1.1 1.7 1.6 2.5.2.4.7.7.7 1.1zM290.7 286.7c-.4.4-.7-.2-1.3-.1-1.9-.9-3.9-1.8-5.8-2.5-2-.7-3.6-2-5.4-2.9-.1-.2-.4-.4-.7-.5-1.3-1.1-2.5-2.4-3.8-3.6-.9-1.6-2.2-2.7-2.7-4.6l.1-.1c.4.1.9.1 1.3.2.9.3 1.6.7 2.4 1.1.6.3 1.2.5 1.8.7.7.3 1.5.9 2.3 1.4 2 1.2 3.7 2.5 5.4 4 2.1 1.8 4.1 3.5 5.8 5.7.3.3.8.6.6 1.2zM132 272.4c.3.2.5.8.5 1.1 0 .1-.4 1.1-.6 1.4-.2.3-.5.5-.7.8-.2.3-.4.6-.6.8-.4.5-1 .9-1.5 1.4-.4.4-.7.8-1.1 1.2-2 1.8-4.1 3.5-6.9 4.7-2.2.9-4.4 1.9-6.7 2.7-.2.1-.5 0-.8.1-.5.1-1 .6-1.5.3.1-.5.6-.8.9-1.1.4-.3.7-.6 1.1-1 .7-.7 1.3-1.5 2-2 .4-.3.8-.3 1-.8.1 0 .1-.1.3-.1.7-.8 1.7-1.4 2.6-2.1.9-.6 1.8-1.4 2.8-1.9 1.3-1 2.9-1.7 4.1-2.7 1.7-.7 3.1-1.8 4.8-2.5 0-.1.1-.1.1-.2.1-.1.2-.1.2-.1zM257.4 272.5c.8.1 1.2.6 1.9.7 1.2.9 2.6 1.5 3.8 2.4.7.5 1.5 1 2.2 1.5.6.4 1.1 1 1.8 1.5.2.2.5.2.7.4.4.3.7.7 1.1 1.1.9.8 1.6 1.6 2.6 2.4 1 .9 1.8 2 2.7 3 .4.5 1 1 1.1 1.7-1 .3-1.9-.5-2.7-.9-.9-.4-1.9-.6-2.6-1.2-.3 0-.5-.1-.7-.2-1.7-.9-3.6-2.1-5.2-3.3-1.7-1.2-2.8-2.6-4.3-4.3-.4-.4-.8-1.1-1.1-1.7-.6-1-1.2-1.6-1.2-3-.1 0-.1 0-.1-.1zM148.4 272.8c.2.2 0 .6-.2.7-.1.6-.2 1.2-.6 1.7-.1.2-.3.2-.5.4-1.4 1.8-2.6 3.8-4.4 5.3-2.2 1.8-4.5 3.8-7.4 5-1.3.7-3 1.3-4.6 1.6-.5.1-1.1.6-1.8.2 1.4-1.7 3-3.3 4.6-4.9.8-.8 1.7-1.4 2.6-2.2.9-.7 1.7-1.5 2.7-2 2.4-1.9 5-3.6 7.5-5.4 1 .1 1.3-.4 2.1-.4zM204.4 274.3c.4.2.6.7.5 1.4-.5.6-1.5.4-1.8-.2-.1-.9.4-1.3 1.3-1.2zM198 275.1c.3.6.3 1.7-.2 2-.8.5-1.9-.1-1.6-1.3.5-.3.9-1 1.8-.7zM212.2 275.4c.6-.1 1 .2 1 .9-.1.9-1.7 1-1.9.1-.1-.6.2-.9.9-1zM206.1 275.6c.1-.1.5 0 .7-.1.9.6.5 2-.5 1.9-.7 0-1.3-1.5-.2-1.8zM208.5 277.6c-.4-1.9 2.6-1.8 2-.1-.4.7-1.6.8-2 .1zM214.5 276.2c1.9-.7 1.9 2 .3 1.6-.6-.2-1.1-1.3-.3-1.6zM201.6 277.4c1.9 0 3.7.7 4.1 2 .4 1.2-.6 1.6-.7 2.6 0 .4 0 .9.2 1.2.1.3.3.4.3.7 0 .5-.5 1.2-.9 1.4-.1.1-.3.1-.5.2-.3.2-.6.6-1 .7-1.5.6-3.9-.1-4.9-1-.4-.4-1-1.5-1.1-2.2-.3-3 1.1-5.5 4.5-5.6zM191.7 279.7c-1.2-.1-1.2-2.5.5-2.2.9.7.7 2.1-.5 2.2zM195 277.8c.2-.1.5 0 .8-.1l.4.4c.6 1.9-1.9 2.4-2 1 0-.6.4-1 .8-1.3zM217.8 277.9c.5.8.2 1.9-.7 1.8-1.5-.2-.8-2.4.7-1.8zM212.5 278.4c0-.1 0-.1 0 0 1.4.1 2.3.8 3 1.6 1.2 2.9-.4 6-3.2 5.7-1.9-.2-3.4-1.6-3.1-4.3 0-.1.1-.1.2-.3v-.5c.4-1.1 1.6-2 3-2.2h.1zM207.2 278.5c1.9-.4 2 1.7.8 2.1-1.1.2-1.5-.4-1.4-1.5.2-.1.4-.4.6-.6zM189.1 280.8c-.6-.2-1.2-.5-1.2-1.1.1-.9 1.5-1.3 2-.4.2.9-.2 1.3-.8 1.5zM218.7 282.2c-.2.6-1.4.7-1.6.1-.3-1 .4-2 1.1-1.6.4.1.6.6.5 1.5zM186.9 280.7c.6-.1 1.1.4 1.1 1 0 1.3-1.9 1.5-2 .3-.1-.7.4-1.2.9-1.3zM194.9 281c1 .7.7 3.1-1 2.9-1-.8-.5-3 1-2.9z"/>
    <path d="M192.6 281.1c.2 1-.4 2.2.1 3 .3.5.9.5 1.4.8 0 .8-.1 1.3 0 1.9.2.8 1 1 1.4 1.5-.3.8-.6 1.2-1.5 1.5-1.5.4-3.6.2-4.6-.9-1-1.1-1.3-3-.9-5.2.7-1.5 2-2.5 4-2.7 0 .1 0 .1.1.1zM206.4 281.4c.8-.2 1.6.3 1.8.9.1.7-.4 1.4-1.1 1.4-1-.1-1.7-1.7-.7-2.3zM184.9 285.5c-.1-1.2.4-1.9 1.4-1.6.7.2.7.9.6 1.8-.4.7-1.7.6-2-.2zM217.8 283.9c1 .8.1 2.4-1.1 2.3-.9-.8-.3-2.5 1.1-2.3zM208 284.7c1.4-.2 1.8 2.5.2 2.3-1-.2-1.5-2.1-.2-2.3zM195.6 284.8c.8-.1 1.3.5 1.7 1 .2 3.1-3.6.5-1.7-1zM205.5 285.7c.2-.1.4.2.9.1 1 .6.5 2.5-.7 2.2-1-.1-1.2-1.9-.2-2.3zM209.5 287.4c.2-.3.2-.7.4-.9.8-.8 2.4.2 2 1.3-.3.9-2.3.8-2.4-.4zM215.5 286.8c.3 1.3-1.1 1.8-1.9 1.3-.7-1.2 1-2.1 1.9-1.3zM198.8 287c1.5-.5 1.9 1.6.9 2.3-.8.1-1.2-.2-1.6-.6-.2-.8 0-1.6.7-1.7zM203.4 287.3c1.2.9.3 2.6-1.1 2.2-.3-.1-.9-.5-.9-1 .1-.6 1-1.5 2-1.2zM186.3 287.5c.5-.1 1.2.4 1.3.9.2 1.1-.8 1.7-1.5 1.4-.8-.3-1-2.1.2-2.3zM196.6 288.9c.2 0 .3-.1.5 0 .4.2.6 1.1.2 1.5-.2.2-.6.3-.9.3-.8-.1-.9-1.7.2-1.8zM188.3 289.9c1.6-.4 1.4 2.8-.5 2.3-1.1-.4-.3-2.1.5-2.3zM194.5 290.6c1.3-.3 1.3 2 .4 2.1-1.1.2-1.6-1.8-.4-2.1zM191.7 292.8c-.3-.4-.7-.9-.5-1.6.1-.5.9-.8 1.4-.6.6.3.7 1.6.1 2-.4.2-.7.1-1 .2z"/>
  </g>
</svg>
