<?xml version="1.0" encoding="utf-8"?>
<!-- Generator: Adobe Illustrator 17.1.0, SVG Export Plug-In . SVG Version: 6.00 Build 0)  -->
<!DOCTYPE svg PUBLIC "-//W3C//DTD SVG 1.1//EN" "http://www.w3.org/Graphics/SVG/1.1/DTD/svg11.dtd">
<svg version="1.1" id="Layer_1" xmlns="http://www.w3.org/2000/svg" xmlns:xlink="http://www.w3.org/1999/xlink" x="0px" y="0px"
	 width="410px" height="60px" viewBox="0 0 410 60" enable-background="new 0 0 410 60" xml:space="preserve">
<g>
	<path d="M12.6,42.4c-0.2,1.1,0.2,2.7,0.7,3.5C13.5,44.9,13.1,43.1,12.6,42.4"/>
	<path d="M14.6,44.6c-0.1,1.1,0.5,2.6,1.1,3.4C15.9,46.9,15.2,45.1,14.6,44.6"/>
	<path d="M16.9,45.7c-0.1,1.2,0.6,2.9,1.3,3.7C18.4,48.2,17.6,46.3,16.9,45.7"/>
	<path d="M19.3,47c0.1,1.2,1.1,2.7,1.9,3.4C21.2,49.2,20,47.5,19.3,47"/>
	<path d="M21.8,48.1c0.3,1.2,1.6,2.5,2.5,3C24,49.9,22.6,48.4,21.8,48.1"/>
	<path d="M24.3,48.5c0.4,1.1,1.8,2.4,2.7,2.8C26.7,50.1,25.2,48.7,24.3,48.5"/>
	<path d="M26.8,48.2c0.6,1.3,2.2,2.6,3.3,3.1C29.6,50,27.8,48.5,26.8,48.2"/>
	<path d="M29.5,48.1c0.7,1.3,2.5,2.7,3.7,3.2C32.6,49.9,30.5,48.4,29.5,48.1"/>
	<path d="M32.7,48.1c0.7,1.3,2.5,2.7,3.7,3.2C35.8,49.9,33.7,48.4,32.7,48.1"/>
	<path d="M36,48.2c0.5,1.3,2,2.6,3.1,3.1C38.6,50,36.9,48.5,36,48.2"/>
	<path d="M32.9,54.5c1.2-0.5,2.5-1.9,2.9-3C34.7,52,33.2,53.6,32.9,54.5"/>
	<path d="M29.6,54.5c1.4-0.4,3-1.8,3.6-2.9C31.8,51.9,30,53.5,29.6,54.5"/>
	<path d="M26.4,54.4c0.7-1.2,2.4-2.4,3.6-2.7C29.3,52.9,27.4,54.2,26.4,54.4"/>
	<path d="M23.6,54c0.6-1.1,2.2-2.1,3.3-2.4C26.3,52.7,24.5,53.9,23.6,54"/>
	<path d="M20.7,53.2c0.7-0.9,2.4-1.7,3.4-1.8C23.4,52.3,21.6,53.2,20.7,53.2"/>
	<path d="M17.5,52.1c0.9-0.8,2.6-1.3,3.7-1.3C20.3,51.6,18.4,52.2,17.5,52.1"/>
	<path d="M14.2,50.5c1-0.7,2.9-0.9,4-0.7C17.2,50.4,15.1,50.7,14.2,50.5"/>
	<path d="M11.8,48.3c1.1-0.5,2.9-0.3,3.9,0C14.7,48.8,12.6,48.7,11.8,48.3"/>
	<path d="M9.7,45.6c1,0.7,2.8,1.1,3.9,1C12.7,45.8,10.6,45.4,9.7,45.6"/>
	<path d="M42.9,54.3c0.4,0,0.8-0.4,0.8-0.8c0-0.5-0.4-0.8-0.8-0.8c-0.4,0-0.8,0.4-0.8,0.8C42.1,53.9,42.5,54.3,42.9,54.3"/>
	<path d="M45.3,49.7c0.4,0,0.7-0.3,0.7-0.7c0-0.4-0.3-0.7-0.7-0.7c-0.4,0-0.7,0.3-0.7,0.7C44.6,49.4,44.9,49.7,45.3,49.7"/>
	<path d="M43.3,52c-2.7,0-4.1,1.1-5.1,1.7H37c0.8-0.6,4.2-2.1,4.6-2.1c-2.1,0-6.5,0-13.4,0c-10.5,0.1-14.5-4.8-16.1-6.8
		c1.3,1.4,5.6,6.6,16.1,6.5c10.5-0.1,15,0,15,0s4.1-0.1,14.6,0c10.5,0.1,14.8-5.1,16.1-6.5c-1.6,1.9-5.6,6.8-16.1,6.8
		c-6.8,0-10.9,0-13,0c0.5,0,3.8,1.5,4.7,2.1h-1.2C47.3,53,46,52,43.3,52"/>
	<path d="M73.6,42.4c0.2,1.1-0.2,2.7-0.7,3.5C72.6,44.9,73.1,43.1,73.6,42.4"/>
	<path d="M71.5,44.6c0.1,1.1-0.5,2.6-1.1,3.4C70.3,46.9,70.9,45.1,71.5,44.6"/>
	<path d="M69.2,45.7c0.1,1.2-0.6,2.9-1.3,3.7C67.8,48.2,68.5,46.3,69.2,45.7"/>
	<path d="M66.8,47c-0.1,1.2-1.1,2.7-1.9,3.4C65,49.2,66.1,47.5,66.8,47"/>
	<path d="M64.3,48.1c-0.3,1.2-1.6,2.5-2.5,3C62.1,49.9,63.5,48.4,64.3,48.1"/>
	<path d="M61.8,48.5c-0.4,1.1-1.8,2.4-2.7,2.8C59.5,50.1,61,48.7,61.8,48.5"/>
	<path d="M59.3,48.2c-0.6,1.3-2.2,2.6-3.3,3.1C56.5,50,58.3,48.5,59.3,48.2"/>
	<path d="M56.7,48.1c-0.7,1.3-2.5,2.7-3.7,3.2C53.6,49.9,55.6,48.4,56.7,48.1"/>
	<path d="M53.5,48.1c-0.7,1.3-2.5,2.7-3.7,3.2C50.4,49.9,52.4,48.4,53.5,48.1"/>
	<path d="M50.2,48.2c-0.5,1.3-2,2.6-3.1,3.1C47.6,50,49.2,48.5,50.2,48.2"/>
	<path d="M53.2,54.5c-1.2-0.5-2.5-1.9-2.9-3C51.5,52,52.9,53.6,53.2,54.5"/>
	<path d="M56.6,54.5c-1.4-0.4-3-1.8-3.6-2.9C54.3,51.9,56.1,53.5,56.6,54.5"/>
	<path d="M59.8,54.4c-0.7-1.2-2.4-2.4-3.6-2.7C56.8,52.9,58.8,54.2,59.8,54.4"/>
	<path d="M62.5,54c-0.6-1.1-2.2-2.1-3.3-2.4C59.9,52.7,61.6,53.9,62.5,54"/>
	<path d="M65.5,53.2c-0.7-0.9-2.4-1.7-3.4-1.8C62.7,52.3,64.6,53.2,65.5,53.2"/>
	<path d="M68.6,52.1c-0.9-0.8-2.6-1.3-3.7-1.3C65.8,51.6,67.8,52.2,68.6,52.1"/>
	<path d="M72,50.5c-1-0.7-2.9-0.9-4-0.7C68.9,50.4,71.1,50.7,72,50.5"/>
	<path d="M74.3,48.3c-1.1-0.5-2.9-0.3-3.9,0C71.5,48.8,73.5,48.7,74.3,48.3"/>
	<path d="M76.4,45.6c-1,0.7-2.8,1.1-3.9,1C73.4,45.8,75.5,45.4,76.4,45.6"/>
	<path d="M41,50.9c0.3,0,0.5-0.3,0.5-0.6c0-0.3-0.2-0.6-0.5-0.6c-0.3,0-0.5,0.3-0.5,0.6C40.5,50.7,40.7,50.9,41,50.9"/>
	<path d="M43.7,50.6c0.3,0,0.6-0.3,0.6-0.6c0-0.3-0.3-0.6-0.6-0.6c-0.3,0-0.6,0.3-0.6,0.6C43.1,50.3,43.4,50.6,43.7,50.6"/>
	<path d="M44.9,54.1c0.3,0,0.6-0.3,0.6-0.6c0-0.3-0.3-0.6-0.6-0.6c-0.3,0-0.6,0.3-0.6,0.6C44.4,53.8,44.6,54.1,44.9,54.1"/>
	<path d="M41.1,55c0.4,0,0.8-0.3,0.4-0.9c-0.2-0.3,0-0.6-0.4-0.6c-0.4,0-0.7,0.3-0.7,0.7C40.4,54.7,40.7,55,41.1,55"/>
	<path d="M24.1,42.6h0.4l1.5,3.6c0.1,0.3,0.2,0.4,0.6,0.4V47h-2.1v-0.3c0.1,0,0.3,0,0.4-0.1c0.1-0.1,0-0.2,0-0.3l-0.3-0.7h-1.5
		c-0.1,0.2-0.2,0.4-0.2,0.6c0,0.3,0.3,0.4,0.6,0.4V47h-1.7v-0.3c0.5,0,0.7-0.5,0.9-0.9L24.1,42.6z M24.5,45.3l-0.6-1.5l-0.6,1.5
		H24.5z"/>
	<path d="M26.8,42.7h2.3V43c-0.2,0-0.4,0-0.6,0.1c-0.1,0.1,0,0.2,0,0.3v2c0,0.2,0,0.6,0.1,0.8c0.1,0.2,0.2,0.3,0.4,0.4
		c0.2,0.1,0.4,0.1,0.6,0.1c0.3,0,0.7-0.1,0.9-0.4c0.2-0.3,0.2-0.6,0.2-0.9v-1.5c0-0.3,0-0.6-0.4-0.7c-0.1,0-0.2,0-0.3,0v-0.3h1.7V43
		c-0.6,0-0.6,0.3-0.7,0.8v1.7c0,0.2,0,0.4-0.1,0.6c-0.1,0.4-0.4,0.7-0.7,0.8c-0.3,0.1-0.7,0.2-1,0.2c-0.4,0-1-0.1-1.3-0.3
		c-0.4-0.3-0.5-0.7-0.5-1.1v-2.4c0-0.1,0-0.1-0.1-0.2c-0.1,0-0.4,0-0.5,0V42.7z"/>
	<path d="M32.6,45.4h0.3c0.2,0.7,0.8,1.4,1.6,1.4c0.4,0,0.9-0.2,0.9-0.7c0-0.4-0.3-0.6-0.6-0.6l-0.4-0.1c-0.4-0.1-0.8-0.2-1.2-0.4
		c-0.3-0.2-0.5-0.6-0.5-1c0-0.9,0.7-1.4,1.6-1.4c0.4,0,0.7,0.1,1,0.3l0.3-0.3h0.3l0.1,1.6h-0.3c-0.2-0.6-0.7-1.3-1.5-1.3
		c-0.4,0-0.8,0.2-0.8,0.6c0,0.4,0.4,0.5,0.7,0.6l0.4,0.1c0.9,0.2,1.7,0.4,1.7,1.5c0,0.4-0.2,0.8-0.5,1.1c-0.3,0.2-0.7,0.3-1.1,0.3
		c-0.4,0-0.9-0.1-1.2-0.4l-0.4,0.4h-0.3L32.6,45.4z"/>
	<path d="M36.9,44.3l0.1-1.6h4l0.1,1.6h-0.3c-0.1-0.6-0.4-1.3-1-1.3c-0.1,0-0.2,0-0.2,0.1c0,0.1,0,0.2,0,0.3v3c0,0.2,0,0.3,0.2,0.3
		c0.1,0,0.3,0,0.5,0V47h-2.4v-0.3c0.2,0,0.4,0,0.5,0c0,0,0.1-0.1,0.1-0.1c0-0.1,0-0.2,0-0.2v-3c0-0.1,0-0.2,0-0.3
		c0-0.1-0.1-0.1-0.2-0.1c-0.7,0-1,0.8-1,1.3H36.9z"/>
	<path d="M44.1,42.7l0.4,0c0.4,0,0.7,0,1,0.2c0.3,0.2,0.4,0.5,0.4,0.8c0,0.7-0.6,1-1.3,1.1c0.5,0.1,0.8,0.4,0.9,0.9l0.1,0.4
		c0,0.1,0.1,0.3,0.1,0.4c0,0,0,0,0.1,0.1c0.3,0.1,0.3-0.4,0.4-0.6h0.3c0,0.1,0,0.2,0,0.4c-0.1,0.5-0.5,0.7-1,0.7
		c-0.3,0-0.5-0.1-0.7-0.3c-0.2-0.2-0.2-0.4-0.2-0.6l0-0.4c0-0.5-0.1-0.9-0.6-0.9c-0.1,0-0.2,0-0.3,0h-0.2v1.4c0,0.1,0,0.1,0,0.2
		c0,0.1,0.1,0.2,0.2,0.2c0.1,0,0.2,0,0.3,0h0.1V47h-2.3v-0.3c0.1,0,0.2,0,0.3,0c0.3,0,0.3-0.1,0.3-0.4v-2.8c0-0.1,0-0.4,0-0.5
		C42.2,43,42.1,43,42,43h-0.2v-0.3H44.1z M43.5,44.6c0.2,0,0.3,0,0.5,0c0.6,0,0.9-0.2,0.9-0.9c0-0.6-0.3-0.8-0.8-0.8
		c-0.1,0-0.3,0-0.4,0c-0.1,0.1-0.1,0.2-0.1,0.3V44.6z"/>
	<path d="M49.2,42.6h0.4l1.5,3.6c0.1,0.3,0.2,0.4,0.6,0.4V47h-2.1v-0.3c0.1,0,0.3,0,0.4-0.1c0.1-0.1,0-0.2,0-0.3l-0.3-0.7h-1.5
		c-0.1,0.2-0.2,0.4-0.2,0.6c0,0.3,0.3,0.4,0.6,0.4V47H47v-0.3c0.5,0,0.7-0.5,0.8-0.9L49.2,42.6z M49.6,45.3L49,43.8l-0.6,1.5H49.6z"
		/>
	<path d="M52.2,47v-0.3c0.2,0,0.3,0,0.5,0c0.1,0,0.1-0.2,0.1-0.3v-2.8c0-0.5,0-0.5-0.5-0.5h-0.2v-0.3h2.4V43h-0.4
		c-0.3,0-0.3,0.1-0.3,0.3v3c0,0.2,0,0.4,0.3,0.4c0.1,0,0.3,0,0.4,0c0.9,0,1.3-0.5,1.4-1.3h0.3L56.2,47H52.2z"/>
	<path d="M57.2,47v-0.3h0.4c0.3,0,0.3-0.2,0.3-0.4v-2.9c0-0.1,0-0.1,0-0.2c0-0.1,0-0.1-0.1-0.1c-0.1,0-0.2,0-0.3,0h-0.2v-0.3h2.3V43
		h-0.2c-0.1,0-0.3,0-0.4,0.1c0,0,0,0.1,0,0.1c0,0.1,0,0.1,0,0.2v3c0,0.1,0,0.2,0.1,0.3c0,0,0.1,0,0.1,0c0.1,0,0.2,0,0.3,0h0.1V47
		H57.2z"/>
	<path d="M62.3,42.6h0.4l1.5,3.6c0.1,0.3,0.2,0.4,0.6,0.4V47h-2.1v-0.3c0.1,0,0.3,0,0.4-0.1c0.1-0.1,0-0.2,0-0.3l-0.3-0.7h-1.5
		c-0.1,0.2-0.2,0.4-0.2,0.6c0,0.3,0.3,0.4,0.6,0.4V47h-1.7v-0.3c0.5,0,0.7-0.5,0.8-0.9L62.3,42.6z M62.7,45.3l-0.6-1.5l-0.6,1.5
		H62.7z"/>
	<path d="M79,39c-0.2,0-0.3,0.9-1.4,0.9c-0.7,0-7.1,0-7.1,0c-0.5,0-0.5-0.7-0.5-3.6c0-1.9,0.3-3.9,0.3-5.2c0-0.5-1.1-1.9-1.1-2.7
		c0-0.8,2.4-0.4,3.1-1.1c0.5,0.5,2.6,0.8,2.9,0.6c0.5,0.5,1,0.5,1.3,0.3c0.5,0,0.9,0.7,0.9-0.3c0-5.7-6.8-10.8-10.4-10.8
		c-4.6,0-9,4.2-9-0.8c0-2,1.4-5.1,1.4-6.9c0-1.7-1.4-2.1-2.2-2.1c-0.8,0-0.6,0.6-2.3,1.4c-1.5,0.6-0.8,0.8-0.2,0.7
		c2.3-0.1,2,1,2,1.5c0,3-2.5,2-2.5,7.6c0,6.2,6.9,9.4,7.7,9.4c0.6,0,1.2-0.7,1.2,0.1c0,0.8,1.2,1,1.2,3.4c0,2.4-2.8,6.4-3.2,7.5
		c-1.5,0-3.2-0.1-3.7,0.9H43.3H32.6c0-1.1-4.1-0.7-6-0.7c-1,0-1.9,0.1-1.9-1.5c0-4.3,1-6.5,1-8.8c0-2.2,0.8-2.6,1.5-3.3
		c0.4-0.4,1.3-1.7,1.6-1.7s0.3,0.1,0.6,0.4c0.3,0.3,1.4,1.3,1.4,1.7c0,0.9-0.7,0-0.7,1.1c0,0.5,0.5,0.9,1.1,0.9c0.2,0,0.4,0,0.5-0.1
		c0,0.2,0,0.4,0,0.5c0,7.4,5.8,11.5,11.7,11.5c5.9,0,11.7-4.1,11.7-11.5c0-2.4-1.1-12.8-1.1-12.8h-15c0-0.7-0.1-1-1.8-0.8
		c-0.7,0.1-1.4,0.4-2.1,0.8l-2.2,0c0,0-0.1,0.6-0.2,1.5c-0.3,0.1-0.5,0.2-0.7,0.2c-0.8,0-0.6-3.5-0.6-3.9c0-0.4,2-0.2,2.9-0.2
		c0.8,0,1.1-0.8,0.6-1.4c-0.5-0.6-0.8-0.5-1.2-1.1c-0.3-0.6-1.8-1-1.8-1.4c0-0.5,1-1.8,0.1-2.5c-0.6,0-1.1,1.5-1.5,1.5
		c-0.4,0-0.7-1.3-1.5-1.6c-0.3,0.4-0.4,0.7-0.4,1.2C28.5,9,29,9,29,10.1c0,1-0.6,0.8-0.6,2.5c0,1.8-1.9,2.1-2.4,3.5
		c-0.2,0.7-2.7,2.7-4.3,3.6c-1.7,1-5.3,3.2-5.3,8.5v6c0,7.1-11.4,3.5-11.4,6c0,0.5,0.3,0.5,0.5,0.5h58.8c0,0.1,0.1,0.3,0.2,0.4
		c0.5,0,1-0.1,1.7-0.4h11.4C78.9,40.7,79.2,39,79,39z M33.1,16h4.4c0,0.4,1,0.7,1.3,0h14.7c0,0,1.1,10,1.1,12.4
		c0,7.2-5.6,11.1-11.3,11.1c-5.7,0-11.3-4-11.3-11.1C32,26,33.1,16,33.1,16z M31,20.4c0.1-0.2,0.9-0.8,1.3-0.8
		c-0.2,1.8-0.4,4-0.5,5.7c-0.7-1.1-1.8-2.2-1.8-2.9C30,21.9,30.8,20.6,31,20.4z M21.9,40h-4.5c1.8-1.1,2.1-6.3,4.5-6.3
		C22.8,33.7,21.9,38.5,21.9,40z M67.7,39c-1.6,0-2.4-0.6-4.1,0.9H63c0.3-1.4,2.1-7.1,3.3-8.3c0-0.9-0.3-2.7,0.1-2.7
		c0.4,0,1.8,1.8,1.8,2.9C68.4,32.5,69.3,39,67.7,39z"/>
	<path d="M52,17.7c0,0,0.9,8.6,0.9,10.6c0,6.1-4.7,9.5-9.6,9.5c-4.9,0-9.6-3.4-9.6-9.5c0-2,0.9-10.6,0.9-10.6H52z M40.2,27.6v-9.5
		h-5.3c0,0-0.7,6.8-0.9,9.5H40.2 M46,18.1h-5.5v9.5H46V18.1z M40.5,27.9v9.1c0.9,0.3,1.8,0.4,2.8,0.4c0.9,0,1.9-0.1,2.8-0.4v-9.1
		H40.5z M46.4,36.9c3.4-1.1,6.2-3.8,6.2-9h-6.2V36.9z M52.5,27.6c-0.1-2.7-0.9-9.5-0.9-9.5h-5.3v9.5H52.5z M40.2,27.9H34
		c0,4.9,2.8,7.9,6.2,9V27.9"/>
	<path d="M41,11.5V8.8l-2.4-0.5l1.9-2l-1.2-2.1l2.5,0.3l1.5-2.6l1.5,2.6l2.5-0.2l-1.2,2.1l1.9,2l-2.4,0.5v2.7l-2.3-1.7L41,11.5z
		 M44.5,4.6l-1.2-2.1V7l-1.3-2.2l-2.2-0.2L43.3,7l-2.5-0.5l-1.7,1.7L43.3,7l-2,1.7V11l2-4.1l2.1,4.1l0-2.4l-2-1.7l4.2,1.3l-1.7-1.8
		L43.3,7l3.6-2.4l-2,0.2L43.3,7L44.5,4.6z"/>
	<path d="M47.1,12c0.4,0,0.6,0.3,0.6,0.6c0,0.4-0.3,0.6-0.6,0.6h-7.7c-0.4,0-0.6-0.3-0.6-0.6c0-0.4,0.3-0.6,0.6-0.6H47.1z
		 M41.7,13.1c0.8,0,0-0.9-0.4-0.9h-0.8c-0.8,0,0,0.9,0.4,0.9H41.7z M44.8,13.1c0.8,0,0-0.9-0.4-0.9h-0.8c-0.8,0,0,0.9,0.4,0.9H44.8z
		 M47.2,12.2h-0.3c-0.8,0-0.1,0.9,0.3,0.9C47.7,13.1,47.7,12.2,47.2,12.2"/>
	<path d="M37.1,19.6v-0.3l-0.3-0.1l0.2-0.2l-0.1-0.3l0.3,0l0.2-0.3l0.2,0.3l0.3,0L37.8,19l0.2,0.2l-0.3,0.1v0.3l-0.3-0.2L37.1,19.6z
		 M36.3,18.1v3.6h-1.8l-0.2,2.5h2v3.3h2.2v-3.3h1.7v-2.5h-1.7v-3.6H36.3z M34.8,23.5v-0.3l-0.3-0.1l0.2-0.2l-0.1-0.3l0.3,0l0.2-0.3
		l0.2,0.3l0.3,0l-0.1,0.3l0.2,0.2l-0.3,0.1v0.3l-0.3-0.2L34.8,23.5z M39.2,23.5v-0.3l-0.3-0.1l0.2-0.2L39,22.6l0.3,0l0.2-0.3
		l0.2,0.3l0.3,0l-0.1,0.3l0.2,0.2l-0.3,0.1v0.3l-0.3-0.2L39.2,23.5z M37.1,27.3v-0.3l-0.3-0.1l0.2-0.2l-0.1-0.3l0.3,0l0.2-0.3
		l0.2,0.3l0.3,0l-0.1,0.3l0.2,0.2l-0.3,0.1v0.3l-0.3-0.2L37.1,27.3z"/>
	<path d="M47.5,18.7l1.8,0.7l1.8-0.7l-0.7,2.7l1.4-0.3l-0.5,1.6l0.5,1.6L50.6,24l0.6,2.9l-1.8-0.7l-1.8,0.7l0.7-2.9l-1.5,0.4
		l0.4-1.6l-0.4-1.6l1.4,0.2L47.5,18.7z M50.2,23.6c0.4,0,0.4-0.6,0.4-1.1c0-1.1-0.9,0-1.3-1c-0.3,0.9-1.2,0.1-1.2,1
		c0,0.7,0,1.1,0.6,1.1H50.2z M48.4,22.6c0,0.4,0.6,0.1,1,0.1c0.4,0,1,0.3,1-0.1c0-0.6-0.6-0.4-1-0.4C48.9,22.2,48.4,22,48.4,22.6"/>
	<polygon points="43.4,22.7 43.4,22.4 43.1,22.3 43.3,22.1 43.2,21.8 43.5,21.8 43.6,21.5 43.8,21.8 44.1,21.8 44,22.1 44.2,22.3 
		43.9,22.4 43.9,22.7 43.6,22.5 	"/>
	<polygon points="42,24.5 42,24.1 41.7,24.1 41.9,23.8 41.8,23.6 42.1,23.6 42.3,23.3 42.4,23.6 42.7,23.6 42.6,23.8 42.8,24.1 
		42.5,24.1 42.5,24.5 42.3,24.3 	"/>
	<polygon points="44.3,24.3 44.3,23.9 44,23.9 44.3,23.6 44.1,23.4 44.4,23.4 44.6,23.1 44.8,23.4 45.1,23.4 45,23.6 45.2,23.9 
		44.9,23.9 44.9,24.3 44.6,24 	"/>
	<polygon points="44.6,25.6 44.6,25.4 44.4,25.4 44.6,25.2 44.5,25.1 44.7,25.1 44.8,24.9 44.9,25.1 45.1,25.1 45,25.2 45.1,25.4 
		44.9,25.4 44.9,25.6 44.8,25.5 	"/>
	<polygon points="42.4,27.1 42.4,26.5 41.9,26.4 42.3,26 42,25.6 42.6,25.6 42.9,25.1 43.2,25.6 43.8,25.6 43.5,26 43.9,26.4 
		43.4,26.5 43.4,27.1 42.9,26.8 	"/>
	<path d="M44.2,20.5c0.4,0,0.4-0.6,0.4-1.1c0-1.1-0.9,0-1.3-1c-0.3,0.9-1.2,0.1-1.2,1c0,0.7,0,1.1,0.6,1.1H44.2z M43.4,19.1
		c0.4,0,1-0.2,1,0.4c0,0.4-0.6,0.2-1,0.2c-0.4,0-1,0.2-1-0.2C42.4,18.9,42.9,19.1,43.4,19.1"/>
	<path d="M45.5,34.5c0-0.6-0.8-2.4-0.8-2.9c0-0.7,0.4,0,0.5,0c0-0.4,0-1.5-0.5-1.5c-1.7,0,1.1,4,0,4c-0.6,0-0.4-2.6-1.3-3.4
		c-0.8-0.8-2-0.8-2-1.6c0-0.4-0.3-0.1-0.3,0.1c0,0.9,1.9,1.6,1.9,2c0,0.5-0.3,0.5-0.5,0.8c-0.2,0.4-0.2,2.1-0.8,2.1
		c-0.4,0-0.1-0.3-0.5-0.3c-0.3,0,0.6,0.9,0.7,1.2H45C45.3,35.1,45.5,34.9,45.5,34.5"/>
	<path d="M41.1,30.2c0,0.2,1.1,1.5,1.3,1.5c0.3,0,0.2-0.1,0.2-0.3c0-0.1-1.2-1.3-1.4-1.3C41.1,30,41.1,30.1,41.1,30.2"/>
	<path d="M41.1,31.2c0,0.3,0.8,1.3,1,1.3c0.1,0,0.2-0.1,0.2-0.3c0-0.1-0.9-1.1-1-1.1C41.1,31,41.1,31,41.1,31.2"/>
	<path d="M41.3,32.6c0,0.3,0.3,0.9,0.5,0.9c0.1,0,0.2-0.1,0.2-0.3c0-0.1-0.4-0.8-0.5-0.8C41.3,32.4,41.3,32.4,41.3,32.6"/>
	<polygon points="44.6,35.8 44.8,35.4 42.2,35.4 42.4,35.8 	"/>
	<polygon points="44.3,36.4 44.5,36.1 42.6,36.1 42.8,36.4 	"/>
	<path d="M46.5,35.4c0-0.5,1.3-0.3,1.3-2.1c0-0.9-0.5,0.4-0.5-1.7c-0.7,0-0.1-1.1-0.1-1.8c0-0.7-0.4-0.5-0.4-0.9
		c0-0.5,0.1-0.5,0.3-0.5c0.2,0,0.6,0.4,0.6,0.7c0,0.4-0.2,0.2-0.2,1.2c0,0.6,0.2,0.6,0.4,0.6c0.2,0,0.3-0.1,0.3-0.4
		c0-0.2-0.2-0.4-0.2-0.6c0-0.4,0.5-0.8,1.1-0.8c0.8,0,1.2,0.9,1.2,1.2c0,0.3-0.1,0.5-0.1,0.7c0,0.3,0.2,0.4,0.4,0.4
		c0.4,0,0.6-0.5,0.6-0.8c0-0.4-0.4-0.8-0.4-1.4s0.4-0.8,0.8-0.8c0.3,0,0.9,0,0.9,0.4c0,0.3-0.1,0.4-0.3,0.4c-0.2,0-0.1-0.6-0.6-0.6
		c-0.6,0-0.5,0.5-0.5,0.7c0,0.7,0.5,0.9,0.5,1.5c0,0.5-0.4,0.5-0.4,1c0,0.5,0.4,0,0.4,0.5c0,0.3-0.1,0.4-0.1,0.7
		c-0.1,0.1-0.2,0.5-0.3,0.5c-0.1,0,0.1-0.4,0.1-0.7c0-0.3-0.2-0.2-0.4-0.2c-0.2,0-0.9,0.9-1.1,0.9c-0.3,0,0.3-0.5,0.3-0.7
		c0-0.6-1.1,0.1-1.1,0.4c0,0.5-0.6,1-0.8,1.3c-0.2,0.3-0.6,1.1-1,1.1C46.7,35.4,46.5,35.6,46.5,35.4"/>
	<path d="M38.1,31c0.3,0,0.4-0.9,0.4-1.3c0-0.6,0.9-0.6,1.4-1.3c0.1,0.1,0,0.6-0.6,1.1c0.7-0.3,0.9-0.3,0,0.7
		c0.4-0.1,1.1-0.6,0.4,0.5c0.4-0.2,0.5,0,0.5,0.4c0,0.4-0.5,1.7-1.4,1.7c-0.4,0-0.5,0-0.5,0.2c0,0.4,0.4,0.2,0.4,0.4
		c0,0.2-0.6,0-0.6,0.4c0,0.3,0.8,0.8,0.8,1.4c0,0.2-0.7,0-0.9,0c-0.2,0-0.2,0.2-0.3,0.2c-0.2,0-0.9-0.5-0.9-0.7
		c0-0.2,0.4-0.3,0.4-0.8c0-0.6-0.7-0.1-0.7-0.4c0-0.3,0.6-0.2,0.6-0.6c0-0.3-0.2-0.2-0.2-0.4c-0.1,0.2-0.1,0.4-0.4,0.4
		c-0.5,0-1.2-0.4-1.2-1.5c0-0.8,0.3-0.4,0.3-0.7c0-0.3-0.3-0.2-0.3-0.5c0-0.2,0.4,0.1,0.4-0.2c0-0.2-0.3-0.3-0.3-0.5
		c0-0.3,0.3,0.2,0.6,0.2c0-0.5-0.5-0.6-0.5-1c0.4,0,1.3,0.8,1.3,1.4c0,0.3-0.2,0.1-0.2,0.3c0,0.2,0.3,0.7,0.6,0.7
		c0.2,0,0.2-0.2,0.2-0.3c0-0.1-0.4-0.4-0.5-0.4c0.2-0.3,0.5-0.4,0.8-0.4C38.2,29.8,37.6,31,38.1,31"/>
	<path d="M41.4,38.9l-1.2-0.8l1.4,0.1C41.3,38.3,41.2,38.6,41.4,38.9"/>
	<path d="M35.6,36.1l-0.8-1.3l1.3,0.7C35.8,35.5,35.6,35.8,35.6,36.1"/>
	<path d="M32.7,30.5l0.3-1.4l0.5,1.4C33.2,30.3,32.9,30.3,32.7,30.5"/>
	<path d="M32.9,23.5l0.4-1.4l0.3,1.4C33.4,23.3,33.1,23.3,32.9,23.5"/>
	<path d="M33.5,17.5l0.4-1.4l0.3,1.4C34,17.3,33.7,17.3,33.5,17.5"/>
	<path d="M39.6,17.5l0.4-1.4l0.3,1.4C40.1,17.3,39.8,17.3,39.6,17.5"/>
	<path d="M45.2,38.9l1.2-0.8L45,38.2C45.3,38.3,45.3,38.6,45.2,38.9"/>
	<path d="M51,36.1l0.8-1.3l-1.3,0.7C50.8,35.5,50.9,35.8,51,36.1"/>
	<path d="M53.9,30.5l-0.3-1.4l-0.5,1.4C53.4,30.3,53.7,30.3,53.9,30.5"/>
	<path d="M53.7,23.5l-0.4-1.4l-0.3,1.4C53.1,23.3,53.4,23.3,53.7,23.5"/>
	<path d="M53,17.5l-0.4-1.4l-0.3,1.4C52.5,17.3,52.8,17.3,53,17.5"/>
	<path d="M46.9,17.5l-0.4-1.4l-0.3,1.4C46.4,17.3,46.7,17.3,46.9,17.5"/>
	<path d="M36.8,22.2c-0.3,0-0.4,0.2-0.4,0.3c-0.2-0.1-0.2-0.2-0.4,0c0.3,0.2,0.4,0.5,0.7,0.5c-0.2,0.2-0.8,0.8-0.4,0.8
		c0.2,0,0.2-0.6,1.5-0.6c-0.1,0.1-0.3,0.2-0.3,0.3c0,0.1,0.1,0.1,0.2,0.1c0.1,0,0.2-0.3,0.4-0.3c0.1,0,0.2,0,0.2,0.1
		c0,0-0.2,0.2,0.1,0.2c0.6,0-0.1-1.4-0.6-1.4c-0.4,0-0.3,0.5-0.4,0.5C37.2,22.7,37.4,22.2,36.8,22.2"/>
</g>
<g>
	<rect x="92.2" y="40.2" width="312.3" height="0.6"/>
	<g>
		<path d="M96.3,27.9h-2.9v4.5h-1.2V21.5h4.1c2,0,3.4,1.2,3.4,3.2C99.7,26.7,98.3,27.9,96.3,27.9z M96.2,22.5h-2.8v4.3h2.8
			c1.4,0,2.3-0.7,2.3-2.2C98.5,23.3,97.5,22.5,96.2,22.5z"/>
		<path d="M107.5,32.4l-0.9-2.5h-4.8l-0.9,2.5h-1.2l4-10.9h1l4,10.9H107.5z M104.2,23.2l-2.1,5.8h4.1L104.2,23.2z"/>
		<path d="M116.7,32.4l-2.5-4.8h-2.6v4.8h-1.2V21.5h4.2c1.9,0,3.2,1.1,3.2,3c0,1.6-1,2.6-2.4,2.9l2.6,5H116.7z M114.5,22.5h-2.9v4
			h2.9c1.3,0,2.2-0.7,2.2-2C116.7,23.2,115.8,22.5,114.5,22.5z"/>
		<path d="M120.5,32.4V21.5h1.2v9.9h5.6v1H120.5z"/>
		<path d="M129.3,32.4V21.5h1.2v10.9H129.3z"/>
		<path d="M140,32.4l-0.9-2.5h-4.8l-0.9,2.5h-1.2l4-10.9h1l4,10.9H140z M136.8,23.2l-2.1,5.8h4.1L136.8,23.2z"/>
		<path d="M151.2,32.4v-8.3l-3,6.6h-1l-3-6.6v8.3H143V21.5h1.2l3.6,7.7l3.5-7.7h1.2v10.9H151.2z"/>
		<path d="M155.5,32.4V21.5h6.8v1h-5.6v3.8h4.8v1h-4.8v3.9h5.6v1H155.5z"/>
		<path d="M171.6,32.4l-5.8-8.8v8.8h-1.2V21.5h1.1l5.8,8.7v-8.7h1.2v10.9H171.6z"/>
		<path d="M179.1,22.5v9.9h-1.2v-9.9h-3.2v-1h7.5v1H179.1z"/>
		<path d="M194.3,31.4c-0.7,0.7-1.7,1.1-2.8,1.1s-2.1-0.4-2.8-1.1c-1-1-1-2.1-1-4.4c0-2.3,0-3.4,1-4.4c0.7-0.7,1.7-1.1,2.8-1.1
			s2.1,0.4,2.8,1.1c1,1,1,2.1,1,4.4C195.3,29.3,195.3,30.3,194.3,31.4z M193.4,23.2c-0.5-0.5-1.2-0.8-1.9-0.8
			c-0.7,0-1.4,0.3-1.9,0.8c-0.7,0.7-0.8,1.4-0.8,3.7c0,2.3,0.1,3,0.8,3.7c0.5,0.5,1.2,0.8,1.9,0.8c0.7,0,1.4-0.3,1.9-0.8
			c0.7-0.7,0.8-1.4,0.8-3.7C194.2,24.7,194.1,23.9,193.4,23.2z"/>
		<path d="M199.2,22.5v4h4.8v1h-4.8v4.8h-1.2V21.5h6.8v1H199.2z"/>
		<path d="M217.2,32.4l-0.9-2.5h-4.8l-0.9,2.5h-1.2l4-10.9h1l4,10.9H217.2z M213.9,23.2l-2.1,5.8h4.1L213.9,23.2z"/>
		<path d="M223.8,32.5c-2.2,0-3.8-1.5-3.8-3.7v-7.3h1.2v7.2c0,1.7,1,2.7,2.6,2.7c1.6,0,2.7-1.1,2.7-2.7v-7.2h1.2v7.3
			C227.6,31,226,32.5,223.8,32.5z"/>
		<path d="M233.4,32.5c-1.6,0-2.7-0.4-3.7-1.4l0.8-0.8c0.9,0.9,1.7,1.2,3,1.2c1.6,0,2.6-0.8,2.6-2c0-0.6-0.2-1.1-0.5-1.4
			c-0.4-0.3-0.6-0.4-1.4-0.5l-1.3-0.2c-0.9-0.1-1.5-0.4-2-0.8c-0.6-0.5-0.8-1.2-0.8-2c0-1.9,1.3-3.1,3.5-3.1c1.4,0,2.3,0.4,3.3,1.2
			l-0.8,0.8c-0.7-0.6-1.4-0.9-2.5-0.9c-1.5,0-2.3,0.8-2.3,2c0,0.5,0.2,1,0.5,1.3c0.3,0.3,0.9,0.5,1.5,0.6l1.2,0.2
			c1,0.2,1.5,0.4,2,0.8c0.6,0.5,0.9,1.3,0.9,2.2C237.2,31.3,235.7,32.5,233.4,32.5z"/>
		<path d="M242.8,22.5v9.9h-1.2v-9.9h-3.2v-1h7.5v1H242.8z"/>
		<path d="M254.3,32.4l-2.5-4.8h-2.6v4.8H248V21.5h4.2c1.9,0,3.2,1.1,3.2,3c0,1.6-1,2.6-2.4,2.9l2.6,5H254.3z M252.1,22.5h-2.9v4
			h2.9c1.3,0,2.2-0.7,2.2-2C254.3,23.2,253.4,22.5,252.1,22.5z"/>
		<path d="M264.4,32.4l-0.9-2.5h-4.8l-0.9,2.5h-1.2l4-10.9h1l4,10.9H264.4z M261.2,23.2l-2.1,5.8h4.1L261.2,23.2z"/>
		<path d="M267.4,32.4V21.5h1.2v9.9h5.6v1H267.4z"/>
		<path d="M276.2,32.4V21.5h1.2v10.9H276.2z"/>
		<path d="M286.9,32.4l-0.9-2.5h-4.8l-0.9,2.5h-1.2l4-10.9h1l4,10.9H286.9z M283.7,23.2l-2.1,5.8h4.1L283.7,23.2z"/>
	</g>
	<g>
		<path d="M98.7,57c-0.7,0.7-1.6,1-2.8,1h-3.7V47.1H96c1.1,0,2.1,0.4,2.8,1c1.1,1.1,1.1,2.8,1.1,4.3C99.8,53.9,99.8,55.8,98.7,57z
			 M97.9,48.9c-0.6-0.6-1.3-0.8-2.1-0.8h-2.4v8.8h2.4c0.8,0,1.6-0.2,2.1-0.8c0.8-0.8,0.7-2.4,0.7-3.7C98.6,51.1,98.7,49.7,97.9,48.9
			z"/>
		<path d="M102.5,58V47.1h6.8v1h-5.6v3.8h4.8v1h-4.8v3.9h5.6v1H102.5z"/>
		<path d="M115.8,53.5h-2.9V58h-1.2V47.1h4.1c2,0,3.4,1.2,3.4,3.2C119.2,52.2,117.8,53.5,115.8,53.5z M115.7,48.1h-2.8v4.3h2.8
			c1.4,0,2.3-0.7,2.3-2.2C118,48.8,117,48.1,115.7,48.1z"/>
		<path d="M127,58l-0.9-2.5h-4.8l-0.9,2.5h-1.2l4-10.9h1l4,10.9H127z M123.7,48.7l-2.1,5.8h4.1L123.7,48.7z"/>
		<path d="M136.2,58l-2.5-4.8h-2.6V58H130V47.1h4.2c1.9,0,3.2,1.2,3.2,3c0,1.6-1,2.6-2.4,2.9l2.6,5H136.2z M134.1,48.1h-2.9v4h2.9
			c1.3,0,2.2-0.7,2.2-2C136.2,48.8,135.3,48.1,134.1,48.1z"/>
		<path d="M143.2,48.1V58h-1.2v-9.9h-3.2v-1h7.5v1H143.2z"/>
		<path d="M156.6,58v-8.3l-3,6.6h-1l-3-6.6V58h-1.2V47.1h1.2l3.6,7.7l3.5-7.7h1.2V58H156.6z"/>
		<path d="M160.9,58V47.1h6.8v1h-5.6v3.8h4.8v1h-4.8v3.9h5.6v1H160.9z"/>
		<path d="M177.1,58l-5.8-8.8V58h-1.2V47.1h1.1l5.8,8.7v-8.7h1.2V58H177.1z"/>
		<path d="M184.6,48.1V58h-1.2v-9.9h-3.2v-1h7.5v1H184.6z"/>
		<path d="M199.8,56.9c-0.7,0.7-1.7,1.1-2.8,1.1c-1.1,0-2.1-0.4-2.8-1.1c-1-1-1-2.1-1-4.4c0-2.3,0-3.4,1-4.4
			c0.7-0.7,1.7-1.1,2.8-1.1c1.1,0,2.1,0.4,2.8,1.1c1,1,1,2.1,1,4.4C200.8,54.8,200.8,55.9,199.8,56.9z M198.9,48.8
			c-0.5-0.5-1.2-0.8-1.9-0.8c-0.7,0-1.4,0.3-1.9,0.8c-0.7,0.7-0.8,1.4-0.8,3.7s0.1,3,0.8,3.7c0.5,0.5,1.2,0.8,1.9,0.8
			c0.7,0,1.4-0.3,1.9-0.8c0.7-0.7,0.8-1.4,0.8-3.7S199.5,49.5,198.9,48.8z"/>
		<path d="M204.7,48.1v4h4.8v1h-4.8V58h-1.2V47.1h6.8v1H204.7z"/>
		<path d="M220.3,53.5h-2.9V58h-1.2V47.1h4.1c2,0,3.4,1.2,3.4,3.2C223.7,52.2,222.3,53.5,220.3,53.5z M220.2,48.1h-2.8v4.3h2.8
			c1.4,0,2.3-0.7,2.3-2.2C222.5,48.8,221.5,48.1,220.2,48.1z"/>
		<path d="M231.5,58l-0.9-2.5h-4.8L225,58h-1.2l4-10.9h1l4,10.9H231.5z M228.2,48.7l-2.1,5.8h4.1L228.2,48.7z"/>
		<path d="M240.8,58l-2.5-4.8h-2.6V58h-1.2V47.1h4.2c1.9,0,3.2,1.2,3.2,3c0,1.6-1,2.6-2.4,2.9l2.6,5H240.8z M238.6,48.1h-2.9v4h2.9
			c1.3,0,2.2-0.7,2.2-2C240.7,48.8,239.8,48.1,238.6,48.1z"/>
		<path d="M244.5,58V47.1h1.2v9.9h5.6v1H244.5z"/>
		<path d="M253.3,58V47.1h1.2V58H253.3z"/>
		<path d="M264,58l-0.9-2.5h-4.8l-0.9,2.5h-1.2l4-10.9h1l4,10.9H264z M260.8,48.7l-2.1,5.8h4.1L260.8,48.7z"/>
		<path d="M275.2,58v-8.3l-3,6.6h-1l-3-6.6V58H267V47.1h1.2l3.6,7.7l3.5-7.7h1.2V58H275.2z"/>
		<path d="M279.5,58V47.1h6.8v1h-5.6v3.8h4.8v1h-4.8v3.9h5.6v1H279.5z"/>
		<path d="M295.7,58l-5.8-8.8V58h-1.2V47.1h1.1l5.8,8.7v-8.7h1.2V58H295.7z"/>
		<path d="M303.1,48.1V58H302v-9.9h-3.2v-1h7.5v1H303.1z"/>
		<path d="M313.8,58l-0.9-2.5h-4.8l-0.9,2.5H306l4-10.9h1l4,10.9H313.8z M310.5,48.7l-2.1,5.8h4.1L310.5,48.7z"/>
		<path d="M323,58l-2.5-4.8h-2.6V58h-1.2V47.1h4.2c1.9,0,3.2,1.2,3.2,3c0,1.6-1,2.6-2.4,2.9l2.6,5H323z M320.8,48.1h-2.9v4h2.9
			c1.3,0,2.2-0.7,2.2-2C323,48.8,322.1,48.1,320.8,48.1z"/>
		<path d="M329.8,53.5V58h-1.2v-4.5l-3.3-6.4h1.3l2.6,5.2l2.5-5.2h1.3L329.8,53.5z"/>
		<path d="M341.3,58.1c-1.6,0-2.7-0.4-3.7-1.4l0.8-0.8c0.9,0.9,1.7,1.2,3,1.2c1.6,0,2.6-0.7,2.6-2c0-0.6-0.2-1.1-0.5-1.4
			c-0.4-0.3-0.6-0.4-1.4-0.5l-1.3-0.2c-0.9-0.1-1.5-0.4-2-0.8c-0.6-0.5-0.8-1.2-0.8-2c0-1.9,1.3-3.1,3.5-3.1c1.4,0,2.3,0.4,3.2,1.2
			l-0.8,0.8c-0.7-0.6-1.4-0.9-2.5-0.9c-1.5,0-2.3,0.8-2.3,2c0,0.5,0.2,1,0.5,1.3c0.3,0.3,0.9,0.5,1.5,0.6l1.2,0.2
			c1,0.2,1.5,0.4,2,0.8c0.6,0.5,0.9,1.3,0.9,2.2C345.1,56.9,343.6,58.1,341.3,58.1z"/>
		<path d="M347.5,58V47.1h6.8v1h-5.6v3.8h4.8v1h-4.8v3.9h5.6v1H347.5z"/>
		<path d="M363,58l-2.5-4.8h-2.6V58h-1.2V47.1h4.2c1.9,0,3.2,1.2,3.2,3c0,1.6-1,2.6-2.4,2.9l2.6,5H363z M360.8,48.1h-2.9v4h2.9
			c1.3,0,2.2-0.7,2.2-2C363,48.8,362.1,48.1,360.8,48.1z"/>
		<path d="M369.9,58h-1l-3.6-10.9h1.2l2.8,8.8l2.8-8.8h1.2L369.9,58z"/>
		<path d="M375.1,58V47.1h1.2V58H375.1z"/>
		<path d="M382.9,58.1c-1.1,0-2.1-0.4-2.8-1.1c-1-1-1-2.1-1-4.4c0-2.3,0-3.4,1-4.4c0.7-0.7,1.7-1.1,2.8-1.1c2,0,3.4,1.2,3.8,3.3
			h-1.2c-0.3-1.3-1.2-2.2-2.6-2.2c-0.7,0-1.4,0.3-1.9,0.8c-0.7,0.7-0.8,1.5-0.8,3.7s0.1,3,0.8,3.7c0.5,0.5,1.2,0.8,1.9,0.8
			c1.4,0,2.3-0.9,2.6-2.2h1.2C386.3,56.9,384.8,58.1,382.9,58.1z"/>
		<path d="M389.2,58V47.1h6.8v1h-5.6v3.8h4.8v1h-4.8v3.9h5.6v1H389.2z"/>
		<path d="M401.2,58.1c-1.6,0-2.7-0.4-3.7-1.4l0.8-0.8c0.9,0.9,1.7,1.2,3,1.2c1.6,0,2.6-0.7,2.6-2c0-0.6-0.2-1.1-0.5-1.4
			c-0.4-0.3-0.6-0.4-1.4-0.5l-1.3-0.2c-0.9-0.1-1.5-0.4-2-0.8c-0.6-0.5-0.8-1.2-0.8-2c0-1.9,1.3-3.1,3.5-3.1c1.4,0,2.3,0.4,3.2,1.2
			l-0.8,0.8c-0.7-0.6-1.4-0.9-2.5-0.9c-1.5,0-2.3,0.8-2.3,2c0,0.5,0.2,1,0.5,1.3c0.3,0.3,0.9,0.5,1.5,0.6l1.2,0.2
			c1,0.2,1.5,0.4,2,0.8c0.6,0.5,0.9,1.3,0.9,2.2C405,56.9,403.5,58.1,401.2,58.1z"/>
	</g>
</g>
</svg>
