<svg xmlns="http://www.w3.org/2000/svg" viewBox="0 0 80.9 50"><path fill-rule="evenodd" clip-rule="evenodd" fill="#333333" d="M0 4.8v38.1C0 47.6 1.8 50 5.9 50h25.6l1.1-3.5c-10.8-3.5-16.1-13-16.1-22 0-10.1 6.6-17.8 15-21.4L32.6 0H5.3C2.9 0 0 2.4 0 4.8zm80.9 0C80.9 2.4 78.5 0 76 0H43.4l-1.3 3.1c14.3.6 22 11.3 22 21.4 0 9-6.6 21.4-20.2 22L42.1 50h33.3c3.7 0 5.5-2.4 5.5-7.1V4.8zM41.8 17.9c.3-1.7-1.4-2.9-3.2-2.9h-3.5l5.3-15H35L23.1 33.9h5l5.6-16.1h3.1l-5.9 16.1h5.3s5.5-15.4 5.6-16zm4.5-2.9L34.4 50h5.3l4.8-15.4h5.9c2.4 0 3-1.6 3.6-3.4.5-1.3 4.3-12.7 4.5-13.3.4-1.3-.7-2.8-2.8-2.9-1.7-.1-9.4 0-9.4 0zm-.6 17.2l4.8-14.4 3.1.1-4.8 14.3h-3.1z"/></svg>
