<svg xmlns="http://www.w3.org/2000/svg" viewBox="0 0 200 50"><path fill-rule="evenodd" clip-rule="evenodd" d="M168.9 31.7c-.1 1.3-.2 2-.7 3 1.2 1 2.9 2 5.6 2 5.3 0 8.4-3.5 8.4-7.7 0-7.5-10.8-4.9-10.8-11.3 0-2.5 1.8-4.2 4.4-4.2 2.6 0 3.6 1.9 4.1 3.2h.4c.3-1.3.5-2.1 1-2.9-1.4-1-2.9-1.5-5.1-1.5-4.5 0-7.5 2.6-7.5 6.4 0 8 10.8 5.3 10.8 11.6 0 2.7-1.8 4.9-4.8 4.9-2.9 0-4.7-1.9-5.4-3.5h-.4zM185.3 13.7h.6c.1 0 .3 0 .4.1.1.1.1.1.1.2s0 .1-.1.1c0 .1-.1.1-.1.1-.1 0-.1.1-.3.1h-.5v-.6h-.1zm0 1.7v-.9h.4s.1 0 .1.1l.1.1c.1.1.1.2.2.3l.3.4h.3l-.4-.6-.2-.2c0-.1-.1-.1-.1-.1.2 0 .4-.1.4-.1.1-.1.1-.2.1-.4 0-.1-.1-.2-.1-.3l-.2-.2H185v2h.3v-.1z"/><path fill="none" stroke="#000" stroke-width=".305" stroke-miterlimit="2.613" d="M185.7 16.5c1.2 0 2.1-1 2.1-2 0-1.2-1-2.1-2.1-2.1-1.2 0-2.1 1-2.1 2.1s1 2 2.1 2z"/><path fill-rule="evenodd" clip-rule="evenodd" d="M80 21.6c0-2.5.1-5 .2-7.5.8-.1 1.8-.1 3.4-.1 2.3 0 5.3.9 5.3 4.5 0 4.1-3.7 5.3-6.6 5.3-.9 0-1.6-.1-2.3-.2v-2zm-2.7 5.8c0 2.9-.1 5.9-.3 8.8.6-.1 1.1-.1 1.7-.1.5 0 1.1.1 1.7.1-.1-2.9-.3-5.9-.3-8.8v-2.5h1.3c2.9 3 7.5 9.2 8.9 11.3.7-.1 1.3-.1 2-.1s1.4.1 2.1.1c-2-2.2-7.7-9.6-9.4-11.6 2.6-.4 7-2.1 7-6.6 0-4-3.3-5.3-7.1-5.3-1.3 0-2.6.1-4 .1-1.2 0-2.6-.1-3.9-.1.1 2.9.3 5.9.3 8.8v5.9z"/><path fill-rule="evenodd" clip-rule="evenodd" d="M115.1 24.5c0 7.5-4.2 11-9.5 11s-9.5-3.4-9.5-11 4.1-11 9.5-11 9.5 3.4 9.5 11zm-22.3 0c0 7.8 5.3 12.2 12.8 12.2 7.5 0 12.8-4.5 12.8-12.2 0-7.8-5.3-12.2-12.8-12.2-7.5 0-12.8 4.4-12.8 12.2zM140.3 36.7c-.1-1.5-.1-9.1-.1-12.6 0-2.6.4-9.4.6-11.4-.4.1-.7.1-1.1.1-.4 0-.8-.1-1.2-.1.3 5.3.3 11.9.3 18-4.2-4.2-11.8-12.4-17.4-18.4h-.5c.1 1.5.1 4.8.1 9.1 0 4.5-.4 13.2-.7 14.8.4-.1.9-.1 1.3-.1s.8.1 1.2.1c-.1-1.4-.3-8.6-.3-11.5 0-3.7.1-5.7.1-6.9 5.9 6.2 12.1 12.7 17.3 18.9h.4zM164.4 24.5c0 7.5-4.1 11-9.5 11-5.3 0-9.5-3.4-9.5-11s4.1-11 9.5-11 9.5 3.4 9.5 11zm-22.3 0c0 7.8 5.3 12.2 12.8 12.2 7.5 0 12.8-4.5 12.8-12.2 0-7.8-5.3-12.2-12.8-12.2-7.5 0-12.8 4.4-12.8 12.2zM12.4 20.8h16.4c.4 0 4.7.2 6.4-2.3 1.8-2.5 7-9.8 7-9.8.5.2.5.3.8.5 0 0-8.7 12.1-8.7 12.2-1.5 2-4 2.6-6 2.6H12.2c-.1-.9 0-2.1.2-3.2zM50.4 24.4c0 4.8-1.7 9.3-4.8 12.6l-7-9.7c-.7-.9-1.8-2.3-3.7-2.9 1.9-.6 3.1-2 3.7-2.9l7-9.8c3.2 3.4 4.8 7.8 4.8 12.7z"/><path fill-rule="evenodd" clip-rule="evenodd" d="M13.7 16.7h14.1c3.7 0 4.3-1 5.3-2 .1 0 5.7-8 5.7-8s.4.1.8.4c0 0-3.3 4.7-7.5 10.5-.7.9-1.9 2.3-4.3 2.3h-15c.1-1.2.6-2.3.9-3.2zM16.8 11.8h7.9c1.4 0 2.2-1.3 2.7-1.8 0 .1 3.4-4.8 3.4-4.8-4.7.1-10 2-14 6.6z"/><path fill-rule="evenodd" clip-rule="evenodd" d="M16.1 12.7h10.8c2.6.1 4.1-2.1 4.1-2.1l3.7-5 1 .1s-5.4 7.5-5.5 7.6c-1.2 1.8-2.4 2.5-4 2.6h-12c.1-.6 1-2.1 1.9-3.2zM12.4 28h16.4c.4 0 4.7-.1 6.4 2.3 1.8 2.5 7 9.8 7 9.8.4-.2.4-.3.7-.5 0 0-8.7-12.1-8.7-12.2-1.5-2-4-2.6-6-2.6H12.1c0 .9.1 2.1.3 3.2z"/><path fill-rule="evenodd" clip-rule="evenodd" d="M13.7 32h14.1c3.7 0 4.3 1 5.3 2 .1 0 5.7 8 5.7 8s.4-.1.8-.4c0 0-3.3-4.7-7.5-10.5-.7-.9-1.9-2.3-4.3-2.3 0 .1-15 0-15 0 .1 1.2.6 2.3.9 3.2zM16.8 36.9h7.9c1.4 0 2.2 1.3 2.7 1.8l3.4 4.8c-4.7-.1-10-2-14-6.6z"/><path fill-rule="evenodd" clip-rule="evenodd" d="M16.1 36h10.8c2.6 0 4.1 2.1 4.1 2.1l3.7 5 1-.1s-5.4-7.5-5.5-7.6c-1.2-1.8-2.4-2.5-4-2.6h-12c.3 1 1 2.1 1.9 3.2zM58.7 27.5v-5.9c0-2.9-.1-5.9-.3-8.7.6.1 1.1.1 1.7.1.5 0 1-.1 1.6-.1-.1 2.9-.2 5.8-.2 8.7v1.9c0 .1.1.2.1.2.1 0 .2-.1.5-.3 3.2-2.7 7-6.9 10.2-10.5.4.1.9.1 1.4.1s1.1-.1 1.6-.1c-3.1 2.7-8.4 7.7-10.8 10.5 3.7 4.1 7.4 8.4 11.2 12.7-.7-.1-1.3-.1-2.1-.1-.6 0-1.2.1-1.8.1-3.2-3.9-8.3-10.1-9.8-11.5-.1-.1-.3-.2-.4-.2-.1 0-.1.1-.1.1v3c0 2.9.1 5.9.2 8.7-.6-.1-1.1-.1-1.6-.1-.6 0-1.1.1-1.7.1.2-2.9.3-5.9.3-8.7z"/></svg>
