<svg xmlns="http://www.w3.org/2000/svg" viewBox="0 0 101.1 50"><g fill-rule="evenodd" clip-rule="evenodd"><path fill="#333" d="M0 50h51.1l50-50H0v50"/><path class="not-fill" fill="#FFF" d="M60 9.4h-9.9V33L41.3 9.4h-8.6l-7.4 19.8c-.8-5-5.9-6.7-10-8-2.7-.9-5.5-2.1-5.5-3.5 0-1.1 1.5-2.2 4.5-2.1 2 .1 3.8.3 7.3 2l3.5-6c-3.2-1.6-7.6-2.7-11.3-2.7-4.2 0-7.8 1.4-9.9 3.6-1.5 1.6-2.3 3.6-2.4 5.8-.1 3.1 1.1 5.2 3.4 6.9 2 1.5 4.5 2.4 6.8 3.1 2.8.9 5 1.6 5 3.2 0 .6-.2 1.1-.7 1.6-.7.7-1.7 1-3.2 1-2.8.1-4.9-.4-8.2-2.4l-3.1 6.1c3.3 1.9 7.3 3 11.3 3h.5c3.5-.1 6.3-1.1 8.6-2.9.1-.1.2-.2.4-.3l-1 2.7h9l1.5-4.6c1.6.5 3.4.8 5.3.8s3.6-.3 5.2-.8l1.5 4.6h14.7v-9.6h3.2c7.8 0 12.4-4 12.4-10.6-.2-7.3-4.6-10.7-14.1-10.7zM37 29.6c-1.2 0-2.2-.2-3.2-.6l3.2-9.9 3.1 10c-.9.3-2 .5-3.1.5zm23.6-5.7h-2.2v-8h2.2c2.9 0 5.2 1 5.2 4 0 3.1-2.3 4-5.2 4"/></g><path d="M63.3 46.7c0-1.5 1.2-2.7 2.6-2.7 1.5 0 2.6 1.2 2.6 2.7 0 1.6-1.2 2.7-2.6 2.7-1.4.1-2.6-1.1-2.6-2.7zm2.6 3.3c1.8 0 3.3-1.4 3.3-3.3s-1.5-3.2-3.3-3.2c-1.8 0-3.3 1.4-3.3 3.2 0 1.9 1.6 3.3 3.3 3.3zm-.7-3h.7l1 1.6h.6l-1-1.6c.5-.1 1-.4 1-1 0-.7-.4-1.1-1.3-1.1h-1.4v3.7h.6V47zm0-.5v-1.2h.8c.4 0 .8.1.8.5 0 .6-.4.6-.9.6h-.7z"/></svg>