<?xml version="1.0" encoding="utf-8"?>
<!-- Generator: Adobe Illustrator 17.1.0, SVG Export Plug-In . SVG Version: 6.00 Build 0)  -->
<!DOCTYPE svg PUBLIC "-//W3C//DTD SVG 1.1//EN" "http://www.w3.org/Graphics/SVG/1.1/DTD/svg11.dtd">
<svg version="1.1" id="Layer_1" xmlns="http://www.w3.org/2000/svg" xmlns:xlink="http://www.w3.org/1999/xlink" x="0px" y="0px"
	 viewBox="0 0 200 109.4" enable-background="new 0 0 200 109.4" xml:space="preserve">
<g>
	<path fill="#333333" d="M176.6,76.1v-7.2c-17.4,2.6-29.5,7.4-29.5,7.4l-15.1-0.6l-24.3-20.7V32.4l-2.4-1.7v25.5l22.8,19.4
		l-11.5-0.4l-13.2-18.4V28l-2.4,1.6v28L113.5,75l-7-0.3V78h-3.2v8.7h-6.7V78h-3.2v-3.3l-7,0.3L99,57.5v-28L96.6,28v28.8L83.4,75.1
		l-11.5,0.4l22.8-19.4V30.6l-2.4,1.7v22.7L68.1,75.7L53,76.3c0,0-12.1-4.8-29.5-7.4v7.2L0,72.2v37.2h200V72.2L176.6,76.1z
		 M15.9,105.1h-5V92.5h5V105.1z M15.9,90.6h-5v-7.9h5V90.6z M25.1,105.1h-5V92.6h5V105.1z M25.1,90.6h-5v-7.9h5V90.6z M34.2,105.1
		h-5V92.5h5V105.1z M34.2,90.6h-5v-7.9h5V90.6z M43.4,105.1h-5V92.7h5V105.1z M43.4,90.6h-5v-7.9h5V90.6z M50.2,105.1h-3.8V92.6h3.8
		V105.1z M50.2,90.6h-3.8v-7.9h3.8V90.6z M58.1,105.1h-4.7V81.2h4.7V105.1z M66.3,105.1h-4.7V80.5h4.7V105.1z M74.6,105.1h-4.7V80.2
		h4.7V105.1z M82.9,105.1h-4.7V79.8h4.7V105.1z M93.1,105.1h-6.7V90.7h6.7V105.1z M103.3,105.1h-6.7V90.7h6.7V105.1z M113.6,105.1
		h-6.7V90.7h6.7V105.1z M121.8,105.1h-4.7V79.8h4.7V105.1z M130.1,105.1h-4.7V80.2h4.7V105.1z M138.4,105.1h-4.7V80.5h4.7V105.1z
		 M146.7,105.1h-4.7V81.2h4.7V105.1z M153.5,105.1h-3.8V92.6h3.8V105.1z M153.5,90.6h-3.8v-7.9h3.8V90.6z M161.6,105.1h-5V92.7h5
		V105.1z M161.6,90.6h-5v-7.9h5V90.6z M170.7,105.1h-5V92.5h5V105.1z M170.7,90.6h-5v-7.9h5V90.6z M179.9,105.1h-5V92.6h5V105.1z
		 M179.9,90.6h-5v-7.9h5V90.6z M189,105.1h-5V92.5h5V105.1z M189,90.6h-5v-7.9h5V90.6z"/>
	<path fill="#333333" d="M99.8,1.1c0,0,0.7,2.2,0.2,7.2c0,0,3.6-1.7,6.9-1.1v1c0,0,0.1,0.7,1.2,0.3c1.1-0.4,1.3-1,2.8-0.3
		c1.6,0.7,2-0.3,2.8-0.2c0,0-1.6-2.5-0.9-6.6c0,0-0.5,0.3-1.2,0.4c-0.8,0.1-1.1,0-1.5-0.3c-0.4-0.3-1.2-0.3-2,0
		c-0.7,0.3-1.1,0-1.1,0l-0.1-1C107,0.6,105.8-1,99.8,1.1z"/>
</g>
</svg>
